<?xml version="1.0" encoding="UTF-8" standalone="no"?>
<!DOCTYPE svg PUBLIC "-//W3C//DTD SVG 1.1//EN" "http://www.w3.org/Graphics/SVG/1.1/DTD/svg11.dtd">
<svg xmlns="http://www.w3.org/2000/svg" version="1.1" viewBox="0 0 123 200">
<g stroke-width="2.00" fill="none" stroke-linecap="butt">
<path stroke="#464746" vector-effect="non-scaling-stroke" d="
  M 55.96 32.25
  C 51.55 30.63 54.60 35.98 55.42 36.93
  A 1.41 1.35 -65.9 0 1 55.74 37.82
  C 55.74 39.67 55.25 48.47 56.50 49.29"
/>
<path stroke="#515151" vector-effect="non-scaling-stroke" d="
  M 56.50 49.29
  L 57.32 49.75
  A 0.96 0.95 -77.4 0 1 57.79 50.50
  L 58.04 54.00"
/>
<path stroke="#5e5e5c" vector-effect="non-scaling-stroke" d="
  M 58.04 54.00
  L 57.96 54.25"
/>
<path stroke="#a1a1a0" vector-effect="non-scaling-stroke" d="
  M 57.96 54.25
  Q 55.55 54.18 55.94 51.89
  A 0.55 0.55 0.0 0 0 55.40 51.25
  L 54.13 51.25
  A 0.59 0.58 86.7 0 1 53.55 50.73
  C 53.36 48.89 53.97 41.30 51.29 41.50"
/>
<path stroke="#515151" vector-effect="non-scaling-stroke" d="
  M 51.29 41.50
  Q 50.21 39.36 51.29 37.25"
/>
<path stroke="#a1a1a0" vector-effect="non-scaling-stroke" d="
  M 51.29 37.25
  Q 52.78 37.39 52.90 36.18
  Q 53.72 27.66 53.22 16.45
  A 1.17 1.16 19.5 0 0 52.82 15.62
  Q 52.18 15.06 51.25 15.29"
/>
<path stroke="#515151" vector-effect="non-scaling-stroke" d="
  M 51.25 15.29
  L 50.71 14.50"
/>
<path stroke="#7f7e7e" vector-effect="non-scaling-stroke" d="
  M 51.25 15.29
  Q 50.59 26.27 51.29 37.25"
/>
<path stroke="#7f7e7e" vector-effect="non-scaling-stroke" d="
  M 51.29 41.50
  L 51.04 56.25"
/>
<path stroke="#676766" vector-effect="non-scaling-stroke" d="
  M 51.04 56.25
  L 51.34 59.76
  A 0.99 0.97 -76.7 0 0 51.80 60.52
  Q 53.64 61.69 53.79 64.00"
/>
<path stroke="#5c5c5b" vector-effect="non-scaling-stroke" d="
  M 53.79 64.00
  Q 53.17 65.39 55.40 66.27
  A 1.03 1.03 0.0 0 1 56.06 67.29
  Q 55.65 74.83 57.54 82.25"
/>
<path stroke="#424242" vector-effect="non-scaling-stroke" d="
  M 57.54 82.25
  Q 57.77 86.24 56.31 90.06
  A 0.96 0.94 39.1 0 0 56.41 90.92
  Q 58.83 94.62 58.08 100.22
  C 57.96 101.11 57.48 113.74 59.59 115.30
  A 1.23 1.21 -77.3 0 1 60.05 116.04
  Q 61.24 122.36 60.42 128.75
  A 1.53 1.51 -20.9 0 1 60.05 129.56
  C 57.13 132.88 57.64 135.77 57.76 140.89
  C 57.80 142.70 58.71 144.93 57.76 147.32
  C 56.03 151.66 60.82 154.82 64.03 156.50
  A 1.19 1.18 -39.1 0 0 64.93 156.59
  C 66.53 156.14 67.86 157.04 69.16 156.99
  Q 73.35 156.82 77.05 154.71
  A 0.84 0.84 0.0 0 0 77.49 153.97
  Q 77.50 147.61 77.51 141.25
  C 77.52 137.32 79.34 134.04 78.92 129.75
  Q 78.85 129.11 77.38 124.43
  C 75.88 119.63 77.90 115.59 77.83 111.84
  Q 77.77 108.83 76.69 105.93
  A 1.12 1.12 0.0 0 1 76.94 104.75
  Q 81.39 100.28 77.29 95.50"
/>
<path stroke="#5c5c5b" vector-effect="non-scaling-stroke" d="
  M 77.29 95.50
  Q 77.01 92.00 79.14 89.29
  A 1.84 1.82 -22.0 0 0 79.52 88.41
  C 80.20 83.31 78.84 80.93 81.62 76.07
  A 1.38 1.34 -36.3 0 0 81.78 75.12
  Q 81.30 72.55 82.24 70.10
  A 0.76 0.75 -65.9 0 0 81.88 69.15
  L 80.27 68.34
  A 0.77 0.76 12.2 0 1 79.86 67.72
  L 79.71 65.50"
/>
<path stroke="#7f7e7e" vector-effect="non-scaling-stroke" d="
  M 79.71 65.50
  L 80.22 62.90"
/>
<path stroke="#5c5c5b" vector-effect="non-scaling-stroke" d="
  M 80.22 62.90
  Q 82.14 58.34 82.82 53.44"
/>
<path stroke="#515151" vector-effect="non-scaling-stroke" d="
  M 87.29 55.50
  Q 84.14 58.27 84.77 62.49
  A 1.13 1.12 -31.2 0 1 84.55 63.36
  C 82.67 65.79 87.41 69.12 89.35 69.21"
/>
<path stroke="#242424" vector-effect="non-scaling-stroke" d="
  M 94.16 152.43
  Q 93.12 154.45 90.22 155.95
  Q 87.62 157.29 86.24 159.31
  A 1.88 1.84 4.5 0 1 85.44 159.98
  Q 82.00 161.53 81.01 165.10
  A 1.32 1.32 0.0 0 0 81.11 166.04
  C 82.39 168.50 80.77 173.40 77.45 171.97
  A 0.92 0.90 8.6 0 1 76.90 171.24
  Q 76.77 170.02 77.39 168.83
  A 0.93 0.91 -50.1 0 0 77.31 167.85
  Q 76.94 167.37 76.36 167.15
  Q 75.93 166.99 75.62 166.66
  L 72.00 162.92
  A 1.66 1.62 -16.8 0 0 71.10 162.45
  C 68.76 162.05 60.72 160.93 60.25 163.72
  A 0.88 0.87 24.1 0 0 60.57 164.54
  Q 63.63 167.00 65.57 170.44"
/>
<path stroke="#3b3b3a" vector-effect="non-scaling-stroke" d="
  M 65.57 170.44
  C 60.45 166.35 54.10 160.58 49.33 162.50
  A 0.95 0.93 82.1 0 0 48.74 163.30
  Q 48.64 164.53 49.78 164.77
  A 1.33 1.32 77.0 0 1 50.56 165.26
  Q 52.33 167.55 55.36 167.15
  A 1.20 1.18 63.3 0 1 56.36 167.49
  C 57.84 168.98 59.51 171.47 61.45 172.05
  C 62.65 172.40 65.75 172.81 65.79 170.75"
/>
<path stroke="#242424" vector-effect="non-scaling-stroke" d="
  M 65.79 170.75
  C 68.30 172.71 74.12 176.07 75.55 178.60
  A 1.32 1.32 0.0 0 0 76.26 179.21
  C 79.52 180.43 79.52 177.23 82.16 177.14
  A 0.60 0.60 0.0 0 1 82.78 177.75
  Q 82.74 181.87 79.45 184.10
  A 1.04 1.03 -53.9 0 1 78.59 184.24
  Q 71.85 182.36 67.51 177.12
  C 65.03 174.13 64.22 173.54 60.55 174.76
  A 3.78 3.78 0.0 0 1 57.94 174.68
  Q 56.39 174.06 54.86 174.27
  A 1.37 1.37 0.0 0 1 53.88 174.02
  L 46.75 168.91
  A 1.36 1.36 0.0 0 1 46.19 167.96
  L 45.71 163.86
  A 1.39 1.33 20.7 0 0 45.33 163.06
  L 43.90 161.58
  A 0.74 0.74 0.0 0 1 43.89 160.56
  Q 44.88 159.51 46.24 159.24
  A 1.54 1.53 -76.3 0 0 47.14 158.69
  C 50.26 154.83 48.46 152.11 48.16 148.21
  C 48.01 146.21 47.30 133.33 48.04 133.19
  A 0.28 0.28 0.0 0 0 48.27 132.93
  L 48.87 121.02
  A 1.10 1.09 75.7 0 1 49.38 120.15
  L 52.51 118.21
  A 1.15 1.11 82.6 0 0 53.00 117.55
  L 53.95 114.00
  Q 54.50 111.92 52.89 110.50
  Q 50.50 108.40 51.76 105.20
  A 1.19 1.19 0.0 0 1 52.43 104.53
  L 53.95 103.93
  A 0.68 0.68 0.0 0 0 54.36 103.08
  L 53.80 101.36
  A 0.70 0.69 64.2 0 1 54.07 100.56
  C 55.50 99.60 58.87 93.77 55.17 94.44
  A 1.13 1.12 -29.5 0 1 54.22 94.18
  Q 52.34 92.49 50.27 94.05
  A 1.55 1.50 27.4 0 1 49.27 94.35
  L 42.61 93.95
  A 1.14 1.14 0.0 0 1 41.55 92.94
  L 40.37 82.83"
/>
<path stroke="#3b3b3a" vector-effect="non-scaling-stroke" d="
  M 40.37 82.83
  L 39.04 77.75"
/>
<path stroke="#242424" vector-effect="non-scaling-stroke" d="
  M 39.04 77.75
  Q 39.93 77.90 40.72 77.53
  A 0.93 0.92 77.4 0 0 41.26 76.67
  L 41.24 75.70
  Q 41.22 75.17 41.46 74.70
  L 46.02 65.39
  Q 46.74 63.93 46.30 62.36
  Q 44.86 57.25 48.06 53.12
  A 1.68 1.67 65.4 0 0 48.42 52.14
  L 48.88 34.34
  A 0.45 0.45 0.0 0 0 48.35 33.89
  Q 47.60 34.03 47.00 33.71"
/>
<path stroke="#b8b7b5" vector-effect="non-scaling-stroke" d="
  M 58.21 59.50
  Q 56.61 59.25 55.22 59.93
  A 1.34 1.34 0.0 0 1 53.30 58.77
  C 53.28 57.90 53.51 54.50 52.76 54.14
  A 0.35 0.35 0.0 0 0 52.26 54.45
  Q 52.24 55.78 51.04 56.25"
/>
<path stroke="#464746" vector-effect="non-scaling-stroke" d="
  M 61.00 34.29
  L 61.29 36.00"
/>
<path stroke="#31312f" vector-effect="non-scaling-stroke" d="
  M 61.50 36.96
  L 61.07 37.10
  A 0.70 0.69 81.6 0 0 60.58 37.77
  L 60.54 46.50"
/>
<path stroke="#242424" vector-effect="non-scaling-stroke" d="
  M 60.54 46.50
  Q 59.85 49.65 56.50 49.29"
/>
<path stroke="#5e5e5c" vector-effect="non-scaling-stroke" d="
  M 75.00 45.46
  Q 74.19 44.72 73.30 44.90
  A 0.64 0.64 0.0 0 0 72.78 45.52
  L 72.54 57.00"
/>
<path stroke="#8c8b89" vector-effect="non-scaling-stroke" d="
  M 72.54 57.00
  Q 72.69 58.21 71.84 58.98
  Q 70.16 60.49 70.16 58.24
  L 70.17 52.70
  A 0.46 0.46 0.0 0 0 69.71 52.24
  Q 67.45 52.27 67.71 50.00"
/>
<path stroke="#696966" vector-effect="non-scaling-stroke" d="
  M 67.71 50.00
  L 67.48 48.41
  A 1.74 1.72 19.9 0 0 67.06 47.53
  L 65.21 45.45
  A 1.07 1.06 28.8 0 1 64.95 44.57
  C 65.13 43.54 65.92 36.62 64.01 36.99
  A 0.76 0.75 -89.4 0 0 63.40 37.59
  Q 62.52 41.92 63.25 46.29"
/>
<path stroke="#8c8b89" vector-effect="non-scaling-stroke" d="
  M 63.25 46.29
  Q 62.68 51.02 63.29 55.75"
/>
<path stroke="#5e5e5c" vector-effect="non-scaling-stroke" d="
  M 63.29 55.75
  L 63.48 60.25
  A 1.00 0.99 -74.1 0 0 63.91 61.03
  L 64.96 61.75"
/>
<path stroke="#747471" vector-effect="non-scaling-stroke" d="
  M 64.96 61.75
  Q 65.19 62.75 64.82 63.60
  A 0.84 0.83 10.8 0 1 64.09 64.09
  Q 59.30 64.26 58.21 59.50"
/>
<path stroke="#8c8b89" vector-effect="non-scaling-stroke" d="
  M 58.21 59.50
  L 57.96 54.25"
/>
<path stroke="#3b3b3a" vector-effect="non-scaling-stroke" d="
  M 58.04 54.00
  C 61.48 57.03 60.61 47.43 60.54 46.50"
/>
<path stroke="#70706e" vector-effect="non-scaling-stroke" d="
  M 77.29 95.50
  L 77.46 100.11
  Q 77.53 101.99 75.66 101.99
  C 74.34 102.00 70.24 101.17 70.21 102.75"
/>
<path stroke="#7e7f7d" vector-effect="non-scaling-stroke" d="
  M 70.21 102.75
  L 70.04 102.75"
/>
<path stroke="#acacaa" vector-effect="non-scaling-stroke" d="
  M 70.04 102.75
  Q 68.41 101.47 66.25 102.04"
/>
<path stroke="#959592" vector-effect="non-scaling-stroke" d="
  M 66.25 102.04
  L 63.00 101.96"
/>
<path stroke="#70706e" vector-effect="non-scaling-stroke" d="
  M 63.00 101.96
  Q 64.06 101.60 65.27 101.75
  Q 66.11 101.85 65.73 101.09
  L 65.44 100.51
  A 0.76 0.75 -17.0 0 0 64.65 100.10
  Q 62.97 100.37 61.39 99.62
  A 0.76 0.76 0.0 0 1 60.96 98.86
  L 61.25 95.77
  A 1.27 1.26 -64.0 0 0 60.91 94.77
  L 58.41 92.18
  A 1.08 1.07 21.8 0 1 58.11 91.49
  L 57.54 82.25"
/>
<path stroke="#acacaa" vector-effect="non-scaling-stroke" d="
  M 58.54 66.00
  C 56.33 68.69 57.42 75.52 58.04 78.75"
/>
<path stroke="#959592" vector-effect="non-scaling-stroke" d="
  M 58.04 78.75
  Q 57.48 84.32 60.14 89.15
  A 0.96 0.94 -11.3 0 0 60.88 89.63
  Q 67.12 90.26 73.26 90.10
  C 74.66 90.06 75.24 89.34 74.71 88.00"
/>
<path stroke="#acacaa" vector-effect="non-scaling-stroke" d="
  M 74.71 88.00
  Q 74.80 85.38 77.19 84.53
  A 0.77 0.76 83.5 0 0 77.70 83.88
  Q 78.14 78.96 78.54 78.05
  C 79.90 74.98 81.41 70.64 77.75 68.46"
/>
<path stroke="#31312f" vector-effect="non-scaling-stroke" d="
  M 40.37 82.83
  Q 37.03 81.86 35.50 83.54"
/>
<path stroke="#31312f" vector-effect="non-scaling-stroke" d="
  M 65.79 170.75
  Q 65.69 170.53 65.57 170.44"
/>
<path stroke="#acacaa" vector-effect="non-scaling-stroke" d="
  M 79.50 49.04
  Q 80.04 50.05 80.00 50.50
  Q 79.48 56.56 80.22 62.90"
/>
<path stroke="#acacaa" vector-effect="non-scaling-stroke" d="
  M 79.71 65.50
  C 76.89 66.83 75.64 64.17 73.29 63.17
  A 0.40 0.39 13.2 0 0 72.75 63.50
  L 72.71 64.00"
/>
<path stroke="#b8b7b5" vector-effect="non-scaling-stroke" d="
  M 72.71 64.00
  L 70.54 61.45
  A 0.27 0.26 38.4 0 0 70.10 61.50
  Q 69.05 63.66 66.84 63.61
  A 0.79 0.78 -10.0 0 1 66.12 63.11
  L 65.21 60.75"
/>
<path stroke="#a1a1a0" vector-effect="non-scaling-stroke" d="
  M 65.21 60.75
  C 65.02 59.24 65.31 56.09 63.29 55.75"
/>
<path stroke="#8a8a88" vector-effect="non-scaling-stroke" d="
  M 91.11 58.14
  C 89.67 59.88 89.13 58.62 88.33 57.57
  A 0.60 0.59 56.5 0 0 87.55 57.41
  C 86.63 57.95 85.10 66.62 88.21 66.98
  A 0.54 0.53 7.9 0 0 88.80 66.54
  Q 89.28 63.82 91.96 63.25"
/>
<path stroke="#7b7b79" vector-effect="non-scaling-stroke" d="
  M 63.00 101.96
  L 61.42 102.32
  A 0.69 0.69 0.0 0 0 60.90 102.93
  L 60.75 104.71"
/>
<path stroke="#939291" vector-effect="non-scaling-stroke" d="
  M 60.75 104.71
  L 60.58 111.21
  A 0.50 0.50 0.0 0 0 61.08 111.73
  L 68.75 111.79"
/>
<path stroke="#656563" vector-effect="non-scaling-stroke" d="
  M 68.75 111.79
  Q 70.28 112.07 70.00 113.60
  A 0.47 0.46 -76.8 0 1 69.41 113.97
  Q 66.35 113.10 63.37 114.48
  A 0.97 0.95 -7.4 0 0 62.82 115.18
  C 62.28 118.09 68.20 116.60 69.62 116.44
  A 0.48 0.48 0.0 0 1 70.15 116.90
  L 70.29 120.75"
/>
<path stroke="#70706e" vector-effect="non-scaling-stroke" d="
  M 70.29 120.75
  L 70.00 121.29"
/>
<path stroke="#656563" vector-effect="non-scaling-stroke" d="
  M 70.00 121.29
  Q 67.85 121.73 67.71 119.55
  A 0.64 0.63 -87.2 0 0 67.18 118.96
  C 66.35 118.83 65.49 120.43 64.84 120.96
  C 62.97 122.50 62.28 124.04 63.04 126.50"
/>
<path stroke="#70706e" vector-effect="non-scaling-stroke" d="
  M 63.04 126.50
  Q 63.30 130.09 62.55 133.38"
/>
<path stroke="#656563" vector-effect="non-scaling-stroke" d="
  M 62.55 133.38
  Q 59.23 141.66 60.74 150.69
  C 61.09 152.78 60.58 154.38 63.10 155.26
  A 1.59 1.58 16.6 0 0 65.16 154.15
  Q 65.71 151.94 67.27 150.22
  A 0.89 0.88 -30.8 0 0 67.47 149.44
  Q 66.45 145.02 70.02 144.11"
/>
<path stroke="#70706e" vector-effect="non-scaling-stroke" d="
  M 70.02 144.11
  L 70.36 145.44
  A 0.51 0.51 0.0 0 0 71.18 145.70
  L 74.44 142.90
  A 1.03 1.03 0.0 0 0 74.80 142.14
  L 74.96 125.00"
/>
<path stroke="#656563" vector-effect="non-scaling-stroke" d="
  M 74.96 125.00
  Q 75.71 120.79 73.13 117.83
  A 1.36 1.30 25.4 0 1 72.80 116.96
  C 72.81 114.66 73.20 109.89 71.20 108.28
  A 1.25 1.20 -75.0 0 1 70.75 107.46
  L 70.21 102.75"
/>
<path stroke="#31312f" vector-effect="non-scaling-stroke" d="
  M 39.04 77.75
  L 39.04 72.29
  A 1.12 1.11 -21.7 0 1 39.39 71.48
  Q 42.11 68.92 41.15 65.29
  Q 41.03 64.82 41.04 64.34
  L 41.21 58.50"
/>
<path stroke="#515250" vector-effect="non-scaling-stroke" d="
  M 41.21 58.50
  C 41.27 57.15 42.29 46.09 39.85 46.77
  A 0.74 0.73 -6.2 0 0 39.31 47.43
  L 38.71 56.75"
/>
<path stroke="#31312f" vector-effect="non-scaling-stroke" d="
  M 38.71 56.75
  Q 38.22 56.93 37.69 56.58
  A 0.58 0.57 37.9 0 0 36.95 56.67
  Q 36.66 56.98 36.74 57.44
  A 1.15 1.15 0.0 0 1 36.49 58.35
  C 35.21 59.87 34.17 61.23 34.06 63.35
  Q 33.70 70.18 34.23 77.00
  Q 34.26 77.27 33.71 78.50"
/>
<path stroke="#383837" vector-effect="non-scaling-stroke" d="
  M 31.29 73.06
  Q 32.84 69.57 31.61 65.90"
/>
<path stroke="#383837" vector-effect="non-scaling-stroke" d="
  M 31.54 64.25
  Q 32.91 62.67 31.50 61.46"
/>
<path stroke="#464746" vector-effect="non-scaling-stroke" d="
  M 35.29 52.50
  Q 36.70 50.98 35.46 49.25"
/>
<path stroke="#383837" vector-effect="non-scaling-stroke" d="
  M 44.29 44.75
  Q 44.11 45.36 44.38 45.76
  A 0.59 0.58 44.6 0 0 45.36 45.76
  Q 45.84 45.01 45.50 44.46"
/>
<path stroke="#8a8a88" vector-effect="non-scaling-stroke" d="
  M 64.96 61.75
  L 65.21 60.75"
/>
<path stroke="#959592" vector-effect="non-scaling-stroke" d="
  M 72.71 64.00
  Q 73.92 66.36 76.38 67.08
  A 1.45 1.42 -9.1 0 1 77.16 67.63
  L 77.75 68.46"
/>
<path stroke="#b8b7b5" vector-effect="non-scaling-stroke" d="
  M 77.75 68.46
  L 71.51 65.64
  A 1.56 1.55 -36.2 0 0 70.65 65.51
  L 66.21 66.13
  A 0.84 0.83 -85.7 0 0 65.52 66.73
  L 64.84 69.07
  A 0.42 0.41 25.5 0 1 64.21 69.29
  Q 62.91 68.39 62.41 66.90
  A 0.70 0.70 0.0 0 0 61.82 66.42
  L 58.54 66.00"
/>
<path stroke="#959592" vector-effect="non-scaling-stroke" d="
  M 58.54 66.00
  Q 58.53 64.53 57.50 63.79
  A 1.26 1.26 0.0 0 0 56.57 63.57
  L 53.79 64.00"
/>
<path stroke="#acacaa" vector-effect="non-scaling-stroke" d="
  M 67.71 50.00
  Q 67.20 48.82 65.91 49.00
  A 0.55 0.55 0.0 0 1 65.29 48.48
  L 65.24 47.67
  A 1.45 1.42 24.7 0 0 64.92 46.83
  Q 64.32 46.11 63.25 46.29"
/>
<path stroke="#7e7f7d" vector-effect="non-scaling-stroke" d="
  M 80.50 48.71
  L 79.50 49.04"
/>
<path stroke="#a1a1a0" vector-effect="non-scaling-stroke" d="
  M 79.50 49.04
  L 76.02 49.36
  A 0.59 0.58 88.9 0 0 75.48 49.93
  Q 75.41 52.29 73.56 53.49
  A 1.16 1.13 -11.7 0 0 73.05 54.24
  L 72.54 57.00"
/>
<path stroke="#b8b7b5" vector-effect="non-scaling-stroke" d="
  M 74.71 88.00
  Q 69.92 88.67 65.67 86.63
  Q 63.99 85.83 62.11 85.82
  Q 59.70 85.81 59.15 83.47
  L 58.04 78.75"
/>
<path stroke="#a1a1a0" vector-effect="non-scaling-stroke" d="
  M 70.04 102.75
  L 69.77 110.75
  A 0.88 0.88 0.0 0 1 69.31 111.49
  L 68.75 111.79"
/>
<path stroke="#b8b7b5" vector-effect="non-scaling-stroke" d="
  M 66.25 102.04
  C 65.20 105.25 62.69 103.57 60.75 104.71"
/>
<path stroke="#7e7f7d" vector-effect="non-scaling-stroke" d="
  M 74.96 125.00
  C 73.81 123.72 72.09 120.30 70.29 120.75"
/>
<path stroke="#696966" vector-effect="non-scaling-stroke" d="
  M 41.21 58.50
  C 39.96 59.88 38.33 58.48 38.71 56.75"
/>
<path stroke="#7e7f7d" vector-effect="non-scaling-stroke" d="
  M 70.00 121.29
  L 70.02 144.11"
/>
<path stroke="#7e7f7d" vector-effect="non-scaling-stroke" d="
  M 62.55 133.38
  L 63.05 149.41
  A 1.09 1.09 0.0 0 0 64.26 150.46
  C 65.43 150.33 65.27 144.56 65.41 143.53
  A 0.87 0.86 -5.4 0 1 66.00 142.82
  L 67.30 142.37
  A 0.90 0.89 81.4 0 0 67.91 141.53
  L 67.98 122.13
  A 0.71 0.71 0.0 0 0 67.40 121.42
  L 66.55 121.26
  A 0.62 0.62 0.0 0 0 65.82 121.82
  Q 65.62 124.88 63.04 126.50"
/>
<path stroke="#3b3b3a" vector-effect="non-scaling-stroke" d="
  M 52.94 156.41
  C 52.31 160.71 57.91 160.66 60.32 159.59
  Q 61.41 159.10 60.41 158.45
  C 58.35 157.10 56.25 153.49 53.42 155.61
  A 1.20 1.19 -14.3 0 0 52.94 156.41"
/>
<path stroke="#acacaa" vector-effect="non-scaling-stroke" d="
  M 74.14 95.81
  C 73.64 94.47 65.16 95.13 63.72 95.37
  A 0.71 0.70 -4.5 0 0 63.13 96.05
  L 63.12 96.57
  A 0.63 0.63 0.0 0 0 63.77 97.21
  L 73.42 96.89
  A 0.80 0.79 -11.5 0 0 74.14 95.81"
/>
</g>
<path fill="#737372" d="
  M 55.96 32.25
  C 51.55 30.63 54.60 35.98 55.42 36.93
  A 1.41 1.35 -65.9 0 1 55.74 37.82
  C 55.74 39.67 55.25 48.47 56.50 49.29
  L 57.32 49.75
  A 0.96 0.95 -77.4 0 1 57.79 50.50
  L 58.04 54.00
  L 57.96 54.25
  Q 55.55 54.18 55.94 51.89
  A 0.55 0.55 0.0 0 0 55.40 51.25
  L 54.13 51.25
  A 0.59 0.58 86.7 0 1 53.55 50.73
  C 53.36 48.89 53.97 41.30 51.29 41.50
  Q 50.21 39.36 51.29 37.25
  Q 52.78 37.39 52.90 36.18
  Q 53.72 27.66 53.22 16.45
  A 1.17 1.16 19.5 0 0 52.82 15.62
  Q 52.18 15.06 51.25 15.29
  L 50.71 14.50
  Q 50.77 13.48 51.51 12.94
  A 1.10 1.08 -55.7 0 1 52.43 12.76
  C 54.92 13.39 55.95 15.05 55.98 17.66
  Q 56.05 24.95 55.96 32.25
  Z"
/>
<path fill="#2e2e2f" d="
  M 50.71 14.50
  L 51.25 15.29
  Q 50.59 26.27 51.29 37.25
  Q 50.21 39.36 51.29 41.50
  L 51.04 56.25
  L 51.34 59.76
  A 0.99 0.97 -76.7 0 0 51.80 60.52
  Q 53.64 61.69 53.79 64.00
  Q 53.17 65.39 55.40 66.27
  A 1.03 1.03 0.0 0 1 56.06 67.29
  Q 55.65 74.83 57.54 82.25
  Q 57.77 86.24 56.31 90.06
  A 0.96 0.94 39.1 0 0 56.41 90.92
  Q 58.83 94.62 58.08 100.22
  C 57.96 101.11 57.48 113.74 59.59 115.30
  A 1.23 1.21 -77.3 0 1 60.05 116.04
  Q 61.24 122.36 60.42 128.75
  A 1.53 1.51 -20.9 0 1 60.05 129.56
  C 57.13 132.88 57.64 135.77 57.76 140.89
  C 57.80 142.70 58.71 144.93 57.76 147.32
  C 56.03 151.66 60.82 154.82 64.03 156.50
  A 1.19 1.18 -39.1 0 0 64.93 156.59
  C 66.53 156.14 67.86 157.04 69.16 156.99
  Q 73.35 156.82 77.05 154.71
  A 0.84 0.84 0.0 0 0 77.49 153.97
  Q 77.50 147.61 77.51 141.25
  C 77.52 137.32 79.34 134.04 78.92 129.75
  Q 78.85 129.11 77.38 124.43
  C 75.88 119.63 77.90 115.59 77.83 111.84
  Q 77.77 108.83 76.69 105.93
  A 1.12 1.12 0.0 0 1 76.94 104.75
  Q 81.39 100.28 77.29 95.50
  Q 77.01 92.00 79.14 89.29
  A 1.84 1.82 -22.0 0 0 79.52 88.41
  C 80.20 83.31 78.84 80.93 81.62 76.07
  A 1.38 1.34 -36.3 0 0 81.78 75.12
  Q 81.30 72.55 82.24 70.10
  A 0.76 0.75 -65.9 0 0 81.88 69.15
  L 80.27 68.34
  A 0.77 0.76 12.2 0 1 79.86 67.72
  L 79.71 65.50
  L 80.22 62.90
  Q 82.14 58.34 82.82 53.44
  Q 85.71 53.61 87.29 55.50
  Q 84.14 58.27 84.77 62.49
  A 1.13 1.12 -31.2 0 1 84.55 63.36
  C 82.67 65.79 87.41 69.12 89.35 69.21
  Q 89.19 72.74 89.20 76.25
  C 89.21 82.38 88.36 88.14 87.71 94.12
  C 86.69 103.62 86.31 114.56 87.41 124.01
  Q 89.10 138.60 94.16 152.43
  Q 93.12 154.45 90.22 155.95
  Q 87.62 157.29 86.24 159.31
  A 1.88 1.84 4.5 0 1 85.44 159.98
  Q 82.00 161.53 81.01 165.10
  A 1.32 1.32 0.0 0 0 81.11 166.04
  C 82.39 168.50 80.77 173.40 77.45 171.97
  A 0.92 0.90 8.6 0 1 76.90 171.24
  Q 76.77 170.02 77.39 168.83
  A 0.93 0.91 -50.1 0 0 77.31 167.85
  Q 76.94 167.37 76.36 167.15
  Q 75.93 166.99 75.62 166.66
  L 72.00 162.92
  A 1.66 1.62 -16.8 0 0 71.10 162.45
  C 68.76 162.05 60.72 160.93 60.25 163.72
  A 0.88 0.87 24.1 0 0 60.57 164.54
  Q 63.63 167.00 65.57 170.44
  C 60.45 166.35 54.10 160.58 49.33 162.50
  A 0.95 0.93 82.1 0 0 48.74 163.30
  Q 48.64 164.53 49.78 164.77
  A 1.33 1.32 77.0 0 1 50.56 165.26
  Q 52.33 167.55 55.36 167.15
  A 1.20 1.18 63.3 0 1 56.36 167.49
  C 57.84 168.98 59.51 171.47 61.45 172.05
  C 62.65 172.40 65.75 172.81 65.79 170.75
  C 68.30 172.71 74.12 176.07 75.55 178.60
  A 1.32 1.32 0.0 0 0 76.26 179.21
  C 79.52 180.43 79.52 177.23 82.16 177.14
  A 0.60 0.60 0.0 0 1 82.78 177.75
  Q 82.74 181.87 79.45 184.10
  A 1.04 1.03 -53.9 0 1 78.59 184.24
  Q 71.85 182.36 67.51 177.12
  C 65.03 174.13 64.22 173.54 60.55 174.76
  A 3.78 3.78 0.0 0 1 57.94 174.68
  Q 56.39 174.06 54.86 174.27
  A 1.37 1.37 0.0 0 1 53.88 174.02
  L 46.75 168.91
  A 1.36 1.36 0.0 0 1 46.19 167.96
  L 45.71 163.86
  A 1.39 1.33 20.7 0 0 45.33 163.06
  L 43.90 161.58
  A 0.74 0.74 0.0 0 1 43.89 160.56
  Q 44.88 159.51 46.24 159.24
  A 1.54 1.53 -76.3 0 0 47.14 158.69
  C 50.26 154.83 48.46 152.11 48.16 148.21
  C 48.01 146.21 47.30 133.33 48.04 133.19
  A 0.28 0.28 0.0 0 0 48.27 132.93
  L 48.87 121.02
  A 1.10 1.09 75.7 0 1 49.38 120.15
  L 52.51 118.21
  A 1.15 1.11 82.6 0 0 53.00 117.55
  L 53.95 114.00
  Q 54.50 111.92 52.89 110.50
  Q 50.50 108.40 51.76 105.20
  A 1.19 1.19 0.0 0 1 52.43 104.53
  L 53.95 103.93
  A 0.68 0.68 0.0 0 0 54.36 103.08
  L 53.80 101.36
  A 0.70 0.69 64.2 0 1 54.07 100.56
  C 55.50 99.60 58.87 93.77 55.17 94.44
  A 1.13 1.12 -29.5 0 1 54.22 94.18
  Q 52.34 92.49 50.27 94.05
  A 1.55 1.50 27.4 0 1 49.27 94.35
  L 42.61 93.95
  A 1.14 1.14 0.0 0 1 41.55 92.94
  L 40.37 82.83
  L 39.04 77.75
  Q 39.93 77.90 40.72 77.53
  A 0.93 0.92 77.4 0 0 41.26 76.67
  L 41.24 75.70
  Q 41.22 75.17 41.46 74.70
  L 46.02 65.39
  Q 46.74 63.93 46.30 62.36
  Q 44.86 57.25 48.06 53.12
  A 1.68 1.67 65.4 0 0 48.42 52.14
  L 48.88 34.34
  A 0.45 0.45 0.0 0 0 48.35 33.89
  Q 47.60 34.03 47.00 33.71
  L 48.29 15.78
  A 0.77 0.77 0.0 0 1 48.82 15.11
  L 50.71 14.50
  Z
  M 52.94 156.41
  C 52.31 160.71 57.91 160.66 60.32 159.59
  Q 61.41 159.10 60.41 158.45
  C 58.35 157.10 56.25 153.49 53.42 155.61
  A 1.20 1.19 -14.3 0 0 52.94 156.41
  Z"
/>
<path fill="#cfcecd" d="
  M 51.25 15.29
  Q 52.18 15.06 52.82 15.62
  A 1.17 1.16 19.5 0 1 53.22 16.45
  Q 53.72 27.66 52.90 36.18
  Q 52.78 37.39 51.29 37.25
  Q 50.59 26.27 51.25 15.29
  Z"
/>
<path fill="#191a19" d="
  M 55.96 32.25
  C 55.68 34.87 59.39 33.81 61.00 34.29
  L 61.29 36.00
  L 61.50 36.96
  L 61.07 37.10
  A 0.70 0.69 81.6 0 0 60.58 37.77
  L 60.54 46.50
  Q 59.85 49.65 56.50 49.29
  C 55.25 48.47 55.74 39.67 55.74 37.82
  A 1.41 1.35 -65.9 0 0 55.42 36.93
  C 54.60 35.98 51.55 30.63 55.96 32.25
  Z"
/>
<path fill="#191a19" d="
  M 47.00 33.71
  Q 47.60 34.03 48.35 33.89
  A 0.45 0.45 0.0 0 1 48.88 34.34
  L 48.42 52.14
  A 1.68 1.67 65.4 0 1 48.06 53.12
  Q 44.86 57.25 46.30 62.36
  Q 46.74 63.93 46.02 65.39
  L 41.46 74.70
  Q 41.22 75.17 41.24 75.70
  L 41.26 76.67
  A 0.93 0.92 77.4 0 1 40.72 77.53
  Q 39.93 77.90 39.04 77.75
  L 39.04 72.29
  A 1.12 1.11 -21.7 0 1 39.39 71.48
  Q 42.11 68.92 41.15 65.29
  Q 41.03 64.82 41.04 64.34
  L 41.21 58.50
  C 41.27 57.15 42.29 46.09 39.85 46.77
  A 0.74 0.73 -6.2 0 0 39.31 47.43
  L 38.71 56.75
  Q 38.22 56.93 37.69 56.58
  A 0.58 0.57 37.9 0 0 36.95 56.67
  Q 36.66 56.98 36.74 57.44
  A 1.15 1.15 0.0 0 1 36.49 58.35
  C 35.21 59.87 34.17 61.23 34.06 63.35
  Q 33.70 70.18 34.23 77.00
  Q 34.26 77.27 33.71 78.50
  Q 29.64 77.64 31.29 73.06
  Q 32.84 69.57 31.61 65.90
  L 31.54 64.25
  Q 32.91 62.67 31.50 61.46
  L 32.05 59.20
  A 1.24 1.23 -7.5 0 1 32.65 58.42
  Q 34.15 57.63 34.21 55.86
  A 0.45 0.44 3.6 0 1 34.71 55.43
  L 35.31 55.49
  A 0.56 0.56 0.0 0 0 35.93 55.00
  Q 36.11 53.66 35.29 52.50
  Q 36.70 50.98 35.46 49.25
  L 36.28 47.62
  A 0.94 0.93 9.5 0 1 36.97 47.13
  Q 38.67 46.89 38.99 45.20
  A 1.07 1.07 0.0 0 1 39.61 44.41
  Q 42.04 43.34 44.29 44.75
  Q 44.11 45.36 44.38 45.76
  A 0.59 0.58 44.6 0 0 45.36 45.76
  Q 45.84 45.01 45.50 44.46
  L 47.00 33.71
  Z"
/>
<path fill="#737372" d="
  M 61.00 34.29
  L 61.47 34.38
  A 0.63 0.61 88.4 0 1 61.97 34.87
  Q 62.13 35.60 61.29 36.00
  L 61.00 34.29
  Z"
/>
<path fill="#484845" d="
  M 75.00 45.46
  Q 74.19 44.72 73.30 44.90
  A 0.64 0.64 0.0 0 0 72.78 45.52
  L 72.54 57.00
  Q 72.69 58.21 71.84 58.98
  Q 70.16 60.49 70.16 58.24
  L 70.17 52.70
  A 0.46 0.46 0.0 0 0 69.71 52.24
  Q 67.45 52.27 67.71 50.00
  L 67.48 48.41
  A 1.74 1.72 19.9 0 0 67.06 47.53
  L 65.21 45.45
  A 1.07 1.06 28.8 0 1 64.95 44.57
  C 65.13 43.54 65.92 36.62 64.01 36.99
  A 0.76 0.75 -89.4 0 0 63.40 37.59
  Q 62.52 41.92 63.25 46.29
  Q 62.68 51.02 63.29 55.75
  L 63.48 60.25
  A 1.00 0.99 -74.1 0 0 63.91 61.03
  L 64.96 61.75
  Q 65.19 62.75 64.82 63.60
  A 0.84 0.83 10.8 0 1 64.09 64.09
  Q 59.30 64.26 58.21 59.50
  L 57.96 54.25
  L 58.04 54.00
  C 61.48 57.03 60.61 47.43 60.54 46.50
  L 60.58 37.77
  A 0.70 0.69 81.6 0 1 61.07 37.10
  L 61.50 36.96
  Q 62.09 37.12 62.51 36.87
  A 0.97 0.95 76.1 0 0 62.96 36.11
  L 63.04 34.86
  Q 63.11 33.85 63.93 34.43
  Q 65.04 35.22 66.30 34.81
  A 1.27 1.27 0.0 0 1 67.96 35.99
  L 68.04 42.39
  Q 68.06 43.70 69.17 43.01
  Q 71.41 41.63 74.06 42.05
  A 0.92 0.92 0.0 0 1 74.79 42.68
  Q 75.21 44.03 75.00 45.46
  Z
  M 68.07 44.45
  Q 67.78 45.54 68.34 46.39
  Q 68.75 47.00 68.94 46.29
  Q 69.22 45.21 68.66 44.36
  Q 68.26 43.74 68.07 44.45
  Z"
/>
<path fill="#898a87" d="
  M 67.71 50.00
  Q 67.20 48.82 65.91 49.00
  A 0.55 0.55 0.0 0 1 65.29 48.48
  L 65.24 47.67
  A 1.45 1.42 24.7 0 0 64.92 46.83
  Q 64.32 46.11 63.25 46.29
  Q 62.52 41.92 63.40 37.59
  A 0.76 0.75 -89.4 0 1 64.01 36.99
  C 65.92 36.62 65.13 43.54 64.95 44.57
  A 1.07 1.06 28.8 0 0 65.21 45.45
  L 67.06 47.53
  A 1.74 1.72 19.9 0 1 67.48 48.41
  L 67.71 50.00
  Z"
/>
<path fill="#cfcecd" d="
  M 51.29 41.50
  C 53.97 41.30 53.36 48.89 53.55 50.73
  A 0.59 0.58 86.7 0 0 54.13 51.25
  L 55.40 51.25
  A 0.55 0.55 0.0 0 1 55.94 51.89
  Q 55.55 54.18 57.96 54.25
  L 58.21 59.50
  Q 56.61 59.25 55.22 59.93
  A 1.34 1.34 0.0 0 1 53.30 58.77
  C 53.28 57.90 53.51 54.50 52.76 54.14
  A 0.35 0.35 0.0 0 0 52.26 54.45
  Q 52.24 55.78 51.04 56.25
  L 51.29 41.50
  Z"
/>
<path fill="#565654" d="
  M 45.50 44.46
  Q 45.84 45.01 45.36 45.76
  A 0.59 0.58 44.6 0 1 44.38 45.76
  Q 44.11 45.36 44.29 44.75
  L 45.50 44.46
  Z"
/>
<path fill="#737372" d="
  M 75.00 45.46
  Q 78.44 46.07 80.50 48.71
  L 79.50 49.04
  L 76.02 49.36
  A 0.59 0.58 88.9 0 0 75.48 49.93
  Q 75.41 52.29 73.56 53.49
  A 1.16 1.13 -11.7 0 0 73.05 54.24
  L 72.54 57.00
  L 72.78 45.52
  A 0.64 0.64 0.0 0 1 73.30 44.90
  Q 74.19 44.72 75.00 45.46
  Z"
/>
<path fill="#cfcecd" d="
  M 63.25 46.29
  Q 64.32 46.11 64.92 46.83
  A 1.45 1.42 24.7 0 1 65.24 47.67
  L 65.29 48.48
  A 0.55 0.55 0.0 0 0 65.91 49.00
  Q 67.20 48.82 67.71 50.00
  Q 67.45 52.27 69.71 52.24
  A 0.46 0.46 0.0 0 1 70.17 52.70
  L 70.16 58.24
  Q 70.16 60.49 71.84 58.98
  Q 72.69 58.21 72.54 57.00
  L 73.05 54.24
  A 1.16 1.13 -11.7 0 1 73.56 53.49
  Q 75.41 52.29 75.48 49.93
  A 0.59 0.58 88.9 0 1 76.02 49.36
  L 79.50 49.04
  Q 80.04 50.05 80.00 50.50
  Q 79.48 56.56 80.22 62.90
  L 79.71 65.50
  C 76.89 66.83 75.64 64.17 73.29 63.17
  A 0.40 0.39 13.2 0 0 72.75 63.50
  L 72.71 64.00
  L 70.54 61.45
  A 0.27 0.26 38.4 0 0 70.10 61.50
  Q 69.05 63.66 66.84 63.61
  A 0.79 0.78 -10.0 0 1 66.12 63.11
  L 65.21 60.75
  C 65.02 59.24 65.31 56.09 63.29 55.75
  Q 62.68 51.02 63.25 46.29
  Z"
/>
<path fill="#2e2e2f" d="
  M 60.54 46.50
  C 60.61 47.43 61.48 57.03 58.04 54.00
  L 57.79 50.50
  A 0.96 0.95 -77.4 0 0 57.32 49.75
  L 56.50 49.29
  Q 59.85 49.65 60.54 46.50
  Z"
/>
<path fill="#898a87" d="
  M 41.21 58.50
  C 39.96 59.88 38.33 58.48 38.71 56.75
  L 39.31 47.43
  A 0.74 0.73 -6.2 0 1 39.85 46.77
  C 42.29 46.09 41.27 57.15 41.21 58.50
  Z"
/>
<path fill="#898a87" d="
  M 80.50 48.71
  Q 84.20 48.94 82.82 53.44
  Q 82.14 58.34 80.22 62.90
  Q 79.48 56.56 80.00 50.50
  Q 80.04 50.05 79.50 49.04
  L 80.50 48.71
  Z"
/>
<path fill="#737372" d="
  M 35.46 49.25
  Q 36.70 50.98 35.29 52.50
  Q 34.57 50.82 35.46 49.25
  Z"
/>
<path fill="#a0a09d" d="
  M 58.21 59.50
  Q 59.30 64.26 64.09 64.09
  A 0.84 0.83 10.8 0 0 64.82 63.60
  Q 65.19 62.75 64.96 61.75
  L 65.21 60.75
  L 66.12 63.11
  A 0.79 0.78 -10.0 0 0 66.84 63.61
  Q 69.05 63.66 70.10 61.50
  A 0.27 0.26 38.4 0 1 70.54 61.45
  L 72.71 64.00
  Q 73.92 66.36 76.38 67.08
  A 1.45 1.42 -9.1 0 1 77.16 67.63
  L 77.75 68.46
  L 71.51 65.64
  A 1.56 1.55 -36.2 0 0 70.65 65.51
  L 66.21 66.13
  A 0.84 0.83 -85.7 0 0 65.52 66.73
  L 64.84 69.07
  A 0.42 0.41 25.5 0 1 64.21 69.29
  Q 62.91 68.39 62.41 66.90
  A 0.70 0.70 0.0 0 0 61.82 66.42
  L 58.54 66.00
  Q 58.53 64.53 57.50 63.79
  A 1.26 1.26 0.0 0 0 56.57 63.57
  L 53.79 64.00
  Q 53.64 61.69 51.80 60.52
  A 0.99 0.97 -76.7 0 1 51.34 59.76
  L 51.04 56.25
  Q 52.24 55.78 52.26 54.45
  A 0.35 0.35 0.0 0 1 52.76 54.14
  C 53.51 54.50 53.28 57.90 53.30 58.77
  A 1.34 1.34 0.0 0 0 55.22 59.93
  Q 56.61 59.25 58.21 59.50
  Z"
/>
<path fill="#737372" d="
  M 87.29 55.50
  Q 89.57 56.18 91.11 58.14
  C 89.67 59.88 89.13 58.62 88.33 57.57
  A 0.60 0.59 56.5 0 0 87.55 57.41
  C 86.63 57.95 85.10 66.62 88.21 66.98
  A 0.54 0.53 7.9 0 0 88.80 66.54
  Q 89.28 63.82 91.96 63.25
  Q 92.47 66.22 91.45 68.96
  A 0.83 0.83 0.0 0 1 90.75 69.50
  Q 90.17 69.56 89.35 69.21
  C 87.41 69.12 82.67 65.79 84.55 63.36
  A 1.13 1.12 -31.2 0 0 84.77 62.49
  Q 84.14 58.27 87.29 55.50
  Z"
/>
<path fill="#737372" d="
  M 63.29 55.75
  C 65.31 56.09 65.02 59.24 65.21 60.75
  L 64.96 61.75
  L 63.91 61.03
  A 1.00 0.99 -74.1 0 1 63.48 60.25
  L 63.29 55.75
  Z"
/>
<path fill="#484845" d="
  M 38.71 56.75
  C 38.33 58.48 39.96 59.88 41.21 58.50
  L 41.04 64.34
  Q 41.03 64.82 41.15 65.29
  Q 42.11 68.92 39.39 71.48
  A 1.12 1.11 -21.7 0 0 39.04 72.29
  L 39.04 77.75
  L 40.37 82.83
  Q 37.03 81.86 35.50 83.54
  Q 33.37 81.63 33.71 78.50
  Q 34.26 77.27 34.23 77.00
  Q 33.70 70.18 34.06 63.35
  C 34.17 61.23 35.21 59.87 36.49 58.35
  A 1.15 1.15 0.0 0 0 36.74 57.44
  Q 36.66 56.98 36.95 56.67
  A 0.58 0.57 37.9 0 1 37.69 56.58
  Q 38.22 56.93 38.71 56.75
  Z"
/>
<path fill="#a0a09d" d="
  M 91.11 58.14
  Q 92.69 60.38 91.96 63.25
  Q 89.28 63.82 88.80 66.54
  A 0.54 0.53 7.9 0 1 88.21 66.98
  C 85.10 66.62 86.63 57.95 87.55 57.41
  A 0.60 0.59 56.5 0 1 88.33 57.57
  C 89.13 58.62 89.67 59.88 91.11 58.14
  Z"
/>
<path fill="#565654" d="
  M 31.50 61.46
  Q 32.91 62.67 31.54 64.25
  Q 30.90 62.86 31.50 61.46
  Z"
/>
<path fill="#898a87" d="
  M 79.71 65.50
  L 79.86 67.72
  A 0.77 0.76 12.2 0 0 80.27 68.34
  L 81.88 69.15
  A 0.76 0.75 -65.9 0 1 82.24 70.10
  Q 81.30 72.55 81.78 75.12
  A 1.38 1.34 -36.3 0 1 81.62 76.07
  C 78.84 80.93 80.20 83.31 79.52 88.41
  A 1.84 1.82 -22.0 0 1 79.14 89.29
  Q 77.01 92.00 77.29 95.50
  L 77.46 100.11
  Q 77.53 101.99 75.66 101.99
  C 74.34 102.00 70.24 101.17 70.21 102.75
  L 70.04 102.75
  Q 68.41 101.47 66.25 102.04
  L 63.00 101.96
  Q 64.06 101.60 65.27 101.75
  Q 66.11 101.85 65.73 101.09
  L 65.44 100.51
  A 0.76 0.75 -17.0 0 0 64.65 100.10
  Q 62.97 100.37 61.39 99.62
  A 0.76 0.76 0.0 0 1 60.96 98.86
  L 61.25 95.77
  A 1.27 1.26 -64.0 0 0 60.91 94.77
  L 58.41 92.18
  A 1.08 1.07 21.8 0 1 58.11 91.49
  L 57.54 82.25
  Q 55.65 74.83 56.06 67.29
  A 1.03 1.03 0.0 0 0 55.40 66.27
  Q 53.17 65.39 53.79 64.00
  L 56.57 63.57
  A 1.26 1.26 0.0 0 1 57.50 63.79
  Q 58.53 64.53 58.54 66.00
  C 56.33 68.69 57.42 75.52 58.04 78.75
  Q 57.48 84.32 60.14 89.15
  A 0.96 0.94 -11.3 0 0 60.88 89.63
  Q 67.12 90.26 73.26 90.10
  C 74.66 90.06 75.24 89.34 74.71 88.00
  Q 74.80 85.38 77.19 84.53
  A 0.77 0.76 83.5 0 0 77.70 83.88
  Q 78.14 78.96 78.54 78.05
  C 79.90 74.98 81.41 70.64 77.75 68.46
  L 77.16 67.63
  A 1.45 1.42 -9.1 0 0 76.38 67.08
  Q 73.92 66.36 72.71 64.00
  L 72.75 63.50
  A 0.40 0.39 13.2 0 1 73.29 63.17
  C 75.64 64.17 76.89 66.83 79.71 65.50
  Z
  M 74.14 95.81
  C 73.64 94.47 65.16 95.13 63.72 95.37
  A 0.71 0.70 -4.5 0 0 63.13 96.05
  L 63.12 96.57
  A 0.63 0.63 0.0 0 0 63.77 97.21
  L 73.42 96.89
  A 0.80 0.79 -11.5 0 0 74.14 95.81
  Z"
/>
<path fill="#cfcecd" d="
  M 77.75 68.46
  C 81.41 70.64 79.90 74.98 78.54 78.05
  Q 78.14 78.96 77.70 83.88
  A 0.77 0.76 83.5 0 1 77.19 84.53
  Q 74.80 85.38 74.71 88.00
  Q 69.92 88.67 65.67 86.63
  Q 63.99 85.83 62.11 85.82
  Q 59.70 85.81 59.15 83.47
  L 58.04 78.75
  C 57.42 75.52 56.33 68.69 58.54 66.00
  L 61.82 66.42
  A 0.70 0.70 0.0 0 1 62.41 66.90
  Q 62.91 68.39 64.21 69.29
  A 0.42 0.41 25.5 0 0 64.84 69.07
  L 65.52 66.73
  A 0.84 0.83 -85.7 0 1 66.21 66.13
  L 70.65 65.51
  A 1.56 1.55 -36.2 0 1 71.51 65.64
  L 77.75 68.46
  Z"
/>
<path fill="#565654" d="
  M 31.61 65.90
  Q 32.84 69.57 31.29 73.06
  Q 30.36 69.38 31.61 65.90
  Z"
/>
<path fill="#a0a09d" d="
  M 58.04 78.75
  L 59.15 83.47
  Q 59.70 85.81 62.11 85.82
  Q 63.99 85.83 65.67 86.63
  Q 69.92 88.67 74.71 88.00
  C 75.24 89.34 74.66 90.06 73.26 90.10
  Q 67.12 90.26 60.88 89.63
  A 0.96 0.94 -11.3 0 1 60.14 89.15
  Q 57.48 84.32 58.04 78.75
  Z"
/>
<path fill="#565654" d="
  M 57.54 82.25
  L 58.11 91.49
  A 1.08 1.07 21.8 0 0 58.41 92.18
  L 60.91 94.77
  A 1.27 1.26 -64.0 0 1 61.25 95.77
  L 60.96 98.86
  A 0.76 0.76 0.0 0 0 61.39 99.62
  Q 62.97 100.37 64.65 100.10
  A 0.76 0.75 -17.0 0 1 65.44 100.51
  L 65.73 101.09
  Q 66.11 101.85 65.27 101.75
  Q 64.06 101.60 63.00 101.96
  L 61.42 102.32
  A 0.69 0.69 0.0 0 0 60.90 102.93
  L 60.75 104.71
  L 60.58 111.21
  A 0.50 0.50 0.0 0 0 61.08 111.73
  L 68.75 111.79
  Q 70.28 112.07 70.00 113.60
  A 0.47 0.46 -76.8 0 1 69.41 113.97
  Q 66.35 113.10 63.37 114.48
  A 0.97 0.95 -7.4 0 0 62.82 115.18
  C 62.28 118.09 68.20 116.60 69.62 116.44
  A 0.48 0.48 0.0 0 1 70.15 116.90
  L 70.29 120.75
  L 70.00 121.29
  Q 67.85 121.73 67.71 119.55
  A 0.64 0.63 -87.2 0 0 67.18 118.96
  C 66.35 118.83 65.49 120.43 64.84 120.96
  C 62.97 122.50 62.28 124.04 63.04 126.50
  Q 63.30 130.09 62.55 133.38
  Q 59.23 141.66 60.74 150.69
  C 61.09 152.78 60.58 154.38 63.10 155.26
  A 1.59 1.58 16.6 0 0 65.16 154.15
  Q 65.71 151.94 67.27 150.22
  A 0.89 0.88 -30.8 0 0 67.47 149.44
  Q 66.45 145.02 70.02 144.11
  L 70.36 145.44
  A 0.51 0.51 0.0 0 0 71.18 145.70
  L 74.44 142.90
  A 1.03 1.03 0.0 0 0 74.80 142.14
  L 74.96 125.00
  Q 75.71 120.79 73.13 117.83
  A 1.36 1.30 25.4 0 1 72.80 116.96
  C 72.81 114.66 73.20 109.89 71.20 108.28
  A 1.25 1.20 -75.0 0 1 70.75 107.46
  L 70.21 102.75
  C 70.24 101.17 74.34 102.00 75.66 101.99
  Q 77.53 101.99 77.46 100.11
  L 77.29 95.50
  Q 81.39 100.28 76.94 104.75
  A 1.12 1.12 0.0 0 0 76.69 105.93
  Q 77.77 108.83 77.83 111.84
  C 77.90 115.59 75.88 119.63 77.38 124.43
  Q 78.85 129.11 78.92 129.75
  C 79.34 134.04 77.52 137.32 77.51 141.25
  Q 77.50 147.61 77.49 153.97
  A 0.84 0.84 0.0 0 1 77.05 154.71
  Q 73.35 156.82 69.16 156.99
  C 67.86 157.04 66.53 156.14 64.93 156.59
  A 1.19 1.18 -39.1 0 1 64.03 156.50
  C 60.82 154.82 56.03 151.66 57.76 147.32
  C 58.71 144.93 57.80 142.70 57.76 140.89
  C 57.64 135.77 57.13 132.88 60.05 129.56
  A 1.53 1.51 -20.9 0 0 60.42 128.75
  Q 61.24 122.36 60.05 116.04
  A 1.23 1.21 -77.3 0 0 59.59 115.30
  C 57.48 113.74 57.96 101.11 58.08 100.22
  Q 58.83 94.62 56.41 90.92
  A 0.96 0.94 39.1 0 1 56.31 90.06
  Q 57.77 86.24 57.54 82.25
  Z"
/>
<path fill="#191a19" d="
  M 40.37 82.83
  L 41.55 92.94
  A 1.14 1.14 0.0 0 0 42.61 93.95
  L 49.27 94.35
  A 1.55 1.50 27.4 0 0 50.27 94.05
  Q 52.34 92.49 54.22 94.18
  A 1.13 1.12 -29.5 0 0 55.17 94.44
  C 58.87 93.77 55.50 99.60 54.07 100.56
  A 0.70 0.69 64.2 0 0 53.80 101.36
  L 54.36 103.08
  A 0.68 0.68 0.0 0 1 53.95 103.93
  L 52.43 104.53
  A 1.19 1.19 0.0 0 0 51.76 105.20
  Q 50.50 108.40 52.89 110.50
  Q 54.50 111.92 53.95 114.00
  L 53.00 117.55
  A 1.15 1.11 82.6 0 1 52.51 118.21
  L 49.38 120.15
  A 1.10 1.09 75.7 0 0 48.87 121.02
  L 48.27 132.93
  A 0.28 0.28 0.0 0 1 48.04 133.19
  C 47.30 133.33 48.01 146.21 48.16 148.21
  C 48.46 152.11 50.26 154.83 47.14 158.69
  A 1.54 1.53 -76.3 0 1 46.24 159.24
  Q 44.88 159.51 43.89 160.56
  A 0.74 0.74 0.0 0 0 43.90 161.58
  L 45.33 163.06
  A 1.39 1.33 20.7 0 1 45.71 163.86
  L 46.19 167.96
  A 1.36 1.36 0.0 0 0 46.75 168.91
  L 53.88 174.02
  A 1.37 1.37 0.0 0 0 54.86 174.27
  Q 56.39 174.06 57.94 174.68
  A 3.78 3.78 0.0 0 0 60.55 174.76
  C 64.22 173.54 65.03 174.13 67.51 177.12
  Q 71.85 182.36 78.59 184.24
  A 1.04 1.03 -53.9 0 0 79.45 184.10
  Q 82.74 181.87 82.78 177.75
  A 0.60 0.60 0.0 0 0 82.16 177.14
  C 79.52 177.23 79.52 180.43 76.26 179.21
  A 1.32 1.32 0.0 0 1 75.55 178.60
  C 74.12 176.07 68.30 172.71 65.79 170.75
  Q 65.69 170.53 65.57 170.44
  Q 63.63 167.00 60.57 164.54
  A 0.88 0.87 24.1 0 1 60.25 163.72
  C 60.72 160.93 68.76 162.05 71.10 162.45
  A 1.66 1.62 -16.8 0 1 72.00 162.92
  L 75.62 166.66
  Q 75.93 166.99 76.36 167.15
  Q 76.94 167.37 77.31 167.85
  A 0.93 0.91 -50.1 0 1 77.39 168.83
  Q 76.77 170.02 76.90 171.24
  A 0.92 0.90 8.6 0 0 77.45 171.97
  C 80.77 173.40 82.39 168.50 81.11 166.04
  A 1.32 1.32 0.0 0 1 81.01 165.10
  Q 82.00 161.53 85.44 159.98
  A 1.88 1.84 4.5 0 0 86.24 159.31
  Q 87.62 157.29 90.22 155.95
  Q 93.12 154.45 94.16 152.43
  Q 97.18 153.45 98.45 155.60
  C 99.36 157.13 98.85 159.12 99.14 160.98
  A 1.30 1.27 16.2 0 0 99.60 161.79
  C 102.54 164.17 102.75 167.31 100.35 170.30
  C 98.74 172.31 97.22 174.75 94.61 176.17
  A 1.14 1.12 79.9 0 0 94.04 177.00
  Q 93.80 178.97 91.91 179.67
  A 1.97 1.93 -80.4 0 0 91.03 180.31
  Q 86.84 185.81 81.54 190.20
  A 1.10 1.09 32.2 0 1 80.59 190.41
  L 73.11 188.46
  A 1.66 1.62 76.6 0 1 72.30 187.95
  Q 68.56 183.60 63.79 180.37
  A 1.22 1.21 11.1 0 1 63.26 179.59
  L 62.87 177.77
  A 0.61 0.61 0.0 0 0 62.17 177.31
  C 57.86 178.11 54.17 177.34 51.05 174.10
  Q 47.26 170.16 41.56 169.47
  A 1.49 1.48 -19.4 0 1 40.70 169.06
  Q 37.13 165.75 33.41 162.59
  C 31.54 161.00 31.26 158.40 33.13 156.77
  Q 35.59 154.61 38.65 152.15
  A 1.10 1.08 -21.9 0 0 39.05 151.23
  Q 38.68 145.83 39.47 140.30
  C 39.78 138.11 40.88 135.18 41.00 132.41
  C 41.18 128.30 43.10 127.52 44.02 124.20
  C 45.60 118.54 47.67 107.60 44.43 102.55
  A 0.71 0.70 -26.1 0 0 43.60 102.27
  L 42.01 102.87
  A 0.64 0.63 69.7 0 1 41.20 102.49
  Q 38.39 94.49 39.06 86.04
  A 0.63 0.61 11.2 0 0 38.62 85.40
  Q 36.71 84.80 35.50 83.54
  Q 37.03 81.86 40.37 82.83
  Z"
/>
<path fill="#cfcecd" d="
  M 63.72 95.37
  C 65.16 95.13 73.64 94.47 74.14 95.81
  A 0.80 0.79 -11.5 0 1 73.42 96.89
  L 63.77 97.21
  A 0.63 0.63 0.0 0 1 63.12 96.57
  L 63.13 96.05
  A 0.71 0.70 -4.5 0 1 63.72 95.37
  Z"
/>
<path fill="#a0a09d" d="
  M 63.00 101.96
  L 66.25 102.04
  C 65.20 105.25 62.69 103.57 60.75 104.71
  L 60.90 102.93
  A 0.69 0.69 0.0 0 1 61.42 102.32
  L 63.00 101.96
  Z"
/>
<path fill="#cfcecd" d="
  M 66.25 102.04
  Q 68.41 101.47 70.04 102.75
  L 69.77 110.75
  A 0.88 0.88 0.0 0 1 69.31 111.49
  L 68.75 111.79
  L 61.08 111.73
  A 0.50 0.50 0.0 0 1 60.58 111.21
  L 60.75 104.71
  C 62.69 103.57 65.20 105.25 66.25 102.04
  Z"
/>
<path fill="#737372" d="
  M 70.04 102.75
  L 70.21 102.75
  L 70.75 107.46
  A 1.25 1.20 -75.0 0 0 71.20 108.28
  C 73.20 109.89 72.81 114.66 72.80 116.96
  A 1.36 1.30 25.4 0 0 73.13 117.83
  Q 75.71 120.79 74.96 125.00
  C 73.81 123.72 72.09 120.30 70.29 120.75
  L 70.15 116.90
  A 0.48 0.48 0.0 0 0 69.62 116.44
  C 68.20 116.60 62.28 118.09 62.82 115.18
  A 0.97 0.95 -7.4 0 1 63.37 114.48
  Q 66.35 113.10 69.41 113.97
  A 0.47 0.46 -76.8 0 0 70.00 113.60
  Q 70.28 112.07 68.75 111.79
  L 69.31 111.49
  A 0.88 0.88 0.0 0 0 69.77 110.75
  L 70.04 102.75
  Z"
/>
<path fill="#737372" d="
  M 70.00 121.29
  L 70.02 144.11
  Q 66.45 145.02 67.47 149.44
  A 0.89 0.88 -30.8 0 1 67.27 150.22
  Q 65.71 151.94 65.16 154.15
  A 1.59 1.58 16.6 0 1 63.10 155.26
  C 60.58 154.38 61.09 152.78 60.74 150.69
  Q 59.23 141.66 62.55 133.38
  L 63.05 149.41
  A 1.09 1.09 0.0 0 0 64.26 150.46
  C 65.43 150.33 65.27 144.56 65.41 143.53
  A 0.87 0.86 -5.4 0 1 66.00 142.82
  L 67.30 142.37
  A 0.90 0.89 81.4 0 0 67.91 141.53
  L 67.98 122.13
  A 0.71 0.71 0.0 0 0 67.40 121.42
  L 66.55 121.26
  A 0.62 0.62 0.0 0 0 65.82 121.82
  Q 65.62 124.88 63.04 126.50
  C 62.28 124.04 62.97 122.50 64.84 120.96
  C 65.49 120.43 66.35 118.83 67.18 118.96
  A 0.64 0.63 -87.2 0 1 67.71 119.55
  Q 67.85 121.73 70.00 121.29
  Z"
/>
<path fill="#898a87" d="
  M 70.29 120.75
  C 72.09 120.30 73.81 123.72 74.96 125.00
  L 74.80 142.14
  A 1.03 1.03 0.0 0 1 74.44 142.90
  L 71.18 145.70
  A 0.51 0.51 0.0 0 1 70.36 145.44
  L 70.02 144.11
  L 70.00 121.29
  L 70.29 120.75
  Z"
/>
<path fill="#898a87" d="
  M 62.55 133.38
  Q 63.30 130.09 63.04 126.50
  Q 65.62 124.88 65.82 121.82
  A 0.62 0.62 0.0 0 1 66.55 121.26
  L 67.40 121.42
  A 0.71 0.71 0.0 0 1 67.98 122.13
  L 67.91 141.53
  A 0.90 0.89 81.4 0 1 67.30 142.37
  L 66.00 142.82
  A 0.87 0.86 -5.4 0 0 65.41 143.53
  C 65.27 144.56 65.43 150.33 64.26 150.46
  A 1.09 1.09 0.0 0 1 63.05 149.41
  L 62.55 133.38
  Z"
/>
<path fill="#484845" d="
  M 60.32 159.59
  C 57.91 160.66 52.31 160.71 52.94 156.41
  A 1.20 1.19 -14.3 0 1 53.42 155.61
  C 56.25 153.49 58.35 157.10 60.41 158.45
  Q 61.41 159.10 60.32 159.59
  Z"
/>
<path fill="#484845" d="
  M 65.57 170.44
  Q 65.69 170.53 65.79 170.75
  C 65.75 172.81 62.65 172.40 61.45 172.05
  C 59.51 171.47 57.84 168.98 56.36 167.49
  A 1.20 1.18 63.3 0 0 55.36 167.15
  Q 52.33 167.55 50.56 165.26
  A 1.33 1.32 77.0 0 0 49.78 164.77
  Q 48.64 164.53 48.74 163.30
  A 0.95 0.93 82.1 0 1 49.33 162.50
  C 54.10 160.58 60.45 166.35 65.57 170.44
  Z"
/>
</svg>
