<?xml version="1.0" encoding="UTF-8" standalone="no"?>
<!DOCTYPE svg PUBLIC "-//W3C//DTD SVG 1.1//EN" "http://www.w3.org/Graphics/SVG/1.1/DTD/svg11.dtd">
<svg xmlns="http://www.w3.org/2000/svg" version="1.1" viewBox="0 0 310 163">
<g stroke-width="2.00" fill="none" stroke-linecap="butt">
<path stroke="#772f51" vector-effect="non-scaling-stroke" d="
  M 124.30 0.00
  Q 123.57 6.14 124.25 12.29"
/>
<path stroke="#9e9db7" vector-effect="non-scaling-stroke" d="
  M 124.25 12.29
  Q 123.60 18.77 124.29 25.25"
/>
<path stroke="#772f51" vector-effect="non-scaling-stroke" d="
  M 124.29 25.25
  L 124.08 25.59
  A 0.83 0.81 61.6 0 0 123.94 26.08
  L 124.25 37.54"
/>
<path stroke="#9e9db7" vector-effect="non-scaling-stroke" d="
  M 124.25 37.54
  Q 123.62 43.89 124.26 50.27"
/>
<path stroke="#772f51" vector-effect="non-scaling-stroke" d="
  M 124.26 50.27
  Q 123.59 56.38 124.25 62.54"
/>
<path stroke="#9e9db7" vector-effect="non-scaling-stroke" d="
  M 124.25 62.54
  Q 123.65 68.93 124.21 75.27"
/>
<path stroke="#772f51" vector-effect="non-scaling-stroke" d="
  M 124.21 75.27
  L 124.00 87.71"
/>
<path stroke="#9e9db7" vector-effect="non-scaling-stroke" d="
  M 124.00 87.71
  L 0.44 87.69
  A 0.37 0.36 -25.1 0 1 0.21 87.61
  L 0.00 87.44"
/>
<path stroke="#9e9db7" vector-effect="non-scaling-stroke" d="
  M 10.91 11.18
  L 12.46 12.23
  Q 13.53 12.96 12.95 11.80
  Q 11.50 8.86 14.34 7.93
  A 0.18 0.17 -21.7 0 0 14.45 7.68
  L 14.32 7.43
  A 0.42 0.41 -18.7 0 0 13.87 7.21
  Q 10.86 7.75 10.83 4.79
  A 0.30 0.29 90.0 0 0 10.55 4.50
  L 10.23 4.49
  A 0.49 0.48 -88.3 0 0 9.72 4.98
  Q 9.75 8.05 6.76 7.15
  Q 5.08 6.65 6.64 7.75
  Q 9.03 9.42 7.75 11.97
  Q 6.96 13.56 8.11 12.38
  Q 8.96 11.53 10.04 11.09
  A 0.95 0.95 0.0 0 1 10.91 11.18"
/>
<path stroke="#9e9db7" vector-effect="non-scaling-stroke" d="
  M 31.52 11.18
  L 32.99 12.05
  Q 33.61 12.42 33.51 11.71
  L 33.22 9.59
  A 0.87 0.87 0.0 0 1 33.62 8.73
  L 35.07 7.81
  Q 36.82 6.71 34.74 7.19
  Q 31.77 7.88 31.48 5.02
  Q 31.29 3.21 30.87 4.44
  L 30.18 6.44
  A 1.18 1.18 0.0 0 1 29.06 7.24
  L 26.98 7.25
  Q 24.98 7.25 27.20 8.08
  Q 29.92 9.11 28.30 11.77
  Q 27.58 12.94 28.75 12.23
  L 30.46 11.19
  A 1.05 1.03 43.8 0 1 31.52 11.18"
/>
<path stroke="#9e9db7" vector-effect="non-scaling-stroke" d="
  M 49.60 9.90
  L 49.03 12.01
  Q 48.71 13.16 49.61 12.37
  L 51.13 11.04
  A 0.75 0.74 -46.3 0 1 52.08 11.01
  L 54.16 12.63
  Q 55.82 13.92 54.62 12.19
  Q 52.41 9.02 55.56 8.02
  A 0.27 0.27 0.0 0 0 55.75 7.76
  L 55.76 7.44
  A 0.24 0.23 83.5 0 0 55.47 7.20
  C 51.81 8.00 52.92 5.00 51.80 4.63
  A 0.49 0.48 11.7 0 0 51.16 5.05
  Q 50.92 8.00 48.00 7.16
  Q 45.98 6.57 47.68 7.81
  L 49.27 8.96
  A 0.88 0.87 26.0 0 1 49.60 9.90"
/>
<path stroke="#9e9db7" vector-effect="non-scaling-stroke" d="
  M 73.34 6.53
  L 72.66 4.62
  A 0.18 0.18 0.0 0 0 72.49 4.50
  L 72.18 4.49
  A 0.33 0.32 0.9 0 0 71.84 4.81
  Q 71.86 7.95 68.76 7.18
  Q 67.32 6.81 68.64 7.74
  Q 71.04 9.44 69.72 12.02
  Q 69.24 12.97 70.10 12.34
  L 71.92 11.03
  A 0.78 0.78 0.0 0 1 72.85 11.04
  L 74.46 12.26
  Q 75.44 13.01 74.90 11.90
  Q 73.56 9.19 76.11 7.92
  Q 77.22 7.37 75.98 7.27
  L 74.09 7.11
  A 0.88 0.88 0.0 0 1 73.34 6.53"
/>
<path stroke="#9e9db7" vector-effect="non-scaling-stroke" d="
  M 93.51 11.17
  L 95.19 12.20
  Q 95.95 12.66 95.60 11.84
  Q 94.45 9.12 96.83 7.71
  Q 98.46 6.75 96.75 7.17
  Q 93.71 7.91 93.47 4.91
  Q 93.41 4.12 92.77 4.59
  Q 92.52 4.78 92.48 5.10
  Q 92.27 7.24 90.12 7.24
  L 88.91 7.24
  Q 87.52 7.24 88.81 7.77
  Q 91.88 9.05 90.43 11.95
  Q 90.03 12.76 90.78 12.27
  L 92.43 11.19
  A 1.02 1.00 -45.5 0 1 93.51 11.17"
/>
<path stroke="#9e9db7" vector-effect="non-scaling-stroke" d="
  M 116.03 9.03
  L 117.72 7.68
  Q 118.04 7.43 117.66 7.30
  L 117.29 7.18
  A 1.26 1.24 45.4 0 0 116.49 7.17
  C 114.57 7.82 114.55 5.61 113.79 4.63
  Q 113.13 3.79 113.08 4.86
  Q 112.93 7.80 109.95 7.54
  Q 108.02 7.36 109.63 7.93
  Q 112.73 9.00 110.98 11.70
  Q 109.97 13.27 111.58 12.35
  Q 112.41 11.88 112.98 11.10
  A 0.66 0.65 35.2 0 1 113.87 10.95
  L 115.87 12.31
  Q 116.57 12.79 116.34 11.97
  L 115.75 9.86
  A 0.80 0.78 -27.2 0 1 116.03 9.03"
/>
<path stroke="#9e9db7" vector-effect="non-scaling-stroke" d="
  M 63.40 15.98
  A 0.34 0.34 0.0 0 1 63.08 15.74
  L 62.33 13.47
  A 0.34 0.34 0.0 0 0 61.69 13.46
  L 60.92 15.73
  A 0.34 0.34 0.0 0 1 60.60 15.96
  L 58.20 15.97
  A 0.34 0.34 0.0 0 0 58.00 16.58
  L 59.92 18.01
  A 0.34 0.34 0.0 0 1 60.04 18.39
  L 59.31 20.67
  A 0.34 0.34 0.0 0 0 59.83 21.05
  L 61.78 19.67
  A 0.34 0.34 0.0 0 1 62.18 19.67
  L 64.12 21.07
  A 0.34 0.34 0.0 0 0 64.64 20.70
  L 63.93 18.41
  A 0.34 0.34 0.0 0 1 64.06 18.04
  L 65.99 16.62
  A 0.34 0.34 0.0 0 0 65.79 16.01
  L 63.40 15.98"
/>
<path stroke="#9e9db7" vector-effect="non-scaling-stroke" d="
  M 22.97 17.89
  L 24.42 16.72
  Q 24.88 16.34 24.29 16.26
  L 22.32 15.97
  A 0.72 0.70 81.8 0 1 21.79 15.56
  L 20.79 13.28
  Q 20.09 11.69 20.16 13.42
  Q 20.29 16.78 17.02 16.08
  Q 14.26 15.50 16.68 16.81
  L 18.48 17.79
  A 0.61 0.60 24.4 0 1 18.76 18.53
  L 17.99 20.66
  Q 17.74 21.34 18.35 20.96
  L 20.22 19.80
  A 0.79 0.77 -43.7 0 1 21.08 19.81
  L 22.78 20.92
  Q 23.61 21.47 23.31 20.52
  L 22.73 18.69
  A 0.73 0.73 0.0 0 1 22.97 17.89"
/>
<path stroke="#9e9db7" vector-effect="non-scaling-stroke" d="
  M 42.51 15.54
  L 41.81 13.89
  Q 41.06 12.10 40.86 14.03
  Q 40.59 16.63 37.76 15.93
  Q 36.35 15.58 37.68 16.52
  Q 39.95 18.15 38.83 20.75
  Q 38.13 22.38 39.28 21.03
  Q 41.29 18.65 43.26 20.96
  Q 45.20 23.21 43.92 20.64
  Q 42.52 17.79 45.18 16.76
  Q 47.19 15.98 45.01 15.99
  L 43.21 16.00
  A 0.74 0.74 0.0 0 1 42.51 15.54"
/>
<path stroke="#9e9db7" vector-effect="non-scaling-stroke" d="
  M 84.08 16.03
  A 0.34 0.34 0.0 0 1 83.76 15.79
  L 83.02 13.51
  A 0.34 0.34 0.0 0 0 82.37 13.51
  L 81.62 15.78
  A 0.34 0.34 0.0 0 1 81.29 16.02
  L 78.89 16.01
  A 0.34 0.34 0.0 0 0 78.69 16.63
  L 80.63 18.05
  A 0.34 0.34 0.0 0 1 80.75 18.43
  L 80.00 20.71
  A 0.34 0.34 0.0 0 0 80.52 21.09
  L 82.47 19.69
  A 0.34 0.34 0.0 0 1 82.87 19.69
  L 84.81 21.11
  A 0.34 0.34 0.0 0 0 85.34 20.73
  L 84.61 18.44
  A 0.34 0.34 0.0 0 1 84.73 18.06
  L 86.68 16.66
  A 0.34 0.34 0.0 0 0 86.48 16.04
  L 84.08 16.03"
/>
<path stroke="#9e9db7" vector-effect="non-scaling-stroke" d="
  M 104.33 15.35
  L 103.56 13.29
  A 0.07 0.06 75.1 0 0 103.50 13.25
  L 103.18 13.24
  A 0.27 0.27 0.0 0 0 102.91 13.50
  Q 102.84 16.69 99.77 15.94
  Q 98.51 15.63 99.73 16.57
  Q 101.83 18.20 100.90 20.75
  Q 100.76 21.15 101.09 20.88
  Q 103.40 19.00 105.56 20.85
  Q 107.04 22.13 106.12 20.71
  Q 104.34 17.96 107.19 16.81
  Q 108.55 16.26 107.09 16.12
  L 105.11 15.94
  A 0.92 0.91 -7.6 0 1 104.33 15.35"
/>
<path stroke="#9e9db7" vector-effect="non-scaling-stroke" d="
  M 11.74 24.73
  A 0.34 0.34 0.0 0 1 11.42 24.49
  L 10.65 22.16
  A 0.34 0.34 0.0 0 0 10.00 22.16
  L 9.22 24.49
  A 0.34 0.34 0.0 0 1 8.90 24.72
  L 6.45 24.73
  A 0.34 0.34 0.0 0 0 6.25 25.35
  L 8.22 26.81
  A 0.34 0.34 0.0 0 1 8.34 27.19
  L 7.60 29.53
  A 0.34 0.34 0.0 0 0 8.12 29.91
  L 10.12 28.48
  A 0.34 0.34 0.0 0 1 10.51 28.48
  L 12.51 29.92
  A 0.34 0.34 0.0 0 0 13.03 29.54
  L 12.29 27.19
  A 0.34 0.34 0.0 0 1 12.42 26.82
  L 14.40 25.36
  A 0.34 0.34 0.0 0 0 14.20 24.75
  L 11.74 24.73"
/>
<path stroke="#9e9db7" vector-effect="non-scaling-stroke" d="
  M 32.40 24.77
  A 0.34 0.34 0.0 0 1 32.08 24.53
  L 31.33 22.13
  A 0.34 0.34 0.0 0 0 30.69 22.13
  L 29.94 24.53
  A 0.34 0.34 0.0 0 1 29.62 24.77
  L 27.11 24.73
  A 0.34 0.34 0.0 0 0 26.91 25.35
  L 28.96 26.79
  A 0.34 0.34 0.0 0 1 29.08 27.18
  L 28.27 29.55
  A 0.34 0.34 0.0 0 0 28.80 29.94
  L 30.81 28.43
  A 0.34 0.34 0.0 0 1 31.21 28.43
  L 33.22 29.94
  A 0.34 0.34 0.0 0 0 33.75 29.55
  L 32.94 27.18
  A 0.34 0.34 0.0 0 1 33.06 26.79
  L 35.11 25.35
  A 0.34 0.34 0.0 0 0 34.91 24.73
  L 32.40 24.77"
/>
<path stroke="#9e9db7" vector-effect="non-scaling-stroke" d="
  M 73.73 24.72
  A 0.34 0.34 0.0 0 1 73.41 24.49
  L 72.64 22.17
  A 0.34 0.34 0.0 0 0 71.99 22.17
  L 71.22 24.49
  A 0.34 0.34 0.0 0 1 70.90 24.72
  L 68.46 24.73
  A 0.34 0.34 0.0 0 0 68.26 25.34
  L 70.22 26.80
  A 0.34 0.34 0.0 0 1 70.34 27.17
  L 69.60 29.50
  A 0.34 0.34 0.0 0 0 70.12 29.88
  L 72.11 28.46
  A 0.34 0.34 0.0 0 1 72.50 28.46
  L 74.49 29.89
  A 0.34 0.34 0.0 0 0 75.01 29.51
  L 74.27 27.18
  A 0.34 0.34 0.0 0 1 74.40 26.80
  L 76.37 25.36
  A 0.34 0.34 0.0 0 0 76.17 24.74
  L 73.73 24.72"
/>
<path stroke="#9e9db7" vector-effect="non-scaling-stroke" d="
  M 94.41 24.75
  A 0.34 0.34 0.0 0 1 94.08 24.51
  L 93.34 22.13
  A 0.34 0.34 0.0 0 0 92.69 22.13
  L 91.94 24.51
  A 0.34 0.34 0.0 0 1 91.61 24.75
  L 89.12 24.72
  A 0.34 0.34 0.0 0 0 88.92 25.33
  L 90.95 26.78
  A 0.34 0.34 0.0 0 1 91.07 27.17
  L 90.28 29.53
  A 0.34 0.34 0.0 0 0 90.80 29.91
  L 92.80 28.43
  A 0.34 0.34 0.0 0 1 93.21 28.43
  L 95.21 29.92
  A 0.34 0.34 0.0 0 0 95.73 29.54
  L 94.94 27.18
  A 0.34 0.34 0.0 0 1 95.07 26.79
  L 97.10 25.35
  A 0.34 0.34 0.0 0 0 96.90 24.73
  L 94.41 24.75"
/>
<path stroke="#9e9db7" vector-effect="non-scaling-stroke" d="
  M 53.05 24.82
  A 0.33 0.33 0.0 0 1 52.73 24.59
  L 52.00 22.25
  A 0.33 0.33 0.0 0 0 51.37 22.25
  L 50.63 24.59
  A 0.33 0.33 0.0 0 1 50.31 24.82
  L 47.86 24.79
  A 0.33 0.33 0.0 0 0 47.66 25.39
  L 49.66 26.81
  A 0.33 0.33 0.0 0 1 49.78 27.19
  L 49.00 29.52
  A 0.33 0.33 0.0 0 0 49.50 29.89
  L 51.48 28.43
  A 0.33 0.33 0.0 0 1 51.87 28.43
  L 53.84 29.90
  A 0.33 0.33 0.0 0 0 54.35 29.53
  L 53.57 27.20
  A 0.33 0.33 0.0 0 1 53.70 26.82
  L 55.70 25.40
  A 0.33 0.33 0.0 0 0 55.51 24.80
  L 53.05 24.82"
/>
<path stroke="#9e9db7" vector-effect="non-scaling-stroke" d="
  M 115.09 24.79
  A 0.34 0.34 0.0 0 1 114.77 24.56
  L 114.01 22.22
  A 0.34 0.34 0.0 0 0 113.37 22.22
  L 112.61 24.56
  A 0.34 0.34 0.0 0 1 112.29 24.79
  L 109.84 24.79
  A 0.34 0.34 0.0 0 0 109.64 25.40
  L 111.62 26.84
  A 0.34 0.34 0.0 0 1 111.75 27.22
  L 110.99 29.55
  A 0.34 0.34 0.0 0 0 111.51 29.93
  L 113.49 28.49
  A 0.34 0.34 0.0 0 1 113.89 28.49
  L 115.87 29.93
  A 0.34 0.34 0.0 0 0 116.39 29.55
  L 115.63 27.22
  A 0.34 0.34 0.0 0 1 115.76 26.84
  L 117.74 25.40
  A 0.34 0.34 0.0 0 0 117.54 24.79
  L 115.09 24.79"
/>
<path stroke="#9e9db7" vector-effect="non-scaling-stroke" d="
  M 19.29 33.42
  L 16.89 33.49
  Q 16.06 33.51 16.69 34.06
  L 18.35 35.51
  A 0.71 0.70 -61.8 0 1 18.56 36.23
  L 17.94 38.43
  Q 17.66 39.41 18.45 38.78
  L 20.25 37.34
  A 0.65 0.65 0.0 0 1 21.05 37.34
  L 22.83 38.69
  Q 24.48 39.95 23.30 37.95
  Q 21.73 35.30 24.58 34.38
  Q 27.35 33.48 24.51 33.49
  L 22.45 33.50
  A 0.77 0.76 80.8 0 1 21.71 32.96
  Q 21.37 31.80 20.72 30.81
  Q 20.12 29.90 20.03 30.99
  L 19.89 32.85
  A 0.62 0.61 1.0 0 1 19.29 33.42"
/>
<path stroke="#9e9db7" vector-effect="non-scaling-stroke" d="
  M 63.40 33.53
  A 0.34 0.34 0.0 0 1 63.07 33.29
  L 62.34 30.89
  A 0.34 0.34 0.0 0 0 61.69 30.89
  L 60.95 33.28
  A 0.34 0.34 0.0 0 1 60.62 33.52
  L 58.11 33.47
  A 0.34 0.34 0.0 0 0 57.91 34.09
  L 59.95 35.53
  A 0.34 0.34 0.0 0 1 60.08 35.92
  L 59.26 38.29
  A 0.34 0.34 0.0 0 0 59.78 38.67
  L 61.79 37.17
  A 0.34 0.34 0.0 0 1 62.20 37.17
  L 64.19 38.69
  A 0.34 0.34 0.0 0 0 64.72 38.31
  L 63.92 35.93
  A 0.34 0.34 0.0 0 1 64.04 35.55
  L 66.10 34.12
  A 0.34 0.34 0.0 0 0 65.90 33.50
  L 63.40 33.53"
/>
<path stroke="#9e9db7" vector-effect="non-scaling-stroke" d="
  M 104.78 33.46
  A 0.34 0.34 0.0 0 1 104.46 33.22
  L 103.70 30.79
  A 0.34 0.34 0.0 0 0 103.05 30.79
  L 102.26 33.21
  A 0.34 0.34 0.0 0 1 101.93 33.44
  L 99.39 33.42
  A 0.34 0.34 0.0 0 0 99.19 34.03
  L 101.24 35.53
  A 0.34 0.34 0.0 0 1 101.37 35.91
  L 100.56 38.33
  A 0.34 0.34 0.0 0 0 101.08 38.71
  L 103.14 37.22
  A 0.34 0.34 0.0 0 1 103.54 37.22
  L 105.58 38.73
  A 0.34 0.34 0.0 0 0 106.11 38.36
  L 105.33 35.94
  A 0.34 0.34 0.0 0 1 105.45 35.55
  L 107.52 34.08
  A 0.34 0.34 0.0 0 0 107.33 33.46
  L 104.78 33.46"
/>
<path stroke="#9e9db7" vector-effect="non-scaling-stroke" d="
  M 42.78 33.48
  A 0.34 0.34 0.0 0 1 42.46 33.25
  L 41.70 30.86
  A 0.34 0.34 0.0 0 0 41.06 30.85
  L 40.26 33.23
  A 0.34 0.34 0.0 0 1 39.94 33.46
  L 37.43 33.45
  A 0.34 0.34 0.0 0 0 37.23 34.06
  L 39.25 35.55
  A 0.34 0.34 0.0 0 1 39.37 35.93
  L 38.58 38.31
  A 0.34 0.34 0.0 0 0 39.10 38.69
  L 41.14 37.23
  A 0.34 0.34 0.0 0 1 41.53 37.24
  L 43.55 38.72
  A 0.34 0.34 0.0 0 0 44.08 38.35
  L 43.32 35.96
  A 0.34 0.34 0.0 0 1 43.45 35.58
  L 45.49 34.12
  A 0.34 0.34 0.0 0 0 45.29 33.50
  L 42.78 33.48"
/>
<path stroke="#9e9db7" vector-effect="non-scaling-stroke" d="
  M 84.09 33.49
  A 0.34 0.34 0.0 0 1 83.77 33.25
  L 83.00 30.91
  A 0.34 0.34 0.0 0 0 82.35 30.90
  L 81.57 33.25
  A 0.34 0.34 0.0 0 1 81.25 33.48
  L 78.78 33.48
  A 0.34 0.34 0.0 0 0 78.57 34.10
  L 80.56 35.57
  A 0.34 0.34 0.0 0 1 80.68 35.94
  L 79.92 38.29
  A 0.34 0.34 0.0 0 0 80.44 38.68
  L 82.45 37.24
  A 0.34 0.34 0.0 0 1 82.85 37.24
  L 84.85 38.69
  A 0.34 0.34 0.0 0 0 85.38 38.31
  L 84.63 35.96
  A 0.34 0.34 0.0 0 1 84.76 35.58
  L 86.75 34.13
  A 0.34 0.34 0.0 0 0 86.56 33.51
  L 84.09 33.49"
/>
<path stroke="#9e9db7" vector-effect="non-scaling-stroke" d="
  M 11.80 42.24
  A 0.34 0.34 0.0 0 1 11.48 42.00
  L 10.73 39.59
  A 0.34 0.34 0.0 0 0 10.08 39.59
  L 9.29 41.98
  A 0.34 0.34 0.0 0 1 8.97 42.22
  L 6.44 42.18
  A 0.34 0.34 0.0 0 0 6.24 42.80
  L 8.27 44.29
  A 0.34 0.34 0.0 0 1 8.39 44.67
  L 7.58 47.06
  A 0.34 0.34 0.0 0 0 8.10 47.45
  L 10.15 45.98
  A 0.34 0.34 0.0 0 1 10.55 45.98
  L 12.57 47.49
  A 0.34 0.34 0.0 0 0 13.10 47.11
  L 12.33 44.71
  A 0.34 0.34 0.0 0 1 12.46 44.33
  L 14.52 42.87
  A 0.34 0.34 0.0 0 0 14.33 42.25
  L 11.80 42.24"
/>
<path stroke="#9e9db7" vector-effect="non-scaling-stroke" d="
  M 32.41 42.27
  A 0.34 0.34 0.0 0 1 32.08 42.03
  L 31.34 39.61
  A 0.34 0.34 0.0 0 0 30.69 39.61
  L 29.94 42.03
  A 0.34 0.34 0.0 0 1 29.61 42.27
  L 27.08 42.22
  A 0.34 0.34 0.0 0 0 26.88 42.84
  L 28.95 44.30
  A 0.34 0.34 0.0 0 1 29.07 44.69
  L 28.25 47.08
  A 0.34 0.34 0.0 0 0 28.78 47.47
  L 30.80 45.95
  A 0.34 0.34 0.0 0 1 31.21 45.95
  L 33.23 47.47
  A 0.34 0.34 0.0 0 0 33.76 47.09
  L 32.95 44.70
  A 0.34 0.34 0.0 0 1 33.07 44.31
  L 35.14 42.86
  A 0.34 0.34 0.0 0 0 34.94 42.24
  L 32.41 42.27"
/>
<path stroke="#9e9db7" vector-effect="non-scaling-stroke" d="
  M 94.43 42.28
  A 0.34 0.34 0.0 0 1 94.10 42.04
  L 93.34 39.62
  A 0.34 0.34 0.0 0 0 92.70 39.62
  L 91.94 42.04
  A 0.34 0.34 0.0 0 1 91.61 42.28
  L 89.08 42.25
  A 0.34 0.34 0.0 0 0 88.88 42.87
  L 90.95 44.33
  A 0.34 0.34 0.0 0 1 91.07 44.72
  L 90.26 47.11
  A 0.34 0.34 0.0 0 0 90.79 47.50
  L 92.82 45.98
  A 0.34 0.34 0.0 0 1 93.22 45.98
  L 95.25 47.50
  A 0.34 0.34 0.0 0 0 95.78 47.11
  L 94.97 44.72
  A 0.34 0.34 0.0 0 1 95.09 44.33
  L 97.16 42.87
  A 0.34 0.34 0.0 0 0 96.96 42.25
  L 94.43 42.28"
/>
<path stroke="#9e9db7" vector-effect="non-scaling-stroke" d="
  M 54.03 44.07
  L 55.76 42.89
  Q 56.59 42.33 55.59 42.28
  L 53.02 42.16
  A 0.54 0.54 0.0 0 1 52.50 41.61
  Q 52.53 40.51 51.83 39.67
  Q 51.01 38.68 51.09 39.96
  Q 51.28 43.09 48.03 42.15
  Q 46.20 41.62 47.66 42.84
  L 49.25 44.16
  A 0.76 0.74 -63.6 0 1 49.50 44.93
  L 48.93 47.20
  Q 48.67 48.27 49.51 47.56
  L 51.16 46.17
  A 0.74 0.74 0.0 0 1 52.08 46.14
  L 53.83 47.44
  Q 54.66 48.06 54.37 47.06
  L 53.73 44.89
  A 0.74 0.74 0.0 0 1 54.03 44.07"
/>
<path stroke="#9e9db7" vector-effect="non-scaling-stroke" d="
  M 73.77 42.29
  A 0.34 0.34 0.0 0 1 73.44 42.05
  L 72.71 39.67
  A 0.34 0.34 0.0 0 0 72.06 39.66
  L 71.29 42.04
  A 0.34 0.34 0.0 0 1 70.96 42.27
  L 68.47 42.23
  A 0.34 0.34 0.0 0 0 68.26 42.84
  L 70.28 44.31
  A 0.34 0.34 0.0 0 1 70.40 44.70
  L 69.59 47.06
  A 0.34 0.34 0.0 0 0 70.11 47.44
  L 72.13 45.98
  A 0.34 0.34 0.0 0 1 72.53 45.98
  L 74.53 47.48
  A 0.34 0.34 0.0 0 0 75.06 47.10
  L 74.29 44.73
  A 0.34 0.34 0.0 0 1 74.41 44.35
  L 76.46 42.91
  A 0.34 0.34 0.0 0 0 76.26 42.30
  L 73.77 42.29"
/>
<path stroke="#9e9db7" vector-effect="non-scaling-stroke" d="
  M 115.10 42.28
  A 0.34 0.34 0.0 0 1 114.78 42.05
  L 114.02 39.67
  A 0.34 0.34 0.0 0 0 113.37 39.67
  L 112.59 42.04
  A 0.34 0.34 0.0 0 1 112.27 42.27
  L 109.77 42.26
  A 0.34 0.34 0.0 0 0 109.57 42.88
  L 111.59 44.35
  A 0.34 0.34 0.0 0 1 111.71 44.73
  L 110.93 47.11
  A 0.34 0.34 0.0 0 0 111.45 47.49
  L 113.47 46.02
  A 0.34 0.34 0.0 0 1 113.87 46.03
  L 115.89 47.50
  A 0.34 0.34 0.0 0 0 116.41 47.12
  L 115.65 44.75
  A 0.34 0.34 0.0 0 1 115.77 44.37
  L 117.80 42.91
  A 0.34 0.34 0.0 0 0 117.60 42.29
  L 115.10 42.28"
/>
<path stroke="#9e9db7" vector-effect="non-scaling-stroke" d="
  M 22.08 51.09
  A 0.34 0.34 0.0 0 1 21.75 50.85
  L 20.99 48.39
  A 0.34 0.34 0.0 0 0 20.34 48.39
  L 19.58 50.85
  A 0.34 0.34 0.0 0 1 19.25 51.09
  L 16.68 51.06
  A 0.34 0.34 0.0 0 0 16.48 51.68
  L 18.59 53.16
  A 0.34 0.34 0.0 0 1 18.72 53.54
  L 17.88 55.99
  A 0.34 0.34 0.0 0 0 18.41 56.37
  L 20.47 54.81
  A 0.34 0.34 0.0 0 1 20.88 54.81
  L 22.94 56.36
  A 0.34 0.34 0.0 0 0 23.47 55.98
  L 22.63 53.54
  A 0.34 0.34 0.0 0 1 22.75 53.15
  L 24.86 51.66
  A 0.34 0.34 0.0 0 0 24.66 51.04
  L 22.08 51.09"
/>
<path stroke="#9e9db7" vector-effect="non-scaling-stroke" d="
  M 42.77 51.08
  A 0.34 0.34 0.0 0 1 42.44 50.84
  L 41.69 48.40
  A 0.34 0.34 0.0 0 0 41.04 48.40
  L 40.27 50.83
  A 0.34 0.34 0.0 0 1 39.94 51.07
  L 37.40 51.03
  A 0.34 0.34 0.0 0 0 37.19 51.65
  L 39.27 53.13
  A 0.34 0.34 0.0 0 1 39.39 53.51
  L 38.57 55.92
  A 0.34 0.34 0.0 0 0 39.09 56.31
  L 41.14 54.79
  A 0.34 0.34 0.0 0 1 41.55 54.79
  L 43.58 56.32
  A 0.34 0.34 0.0 0 0 44.11 55.94
  L 43.30 53.53
  A 0.34 0.34 0.0 0 1 43.43 53.14
  L 45.51 51.67
  A 0.34 0.34 0.0 0 0 45.31 51.06
  L 42.77 51.08"
/>
<path stroke="#9e9db7" vector-effect="non-scaling-stroke" d="
  M 63.43 51.06
  A 0.34 0.34 0.0 0 1 63.10 50.82
  L 62.35 48.45
  A 0.34 0.34 0.0 0 0 61.70 48.45
  L 60.95 50.81
  A 0.34 0.34 0.0 0 1 60.62 51.05
  L 58.14 51.03
  A 0.34 0.34 0.0 0 0 57.94 51.65
  L 59.95 53.10
  A 0.34 0.34 0.0 0 1 60.08 53.48
  L 59.29 55.84
  A 0.34 0.34 0.0 0 0 59.81 56.22
  L 61.81 54.75
  A 0.34 0.34 0.0 0 1 62.22 54.75
  L 64.21 56.22
  A 0.34 0.34 0.0 0 0 64.74 55.84
  L 63.96 53.49
  A 0.34 0.34 0.0 0 1 64.09 53.10
  L 66.11 51.66
  A 0.34 0.34 0.0 0 0 65.91 51.04
  L 63.43 51.06"
/>
<path stroke="#9e9db7" vector-effect="non-scaling-stroke" d="
  M 84.09 51.07
  A 0.34 0.34 0.0 0 1 83.76 50.83
  L 82.98 48.36
  A 0.34 0.34 0.0 0 0 82.33 48.36
  L 81.57 50.84
  A 0.34 0.34 0.0 0 1 81.24 51.08
  L 78.64 51.06
  A 0.34 0.34 0.0 0 0 78.44 51.67
  L 80.57 53.17
  A 0.34 0.34 0.0 0 1 80.70 53.55
  L 79.87 56.01
  A 0.34 0.34 0.0 0 0 80.40 56.39
  L 82.47 54.83
  A 0.34 0.34 0.0 0 1 82.88 54.83
  L 84.97 56.38
  A 0.34 0.34 0.0 0 0 85.49 56.00
  L 84.65 53.54
  A 0.34 0.34 0.0 0 1 84.77 53.15
  L 86.89 51.65
  A 0.34 0.34 0.0 0 0 86.69 51.03
  L 84.09 51.07"
/>
<path stroke="#9e9db7" vector-effect="non-scaling-stroke" d="
  M 101.35 53.83
  L 100.64 55.68
  Q 99.58 58.46 101.37 56.11
  Q 103.29 53.58 105.15 56.06
  Q 107.59 59.33 105.88 55.69
  Q 104.56 52.88 107.15 51.96
  Q 110.43 50.79 107.01 51.19
  Q 104.05 51.53 103.74 48.77
  Q 103.52 46.84 103.06 48.57
  L 102.62 50.23
  A 1.28 1.28 0.0 0 1 102.04 50.98
  Q 101.17 51.48 100.06 51.18
  A 0.60 0.58 -45.8 0 0 99.68 51.19
  L 99.42 51.28
  Q 99.16 51.37 99.37 51.54
  L 101.16 53.08
  A 0.69 0.69 0.0 0 1 101.35 53.83"
/>
<path stroke="#9e9db7" vector-effect="non-scaling-stroke" d="
  M 32.41 59.92
  A 0.34 0.34 0.0 0 1 32.07 59.68
  L 31.34 57.24
  A 0.34 0.34 0.0 0 0 30.69 57.24
  L 29.96 59.68
  A 0.34 0.34 0.0 0 1 29.63 59.92
  L 27.09 59.87
  A 0.34 0.34 0.0 0 0 26.89 60.49
  L 28.98 61.93
  A 0.34 0.34 0.0 0 1 29.11 62.32
  L 28.27 64.72
  A 0.34 0.34 0.0 0 0 28.80 65.11
  L 30.82 63.56
  A 0.34 0.34 0.0 0 1 31.23 63.56
  L 33.25 65.10
  A 0.34 0.34 0.0 0 0 33.78 64.71
  L 32.93 62.31
  A 0.34 0.34 0.0 0 1 33.06 61.92
  L 35.15 60.47
  A 0.34 0.34 0.0 0 0 34.95 59.85
  L 32.41 59.92"
/>
<path stroke="#9e9db7" vector-effect="non-scaling-stroke" d="
  M 94.40 59.90
  A 0.34 0.34 0.0 0 1 94.07 59.66
  L 93.33 57.23
  A 0.34 0.34 0.0 0 0 92.68 57.24
  L 91.96 59.66
  A 0.34 0.34 0.0 0 1 91.63 59.91
  L 89.10 59.86
  A 0.34 0.34 0.0 0 0 88.90 60.48
  L 90.98 61.91
  A 0.34 0.34 0.0 0 1 91.11 62.30
  L 90.28 64.70
  A 0.34 0.34 0.0 0 0 90.81 65.08
  L 92.82 63.54
  A 0.34 0.34 0.0 0 1 93.23 63.54
  L 95.25 65.06
  A 0.34 0.34 0.0 0 0 95.78 64.68
  L 94.93 62.29
  A 0.34 0.34 0.0 0 1 95.06 61.90
  L 97.14 60.45
  A 0.34 0.34 0.0 0 0 96.93 59.83
  L 94.40 59.90"
/>
<path stroke="#9e9db7" vector-effect="non-scaling-stroke" d="
  M 115.06 59.89
  A 0.34 0.34 0.0 0 1 114.73 59.65
  L 113.99 57.22
  A 0.34 0.34 0.0 0 0 113.34 57.22
  L 112.60 59.64
  A 0.34 0.34 0.0 0 1 112.27 59.88
  L 109.73 59.83
  A 0.34 0.34 0.0 0 0 109.53 60.45
  L 111.60 61.91
  A 0.34 0.34 0.0 0 1 111.73 62.30
  L 110.90 64.70
  A 0.34 0.34 0.0 0 0 111.42 65.08
  L 113.45 63.55
  A 0.34 0.34 0.0 0 1 113.86 63.55
  L 115.88 65.09
  A 0.34 0.34 0.0 0 0 116.41 64.71
  L 115.59 62.31
  A 0.34 0.34 0.0 0 1 115.71 61.92
  L 117.80 60.47
  A 0.34 0.34 0.0 0 0 117.60 59.85
  L 115.06 59.89"
/>
<path stroke="#9e9db7" vector-effect="non-scaling-stroke" d="
  M 11.72 59.90
  A 0.34 0.34 0.0 0 1 11.39 59.66
  L 10.65 57.28
  A 0.34 0.34 0.0 0 0 10.01 57.28
  L 9.27 59.66
  A 0.34 0.34 0.0 0 1 8.94 59.90
  L 6.45 59.87
  A 0.34 0.34 0.0 0 0 6.25 60.48
  L 8.28 61.92
  A 0.34 0.34 0.0 0 1 8.40 62.31
  L 7.61 64.67
  A 0.34 0.34 0.0 0 0 8.13 65.05
  L 10.13 63.56
  A 0.34 0.34 0.0 0 1 10.53 63.56
  L 12.53 65.05
  A 0.34 0.34 0.0 0 0 13.05 64.67
  L 12.26 62.31
  A 0.34 0.34 0.0 0 1 12.38 61.92
  L 14.41 60.48
  A 0.34 0.34 0.0 0 0 14.21 59.87
  L 11.72 59.90"
/>
<path stroke="#9e9db7" vector-effect="non-scaling-stroke" d="
  M 53.03 59.94
  A 0.33 0.33 0.0 0 1 52.71 59.71
  L 51.98 57.24
  A 0.33 0.33 0.0 0 0 51.35 57.24
  L 50.61 59.70
  A 0.33 0.33 0.0 0 1 50.28 59.93
  L 47.71 59.86
  A 0.33 0.33 0.0 0 0 47.51 60.46
  L 49.62 61.93
  A 0.33 0.33 0.0 0 1 49.75 62.31
  L 48.89 64.73
  A 0.33 0.33 0.0 0 0 49.40 65.11
  L 51.44 63.55
  A 0.33 0.33 0.0 0 1 51.84 63.55
  L 53.88 65.12
  A 0.33 0.33 0.0 0 0 54.39 64.75
  L 53.55 62.32
  A 0.33 0.33 0.0 0 1 53.67 61.94
  L 55.79 60.49
  A 0.33 0.33 0.0 0 0 55.60 59.89
  L 53.03 59.94"
/>
<path stroke="#9e9db7" vector-effect="non-scaling-stroke" d="
  M 73.73 59.93
  A 0.34 0.34 0.0 0 1 73.40 59.69
  L 72.66 57.32
  A 0.34 0.34 0.0 0 0 72.02 57.32
  L 71.28 59.69
  A 0.34 0.34 0.0 0 1 70.95 59.93
  L 68.47 59.89
  A 0.34 0.34 0.0 0 0 68.27 60.51
  L 70.30 61.94
  A 0.34 0.34 0.0 0 1 70.42 62.33
  L 69.62 64.67
  A 0.34 0.34 0.0 0 0 70.15 65.06
  L 72.14 63.57
  A 0.34 0.34 0.0 0 1 72.54 63.57
  L 74.53 65.06
  A 0.34 0.34 0.0 0 0 75.06 64.67
  L 74.26 62.33
  A 0.34 0.34 0.0 0 1 74.38 61.94
  L 76.41 60.51
  A 0.34 0.34 0.0 0 0 76.21 59.89
  L 73.73 59.93"
/>
<path stroke="#9e9db7" vector-effect="non-scaling-stroke" d="
  M 22.09 68.60
  A 0.34 0.34 0.0 0 1 21.76 68.36
  L 21.01 66.01
  A 0.34 0.34 0.0 0 0 20.36 66.00
  L 19.60 68.36
  A 0.34 0.34 0.0 0 1 19.28 68.59
  L 16.80 68.58
  A 0.34 0.34 0.0 0 0 16.60 69.20
  L 18.60 70.65
  A 0.34 0.34 0.0 0 1 18.73 71.03
  L 17.95 73.38
  A 0.34 0.34 0.0 0 0 18.48 73.76
  L 20.48 72.31
  A 0.34 0.34 0.0 0 1 20.88 72.31
  L 22.87 73.77
  A 0.34 0.34 0.0 0 0 23.40 73.39
  L 22.63 71.04
  A 0.34 0.34 0.0 0 1 22.75 70.66
  L 24.76 69.21
  A 0.34 0.34 0.0 0 0 24.56 68.60
  L 22.09 68.60"
/>
<path stroke="#9e9db7" vector-effect="non-scaling-stroke" d="
  M 42.77 68.58
  A 0.34 0.34 0.0 0 1 42.44 68.35
  L 41.67 65.95
  A 0.34 0.34 0.0 0 0 41.02 65.95
  L 40.24 68.34
  A 0.34 0.34 0.0 0 1 39.92 68.58
  L 37.40 68.57
  A 0.34 0.34 0.0 0 0 37.20 69.19
  L 39.24 70.67
  A 0.34 0.34 0.0 0 1 39.36 71.05
  L 38.57 73.44
  A 0.34 0.34 0.0 0 0 39.10 73.83
  L 41.14 72.35
  A 0.34 0.34 0.0 0 1 41.54 72.35
  L 43.57 73.83
  A 0.34 0.34 0.0 0 0 44.09 73.45
  L 43.32 71.06
  A 0.34 0.34 0.0 0 1 43.44 70.68
  L 45.48 69.20
  A 0.34 0.34 0.0 0 0 45.29 68.59
  L 42.77 68.58"
/>
<path stroke="#9e9db7" vector-effect="non-scaling-stroke" d="
  M 63.39 68.62
  A 0.34 0.34 0.0 0 1 63.06 68.38
  L 62.32 65.94
  A 0.34 0.34 0.0 0 0 61.67 65.94
  L 60.93 68.39
  A 0.34 0.34 0.0 0 1 60.60 68.63
  L 58.05 68.58
  A 0.34 0.34 0.0 0 0 57.85 69.20
  L 59.94 70.66
  A 0.34 0.34 0.0 0 1 60.07 71.05
  L 59.24 73.46
  A 0.34 0.34 0.0 0 0 59.77 73.84
  L 61.80 72.30
  A 0.34 0.34 0.0 0 1 62.21 72.30
  L 64.25 73.83
  A 0.34 0.34 0.0 0 0 64.77 73.45
  L 63.93 71.04
  A 0.34 0.34 0.0 0 1 64.06 70.65
  L 66.15 69.19
  A 0.34 0.34 0.0 0 0 65.95 68.57
  L 63.39 68.62"
/>
<path stroke="#9e9db7" vector-effect="non-scaling-stroke" d="
  M 84.09 68.62
  A 0.34 0.34 0.0 0 1 83.76 68.38
  L 83.03 65.94
  A 0.34 0.34 0.0 0 0 82.38 65.94
  L 81.62 68.37
  A 0.34 0.34 0.0 0 1 81.29 68.61
  L 78.75 68.55
  A 0.34 0.34 0.0 0 0 78.54 69.16
  L 80.62 70.63
  A 0.34 0.34 0.0 0 1 80.75 71.02
  L 79.90 73.42
  A 0.34 0.34 0.0 0 0 80.43 73.81
  L 82.46 72.28
  A 0.34 0.34 0.0 0 1 82.87 72.29
  L 84.90 73.83
  A 0.34 0.34 0.0 0 0 85.42 73.45
  L 84.60 71.04
  A 0.34 0.34 0.0 0 1 84.73 70.65
  L 86.83 69.21
  A 0.34 0.34 0.0 0 0 86.63 68.59
  L 84.09 68.62"
/>
<path stroke="#9e9db7" vector-effect="non-scaling-stroke" d="
  M 104.74 68.62
  A 0.34 0.34 0.0 0 1 104.41 68.38
  L 103.67 65.96
  A 0.34 0.34 0.0 0 0 103.02 65.96
  L 102.27 68.38
  A 0.34 0.34 0.0 0 1 101.93 68.61
  L 99.41 68.57
  A 0.34 0.34 0.0 0 0 99.20 69.19
  L 101.27 70.65
  A 0.34 0.34 0.0 0 1 101.39 71.04
  L 100.56 73.43
  A 0.34 0.34 0.0 0 0 101.09 73.81
  L 103.12 72.30
  A 0.34 0.34 0.0 0 1 103.53 72.30
  L 105.55 73.83
  A 0.34 0.34 0.0 0 0 106.07 73.45
  L 105.26 71.05
  A 0.34 0.34 0.0 0 1 105.39 70.66
  L 107.46 69.21
  A 0.34 0.34 0.0 0 0 107.27 68.60
  L 104.74 68.62"
/>
<path stroke="#9e9db7" vector-effect="non-scaling-stroke" d="
  M 11.76 77.35
  A 0.34 0.34 0.0 0 1 11.43 77.12
  L 10.66 74.66
  A 0.34 0.34 0.0 0 0 10.01 74.67
  L 9.24 77.12
  A 0.34 0.34 0.0 0 1 8.92 77.36
  L 6.34 77.34
  A 0.34 0.34 0.0 0 0 6.14 77.96
  L 8.24 79.44
  A 0.34 0.34 0.0 0 1 8.37 79.83
  L 7.55 82.27
  A 0.34 0.34 0.0 0 0 8.08 82.65
  L 10.14 81.11
  A 0.34 0.34 0.0 0 1 10.55 81.11
  L 12.61 82.64
  A 0.34 0.34 0.0 0 0 13.14 82.26
  L 12.31 79.82
  A 0.34 0.34 0.0 0 1 12.44 79.44
  L 14.53 77.94
  A 0.34 0.34 0.0 0 0 14.33 77.32
  L 11.76 77.35"
/>
<path stroke="#9e9db7" vector-effect="non-scaling-stroke" d="
  M 32.39 77.40
  A 0.34 0.34 0.0 0 1 32.06 77.15
  L 31.32 74.69
  A 0.34 0.34 0.0 0 0 30.67 74.68
  L 29.93 77.15
  A 0.34 0.34 0.0 0 1 29.59 77.39
  L 27.02 77.33
  A 0.34 0.34 0.0 0 0 26.82 77.95
  L 28.93 79.42
  A 0.34 0.34 0.0 0 1 29.06 79.81
  L 28.20 82.24
  A 0.34 0.34 0.0 0 0 28.73 82.62
  L 30.78 81.07
  A 0.34 0.34 0.0 0 1 31.19 81.07
  L 33.24 82.63
  A 0.34 0.34 0.0 0 0 33.77 82.25
  L 32.92 79.82
  A 0.34 0.34 0.0 0 1 33.05 79.43
  L 35.17 77.96
  A 0.34 0.34 0.0 0 0 34.97 77.34
  L 32.39 77.40"
/>
<path stroke="#9e9db7" vector-effect="non-scaling-stroke" d="
  M 53.09 77.33
  A 0.34 0.34 0.0 0 1 52.77 77.10
  L 51.98 74.69
  A 0.34 0.34 0.0 0 0 51.33 74.70
  L 50.56 77.10
  A 0.34 0.34 0.0 0 1 50.24 77.34
  L 47.71 77.35
  A 0.34 0.34 0.0 0 0 47.51 77.96
  L 49.56 79.44
  A 0.34 0.34 0.0 0 1 49.69 79.82
  L 48.91 82.23
  A 0.34 0.34 0.0 0 0 49.44 82.61
  L 51.48 81.12
  A 0.34 0.34 0.0 0 1 51.88 81.11
  L 53.93 82.59
  A 0.34 0.34 0.0 0 0 54.45 82.21
  L 53.66 79.81
  A 0.34 0.34 0.0 0 1 53.78 79.43
  L 55.82 77.93
  A 0.34 0.34 0.0 0 0 55.62 77.32
  L 53.09 77.33"
/>
<path stroke="#9e9db7" vector-effect="non-scaling-stroke" d="
  M 69.08 77.43
  Q 66.46 77.40 68.72 78.35
  Q 71.37 79.47 69.55 82.01
  Q 68.49 83.49 70.05 82.55
  Q 71.09 81.93 71.98 81.16
  A 0.56 0.55 -45.4 0 1 72.70 81.15
  L 74.60 82.67
  Q 75.32 83.24 75.09 82.35
  L 74.51 80.12
  A 0.84 0.83 63.2 0 1 74.78 79.29
  L 76.52 77.85
  Q 77.24 77.25 76.30 77.25
  L 73.92 77.25
  A 0.72 0.70 -7.4 0 1 73.23 76.73
  L 72.60 74.47
  Q 72.18 72.96 72.03 74.93
  Q 71.84 77.47 69.08 77.43"
/>
<path stroke="#9e9db7" vector-effect="non-scaling-stroke" d="
  M 94.40 77.39
  A 0.34 0.34 0.0 0 1 94.06 77.14
  L 93.33 74.64
  A 0.34 0.34 0.0 0 0 92.68 74.63
  L 91.93 77.14
  A 0.34 0.34 0.0 0 1 91.59 77.38
  L 88.98 77.30
  A 0.34 0.34 0.0 0 0 88.78 77.92
  L 90.93 79.40
  A 0.34 0.34 0.0 0 1 91.05 79.80
  L 90.17 82.26
  A 0.34 0.34 0.0 0 0 90.70 82.64
  L 92.78 81.06
  A 0.34 0.34 0.0 0 1 93.19 81.06
  L 95.26 82.66
  A 0.34 0.34 0.0 0 0 95.79 82.28
  L 94.92 79.81
  A 0.34 0.34 0.0 0 1 95.05 79.42
  L 97.21 77.95
  A 0.34 0.34 0.0 0 0 97.01 77.33
  L 94.40 77.39"
/>
<path stroke="#9e9db7" vector-effect="non-scaling-stroke" d="
  M 115.07 77.35
  A 0.34 0.34 0.0 0 1 114.74 77.11
  L 113.99 74.63
  A 0.34 0.34 0.0 0 0 113.33 74.63
  L 112.58 77.11
  A 0.34 0.34 0.0 0 1 112.25 77.35
  L 109.65 77.31
  A 0.34 0.34 0.0 0 0 109.45 77.93
  L 111.58 79.41
  A 0.34 0.34 0.0 0 1 111.70 79.80
  L 110.86 82.25
  A 0.34 0.34 0.0 0 0 111.39 82.63
  L 113.46 81.07
  A 0.34 0.34 0.0 0 1 113.86 81.07
  L 115.93 82.63
  A 0.34 0.34 0.0 0 0 116.46 82.25
  L 115.62 79.80
  A 0.34 0.34 0.0 0 1 115.74 79.41
  L 117.87 77.93
  A 0.34 0.34 0.0 0 0 117.67 77.31
  L 115.07 77.35"
/>
<path stroke="#d9919a" vector-effect="non-scaling-stroke" d="
  M 310.00 12.31
  L 124.25 12.29"
/>
<path stroke="#d9919a" vector-effect="non-scaling-stroke" d="
  M 310.00 25.31
  L 124.63 25.06
  A 0.20 0.18 22.5 0 0 124.51 25.10
  L 124.29 25.25"
/>
<path stroke="#d9919a" vector-effect="non-scaling-stroke" d="
  M 310.00 37.56
  L 124.25 37.54"
/>
<path stroke="#d9919a" vector-effect="non-scaling-stroke" d="
  M 310.00 50.31
  L 124.26 50.27"
/>
<path stroke="#d9919a" vector-effect="non-scaling-stroke" d="
  M 310.00 62.56
  L 124.25 62.54"
/>
<path stroke="#d9919a" vector-effect="non-scaling-stroke" d="
  M 310.00 75.32
  Q 304.92 75.42 276.75 75.29
  Q 251.96 75.17 124.21 75.27"
/>
<path stroke="#d9919a" vector-effect="non-scaling-stroke" d="
  M 310.00 87.56
  C 297.47 87.92 285.02 87.49 272.50 87.53
  Q 198.25 87.79 124.00 87.71"
/>
<path stroke="#d9919a" vector-effect="non-scaling-stroke" d="
  M 310.00 100.56
  L 0.00 100.44"
/>
<path stroke="#d9919a" vector-effect="non-scaling-stroke" d="
  M 310.00 112.81
  L 0.00 112.69"
/>
<path stroke="#d9919a" vector-effect="non-scaling-stroke" d="
  M 310.00 125.81
  C 309.48 125.60 309.68 125.50 308.99 125.50
  Q 154.49 125.47 0.00 125.44"
/>
<path stroke="#d9919a" vector-effect="non-scaling-stroke" d="
  M 310.00 137.81
  Q 162.24 138.26 14.47 137.82
  C 10.95 137.81 4.88 138.29 0.00 137.69"
/>
<path stroke="#d9919a" vector-effect="non-scaling-stroke" d="
  M 310.00 150.59
  L 0.00 150.69"
/>
</g>
<path fill="#3c3b6e" d="
  M 0.00 0.00
  L 124.30 0.00
  Q 123.57 6.14 124.25 12.29
  Q 123.60 18.77 124.29 25.25
  L 124.08 25.59
  A 0.83 0.81 61.6 0 0 123.94 26.08
  L 124.25 37.54
  Q 123.62 43.89 124.26 50.27
  Q 123.59 56.38 124.25 62.54
  Q 123.65 68.93 124.21 75.27
  L 124.00 87.71
  L 0.44 87.69
  A 0.37 0.36 -25.1 0 1 0.21 87.61
  L 0.00 87.44
  L 0.00 0.00
  Z
  M 10.91 11.18
  L 12.46 12.23
  Q 13.53 12.96 12.95 11.80
  Q 11.50 8.86 14.34 7.93
  A 0.18 0.17 -21.7 0 0 14.45 7.68
  L 14.32 7.43
  A 0.42 0.41 -18.7 0 0 13.87 7.21
  Q 10.86 7.75 10.83 4.79
  A 0.30 0.29 90.0 0 0 10.55 4.50
  L 10.23 4.49
  A 0.49 0.48 -88.3 0 0 9.72 4.98
  Q 9.75 8.05 6.76 7.15
  Q 5.08 6.65 6.64 7.75
  Q 9.03 9.42 7.75 11.97
  Q 6.96 13.56 8.11 12.38
  Q 8.96 11.53 10.04 11.09
  A 0.95 0.95 0.0 0 1 10.91 11.18
  Z
  M 31.52 11.18
  L 32.99 12.05
  Q 33.61 12.42 33.51 11.71
  L 33.22 9.59
  A 0.87 0.87 0.0 0 1 33.62 8.73
  L 35.07 7.81
  Q 36.82 6.71 34.74 7.19
  Q 31.77 7.88 31.48 5.02
  Q 31.29 3.21 30.87 4.44
  L 30.18 6.44
  A 1.18 1.18 0.0 0 1 29.06 7.24
  L 26.98 7.25
  Q 24.98 7.25 27.20 8.08
  Q 29.92 9.11 28.30 11.77
  Q 27.58 12.94 28.75 12.23
  L 30.46 11.19
  A 1.05 1.03 43.8 0 1 31.52 11.18
  Z
  M 49.60 9.90
  L 49.03 12.01
  Q 48.71 13.16 49.61 12.37
  L 51.13 11.04
  A 0.75 0.74 -46.3 0 1 52.08 11.01
  L 54.16 12.63
  Q 55.82 13.92 54.62 12.19
  Q 52.41 9.02 55.56 8.02
  A 0.27 0.27 0.0 0 0 55.75 7.76
  L 55.76 7.44
  A 0.24 0.23 83.5 0 0 55.47 7.20
  C 51.81 8.00 52.92 5.00 51.80 4.63
  A 0.49 0.48 11.7 0 0 51.16 5.05
  Q 50.92 8.00 48.00 7.16
  Q 45.98 6.57 47.68 7.81
  L 49.27 8.96
  A 0.88 0.87 26.0 0 1 49.60 9.90
  Z
  M 73.34 6.53
  L 72.66 4.62
  A 0.18 0.18 0.0 0 0 72.49 4.50
  L 72.18 4.49
  A 0.33 0.32 0.9 0 0 71.84 4.81
  Q 71.86 7.95 68.76 7.18
  Q 67.32 6.81 68.64 7.74
  Q 71.04 9.44 69.72 12.02
  Q 69.24 12.97 70.10 12.34
  L 71.92 11.03
  A 0.78 0.78 0.0 0 1 72.85 11.04
  L 74.46 12.26
  Q 75.44 13.01 74.90 11.90
  Q 73.56 9.19 76.11 7.92
  Q 77.22 7.37 75.98 7.27
  L 74.09 7.11
  A 0.88 0.88 0.0 0 1 73.34 6.53
  Z
  M 93.51 11.17
  L 95.19 12.20
  Q 95.95 12.66 95.60 11.84
  Q 94.45 9.12 96.83 7.71
  Q 98.46 6.75 96.75 7.17
  Q 93.71 7.91 93.47 4.91
  Q 93.41 4.12 92.77 4.59
  Q 92.52 4.78 92.48 5.10
  Q 92.27 7.24 90.12 7.24
  L 88.91 7.24
  Q 87.52 7.24 88.81 7.77
  Q 91.88 9.05 90.43 11.95
  Q 90.03 12.76 90.78 12.27
  L 92.43 11.19
  A 1.02 1.00 -45.5 0 1 93.51 11.17
  Z
  M 116.03 9.03
  L 117.72 7.68
  Q 118.04 7.43 117.66 7.30
  L 117.29 7.18
  A 1.26 1.24 45.4 0 0 116.49 7.17
  C 114.57 7.82 114.55 5.61 113.79 4.63
  Q 113.13 3.79 113.08 4.86
  Q 112.93 7.80 109.95 7.54
  Q 108.02 7.36 109.63 7.93
  Q 112.73 9.00 110.98 11.70
  Q 109.97 13.27 111.58 12.35
  Q 112.41 11.88 112.98 11.10
  A 0.66 0.65 35.2 0 1 113.87 10.95
  L 115.87 12.31
  Q 116.57 12.79 116.34 11.97
  L 115.75 9.86
  A 0.80 0.78 -27.2 0 1 116.03 9.03
  Z
  M 63.40 15.98
  A 0.34 0.34 0.0 0 1 63.08 15.74
  L 62.33 13.47
  A 0.34 0.34 0.0 0 0 61.69 13.46
  L 60.92 15.73
  A 0.34 0.34 0.0 0 1 60.60 15.96
  L 58.20 15.97
  A 0.34 0.34 0.0 0 0 58.00 16.58
  L 59.92 18.01
  A 0.34 0.34 0.0 0 1 60.04 18.39
  L 59.31 20.67
  A 0.34 0.34 0.0 0 0 59.83 21.05
  L 61.78 19.67
  A 0.34 0.34 0.0 0 1 62.18 19.67
  L 64.12 21.07
  A 0.34 0.34 0.0 0 0 64.64 20.70
  L 63.93 18.41
  A 0.34 0.34 0.0 0 1 64.06 18.04
  L 65.99 16.62
  A 0.34 0.34 0.0 0 0 65.79 16.01
  L 63.40 15.98
  Z
  M 22.97 17.89
  L 24.42 16.72
  Q 24.88 16.34 24.29 16.26
  L 22.32 15.97
  A 0.72 0.70 81.8 0 1 21.79 15.56
  L 20.79 13.28
  Q 20.09 11.69 20.16 13.42
  Q 20.29 16.78 17.02 16.08
  Q 14.26 15.50 16.68 16.81
  L 18.48 17.79
  A 0.61 0.60 24.4 0 1 18.76 18.53
  L 17.99 20.66
  Q 17.74 21.34 18.35 20.96
  L 20.22 19.80
  A 0.79 0.77 -43.7 0 1 21.08 19.81
  L 22.78 20.92
  Q 23.61 21.47 23.31 20.52
  L 22.73 18.69
  A 0.73 0.73 0.0 0 1 22.97 17.89
  Z
  M 42.51 15.54
  L 41.81 13.89
  Q 41.06 12.10 40.86 14.03
  Q 40.59 16.63 37.76 15.93
  Q 36.35 15.58 37.68 16.52
  Q 39.95 18.15 38.83 20.75
  Q 38.13 22.38 39.28 21.03
  Q 41.29 18.65 43.26 20.96
  Q 45.20 23.21 43.92 20.64
  Q 42.52 17.79 45.18 16.76
  Q 47.19 15.98 45.01 15.99
  L 43.21 16.00
  A 0.74 0.74 0.0 0 1 42.51 15.54
  Z
  M 84.08 16.03
  A 0.34 0.34 0.0 0 1 83.76 15.79
  L 83.02 13.51
  A 0.34 0.34 0.0 0 0 82.37 13.51
  L 81.62 15.78
  A 0.34 0.34 0.0 0 1 81.29 16.02
  L 78.89 16.01
  A 0.34 0.34 0.0 0 0 78.69 16.63
  L 80.63 18.05
  A 0.34 0.34 0.0 0 1 80.75 18.43
  L 80.00 20.71
  A 0.34 0.34 0.0 0 0 80.52 21.09
  L 82.47 19.69
  A 0.34 0.34 0.0 0 1 82.87 19.69
  L 84.81 21.11
  A 0.34 0.34 0.0 0 0 85.34 20.73
  L 84.61 18.44
  A 0.34 0.34 0.0 0 1 84.73 18.06
  L 86.68 16.66
  A 0.34 0.34 0.0 0 0 86.48 16.04
  L 84.08 16.03
  Z
  M 104.33 15.35
  L 103.56 13.29
  A 0.07 0.06 75.1 0 0 103.50 13.25
  L 103.18 13.24
  A 0.27 0.27 0.0 0 0 102.91 13.50
  Q 102.84 16.69 99.77 15.94
  Q 98.51 15.63 99.73 16.57
  Q 101.83 18.20 100.90 20.75
  Q 100.76 21.15 101.09 20.88
  Q 103.40 19.00 105.56 20.85
  Q 107.04 22.13 106.12 20.71
  Q 104.34 17.96 107.19 16.81
  Q 108.55 16.26 107.09 16.12
  L 105.11 15.94
  A 0.92 0.91 -7.6 0 1 104.33 15.35
  Z
  M 11.74 24.73
  A 0.34 0.34 0.0 0 1 11.42 24.49
  L 10.65 22.16
  A 0.34 0.34 0.0 0 0 10.00 22.16
  L 9.22 24.49
  A 0.34 0.34 0.0 0 1 8.90 24.72
  L 6.45 24.73
  A 0.34 0.34 0.0 0 0 6.25 25.35
  L 8.22 26.81
  A 0.34 0.34 0.0 0 1 8.34 27.19
  L 7.60 29.53
  A 0.34 0.34 0.0 0 0 8.12 29.91
  L 10.12 28.48
  A 0.34 0.34 0.0 0 1 10.51 28.48
  L 12.51 29.92
  A 0.34 0.34 0.0 0 0 13.03 29.54
  L 12.29 27.19
  A 0.34 0.34 0.0 0 1 12.42 26.82
  L 14.40 25.36
  A 0.34 0.34 0.0 0 0 14.20 24.75
  L 11.74 24.73
  Z
  M 32.40 24.77
  A 0.34 0.34 0.0 0 1 32.08 24.53
  L 31.33 22.13
  A 0.34 0.34 0.0 0 0 30.69 22.13
  L 29.94 24.53
  A 0.34 0.34 0.0 0 1 29.62 24.77
  L 27.11 24.73
  A 0.34 0.34 0.0 0 0 26.91 25.35
  L 28.96 26.79
  A 0.34 0.34 0.0 0 1 29.08 27.18
  L 28.27 29.55
  A 0.34 0.34 0.0 0 0 28.80 29.94
  L 30.81 28.43
  A 0.34 0.34 0.0 0 1 31.21 28.43
  L 33.22 29.94
  A 0.34 0.34 0.0 0 0 33.75 29.55
  L 32.94 27.18
  A 0.34 0.34 0.0 0 1 33.06 26.79
  L 35.11 25.35
  A 0.34 0.34 0.0 0 0 34.91 24.73
  L 32.40 24.77
  Z
  M 73.73 24.72
  A 0.34 0.34 0.0 0 1 73.41 24.49
  L 72.64 22.17
  A 0.34 0.34 0.0 0 0 71.99 22.17
  L 71.22 24.49
  A 0.34 0.34 0.0 0 1 70.90 24.72
  L 68.46 24.73
  A 0.34 0.34 0.0 0 0 68.26 25.34
  L 70.22 26.80
  A 0.34 0.34 0.0 0 1 70.34 27.17
  L 69.60 29.50
  A 0.34 0.34 0.0 0 0 70.12 29.88
  L 72.11 28.46
  A 0.34 0.34 0.0 0 1 72.50 28.46
  L 74.49 29.89
  A 0.34 0.34 0.0 0 0 75.01 29.51
  L 74.27 27.18
  A 0.34 0.34 0.0 0 1 74.40 26.80
  L 76.37 25.36
  A 0.34 0.34 0.0 0 0 76.17 24.74
  L 73.73 24.72
  Z
  M 94.41 24.75
  A 0.34 0.34 0.0 0 1 94.08 24.51
  L 93.34 22.13
  A 0.34 0.34 0.0 0 0 92.69 22.13
  L 91.94 24.51
  A 0.34 0.34 0.0 0 1 91.61 24.75
  L 89.12 24.72
  A 0.34 0.34 0.0 0 0 88.92 25.33
  L 90.95 26.78
  A 0.34 0.34 0.0 0 1 91.07 27.17
  L 90.28 29.53
  A 0.34 0.34 0.0 0 0 90.80 29.91
  L 92.80 28.43
  A 0.34 0.34 0.0 0 1 93.21 28.43
  L 95.21 29.92
  A 0.34 0.34 0.0 0 0 95.73 29.54
  L 94.94 27.18
  A 0.34 0.34 0.0 0 1 95.07 26.79
  L 97.10 25.35
  A 0.34 0.34 0.0 0 0 96.90 24.73
  L 94.41 24.75
  Z
  M 53.05 24.82
  A 0.33 0.33 0.0 0 1 52.73 24.59
  L 52.00 22.25
  A 0.33 0.33 0.0 0 0 51.37 22.25
  L 50.63 24.59
  A 0.33 0.33 0.0 0 1 50.31 24.82
  L 47.86 24.79
  A 0.33 0.33 0.0 0 0 47.66 25.39
  L 49.66 26.81
  A 0.33 0.33 0.0 0 1 49.78 27.19
  L 49.00 29.52
  A 0.33 0.33 0.0 0 0 49.50 29.89
  L 51.48 28.43
  A 0.33 0.33 0.0 0 1 51.87 28.43
  L 53.84 29.90
  A 0.33 0.33 0.0 0 0 54.35 29.53
  L 53.57 27.20
  A 0.33 0.33 0.0 0 1 53.70 26.82
  L 55.70 25.40
  A 0.33 0.33 0.0 0 0 55.51 24.80
  L 53.05 24.82
  Z
  M 115.09 24.79
  A 0.34 0.34 0.0 0 1 114.77 24.56
  L 114.01 22.22
  A 0.34 0.34 0.0 0 0 113.37 22.22
  L 112.61 24.56
  A 0.34 0.34 0.0 0 1 112.29 24.79
  L 109.84 24.79
  A 0.34 0.34 0.0 0 0 109.64 25.40
  L 111.62 26.84
  A 0.34 0.34 0.0 0 1 111.75 27.22
  L 110.99 29.55
  A 0.34 0.34 0.0 0 0 111.51 29.93
  L 113.49 28.49
  A 0.34 0.34 0.0 0 1 113.89 28.49
  L 115.87 29.93
  A 0.34 0.34 0.0 0 0 116.39 29.55
  L 115.63 27.22
  A 0.34 0.34 0.0 0 1 115.76 26.84
  L 117.74 25.40
  A 0.34 0.34 0.0 0 0 117.54 24.79
  L 115.09 24.79
  Z
  M 19.29 33.42
  L 16.89 33.49
  Q 16.06 33.51 16.69 34.06
  L 18.35 35.51
  A 0.71 0.70 -61.8 0 1 18.56 36.23
  L 17.94 38.43
  Q 17.66 39.41 18.45 38.78
  L 20.25 37.34
  A 0.65 0.65 0.0 0 1 21.05 37.34
  L 22.83 38.69
  Q 24.48 39.95 23.30 37.95
  Q 21.73 35.30 24.58 34.38
  Q 27.35 33.48 24.51 33.49
  L 22.45 33.50
  A 0.77 0.76 80.8 0 1 21.71 32.96
  Q 21.37 31.80 20.72 30.81
  Q 20.12 29.90 20.03 30.99
  L 19.89 32.85
  A 0.62 0.61 1.0 0 1 19.29 33.42
  Z
  M 63.40 33.53
  A 0.34 0.34 0.0 0 1 63.07 33.29
  L 62.34 30.89
  A 0.34 0.34 0.0 0 0 61.69 30.89
  L 60.95 33.28
  A 0.34 0.34 0.0 0 1 60.62 33.52
  L 58.11 33.47
  A 0.34 0.34 0.0 0 0 57.91 34.09
  L 59.95 35.53
  A 0.34 0.34 0.0 0 1 60.08 35.92
  L 59.26 38.29
  A 0.34 0.34 0.0 0 0 59.78 38.67
  L 61.79 37.17
  A 0.34 0.34 0.0 0 1 62.20 37.17
  L 64.19 38.69
  A 0.34 0.34 0.0 0 0 64.72 38.31
  L 63.92 35.93
  A 0.34 0.34 0.0 0 1 64.04 35.55
  L 66.10 34.12
  A 0.34 0.34 0.0 0 0 65.90 33.50
  L 63.40 33.53
  Z
  M 104.78 33.46
  A 0.34 0.34 0.0 0 1 104.46 33.22
  L 103.70 30.79
  A 0.34 0.34 0.0 0 0 103.05 30.79
  L 102.26 33.21
  A 0.34 0.34 0.0 0 1 101.93 33.44
  L 99.39 33.42
  A 0.34 0.34 0.0 0 0 99.19 34.03
  L 101.24 35.53
  A 0.34 0.34 0.0 0 1 101.37 35.91
  L 100.56 38.33
  A 0.34 0.34 0.0 0 0 101.08 38.71
  L 103.14 37.22
  A 0.34 0.34 0.0 0 1 103.54 37.22
  L 105.58 38.73
  A 0.34 0.34 0.0 0 0 106.11 38.36
  L 105.33 35.94
  A 0.34 0.34 0.0 0 1 105.45 35.55
  L 107.52 34.08
  A 0.34 0.34 0.0 0 0 107.33 33.46
  L 104.78 33.46
  Z
  M 42.78 33.48
  A 0.34 0.34 0.0 0 1 42.46 33.25
  L 41.70 30.86
  A 0.34 0.34 0.0 0 0 41.06 30.85
  L 40.26 33.23
  A 0.34 0.34 0.0 0 1 39.94 33.46
  L 37.43 33.45
  A 0.34 0.34 0.0 0 0 37.23 34.06
  L 39.25 35.55
  A 0.34 0.34 0.0 0 1 39.37 35.93
  L 38.58 38.31
  A 0.34 0.34 0.0 0 0 39.10 38.69
  L 41.14 37.23
  A 0.34 0.34 0.0 0 1 41.53 37.24
  L 43.55 38.72
  A 0.34 0.34 0.0 0 0 44.08 38.35
  L 43.32 35.96
  A 0.34 0.34 0.0 0 1 43.45 35.58
  L 45.49 34.12
  A 0.34 0.34 0.0 0 0 45.29 33.50
  L 42.78 33.48
  Z
  M 84.09 33.49
  A 0.34 0.34 0.0 0 1 83.77 33.25
  L 83.00 30.91
  A 0.34 0.34 0.0 0 0 82.35 30.90
  L 81.57 33.25
  A 0.34 0.34 0.0 0 1 81.25 33.48
  L 78.78 33.48
  A 0.34 0.34 0.0 0 0 78.57 34.10
  L 80.56 35.57
  A 0.34 0.34 0.0 0 1 80.68 35.94
  L 79.92 38.29
  A 0.34 0.34 0.0 0 0 80.44 38.68
  L 82.45 37.24
  A 0.34 0.34 0.0 0 1 82.85 37.24
  L 84.85 38.69
  A 0.34 0.34 0.0 0 0 85.38 38.31
  L 84.63 35.96
  A 0.34 0.34 0.0 0 1 84.76 35.58
  L 86.75 34.13
  A 0.34 0.34 0.0 0 0 86.56 33.51
  L 84.09 33.49
  Z
  M 11.80 42.24
  A 0.34 0.34 0.0 0 1 11.48 42.00
  L 10.73 39.59
  A 0.34 0.34 0.0 0 0 10.08 39.59
  L 9.29 41.98
  A 0.34 0.34 0.0 0 1 8.97 42.22
  L 6.44 42.18
  A 0.34 0.34 0.0 0 0 6.24 42.80
  L 8.27 44.29
  A 0.34 0.34 0.0 0 1 8.39 44.67
  L 7.58 47.06
  A 0.34 0.34 0.0 0 0 8.10 47.45
  L 10.15 45.98
  A 0.34 0.34 0.0 0 1 10.55 45.98
  L 12.57 47.49
  A 0.34 0.34 0.0 0 0 13.10 47.11
  L 12.33 44.71
  A 0.34 0.34 0.0 0 1 12.46 44.33
  L 14.52 42.87
  A 0.34 0.34 0.0 0 0 14.33 42.25
  L 11.80 42.24
  Z
  M 32.41 42.27
  A 0.34 0.34 0.0 0 1 32.08 42.03
  L 31.34 39.61
  A 0.34 0.34 0.0 0 0 30.69 39.61
  L 29.94 42.03
  A 0.34 0.34 0.0 0 1 29.61 42.27
  L 27.08 42.22
  A 0.34 0.34 0.0 0 0 26.88 42.84
  L 28.95 44.30
  A 0.34 0.34 0.0 0 1 29.07 44.69
  L 28.25 47.08
  A 0.34 0.34 0.0 0 0 28.78 47.47
  L 30.80 45.95
  A 0.34 0.34 0.0 0 1 31.21 45.95
  L 33.23 47.47
  A 0.34 0.34 0.0 0 0 33.76 47.09
  L 32.95 44.70
  A 0.34 0.34 0.0 0 1 33.07 44.31
  L 35.14 42.86
  A 0.34 0.34 0.0 0 0 34.94 42.24
  L 32.41 42.27
  Z
  M 94.43 42.28
  A 0.34 0.34 0.0 0 1 94.10 42.04
  L 93.34 39.62
  A 0.34 0.34 0.0 0 0 92.70 39.62
  L 91.94 42.04
  A 0.34 0.34 0.0 0 1 91.61 42.28
  L 89.08 42.25
  A 0.34 0.34 0.0 0 0 88.88 42.87
  L 90.95 44.33
  A 0.34 0.34 0.0 0 1 91.07 44.72
  L 90.26 47.11
  A 0.34 0.34 0.0 0 0 90.79 47.50
  L 92.82 45.98
  A 0.34 0.34 0.0 0 1 93.22 45.98
  L 95.25 47.50
  A 0.34 0.34 0.0 0 0 95.78 47.11
  L 94.97 44.72
  A 0.34 0.34 0.0 0 1 95.09 44.33
  L 97.16 42.87
  A 0.34 0.34 0.0 0 0 96.96 42.25
  L 94.43 42.28
  Z
  M 54.03 44.07
  L 55.76 42.89
  Q 56.59 42.33 55.59 42.28
  L 53.02 42.16
  A 0.54 0.54 0.0 0 1 52.50 41.61
  Q 52.53 40.51 51.83 39.67
  Q 51.01 38.68 51.09 39.96
  Q 51.28 43.09 48.03 42.15
  Q 46.20 41.62 47.66 42.84
  L 49.25 44.16
  A 0.76 0.74 -63.6 0 1 49.50 44.93
  L 48.93 47.20
  Q 48.67 48.27 49.51 47.56
  L 51.16 46.17
  A 0.74 0.74 0.0 0 1 52.08 46.14
  L 53.83 47.44
  Q 54.66 48.06 54.37 47.06
  L 53.73 44.89
  A 0.74 0.74 0.0 0 1 54.03 44.07
  Z
  M 73.77 42.29
  A 0.34 0.34 0.0 0 1 73.44 42.05
  L 72.71 39.67
  A 0.34 0.34 0.0 0 0 72.06 39.66
  L 71.29 42.04
  A 0.34 0.34 0.0 0 1 70.96 42.27
  L 68.47 42.23
  A 0.34 0.34 0.0 0 0 68.26 42.84
  L 70.28 44.31
  A 0.34 0.34 0.0 0 1 70.40 44.70
  L 69.59 47.06
  A 0.34 0.34 0.0 0 0 70.11 47.44
  L 72.13 45.98
  A 0.34 0.34 0.0 0 1 72.53 45.98
  L 74.53 47.48
  A 0.34 0.34 0.0 0 0 75.06 47.10
  L 74.29 44.73
  A 0.34 0.34 0.0 0 1 74.41 44.35
  L 76.46 42.91
  A 0.34 0.34 0.0 0 0 76.26 42.30
  L 73.77 42.29
  Z
  M 115.10 42.28
  A 0.34 0.34 0.0 0 1 114.78 42.05
  L 114.02 39.67
  A 0.34 0.34 0.0 0 0 113.37 39.67
  L 112.59 42.04
  A 0.34 0.34 0.0 0 1 112.27 42.27
  L 109.77 42.26
  A 0.34 0.34 0.0 0 0 109.57 42.88
  L 111.59 44.35
  A 0.34 0.34 0.0 0 1 111.71 44.73
  L 110.93 47.11
  A 0.34 0.34 0.0 0 0 111.45 47.49
  L 113.47 46.02
  A 0.34 0.34 0.0 0 1 113.87 46.03
  L 115.89 47.50
  A 0.34 0.34 0.0 0 0 116.41 47.12
  L 115.65 44.75
  A 0.34 0.34 0.0 0 1 115.77 44.37
  L 117.80 42.91
  A 0.34 0.34 0.0 0 0 117.60 42.29
  L 115.10 42.28
  Z
  M 22.08 51.09
  A 0.34 0.34 0.0 0 1 21.75 50.85
  L 20.99 48.39
  A 0.34 0.34 0.0 0 0 20.34 48.39
  L 19.58 50.85
  A 0.34 0.34 0.0 0 1 19.25 51.09
  L 16.68 51.06
  A 0.34 0.34 0.0 0 0 16.48 51.68
  L 18.59 53.16
  A 0.34 0.34 0.0 0 1 18.72 53.54
  L 17.88 55.99
  A 0.34 0.34 0.0 0 0 18.41 56.37
  L 20.47 54.81
  A 0.34 0.34 0.0 0 1 20.88 54.81
  L 22.94 56.36
  A 0.34 0.34 0.0 0 0 23.47 55.98
  L 22.63 53.54
  A 0.34 0.34 0.0 0 1 22.75 53.15
  L 24.86 51.66
  A 0.34 0.34 0.0 0 0 24.66 51.04
  L 22.08 51.09
  Z
  M 42.77 51.08
  A 0.34 0.34 0.0 0 1 42.44 50.84
  L 41.69 48.40
  A 0.34 0.34 0.0 0 0 41.04 48.40
  L 40.27 50.83
  A 0.34 0.34 0.0 0 1 39.94 51.07
  L 37.40 51.03
  A 0.34 0.34 0.0 0 0 37.19 51.65
  L 39.27 53.13
  A 0.34 0.34 0.0 0 1 39.39 53.51
  L 38.57 55.92
  A 0.34 0.34 0.0 0 0 39.09 56.31
  L 41.14 54.79
  A 0.34 0.34 0.0 0 1 41.55 54.79
  L 43.58 56.32
  A 0.34 0.34 0.0 0 0 44.11 55.94
  L 43.30 53.53
  A 0.34 0.34 0.0 0 1 43.43 53.14
  L 45.51 51.67
  A 0.34 0.34 0.0 0 0 45.31 51.06
  L 42.77 51.08
  Z
  M 63.43 51.06
  A 0.34 0.34 0.0 0 1 63.10 50.82
  L 62.35 48.45
  A 0.34 0.34 0.0 0 0 61.70 48.45
  L 60.95 50.81
  A 0.34 0.34 0.0 0 1 60.62 51.05
  L 58.14 51.03
  A 0.34 0.34 0.0 0 0 57.94 51.65
  L 59.95 53.10
  A 0.34 0.34 0.0 0 1 60.08 53.48
  L 59.29 55.84
  A 0.34 0.34 0.0 0 0 59.81 56.22
  L 61.81 54.75
  A 0.34 0.34 0.0 0 1 62.22 54.75
  L 64.21 56.22
  A 0.34 0.34 0.0 0 0 64.74 55.84
  L 63.96 53.49
  A 0.34 0.34 0.0 0 1 64.09 53.10
  L 66.11 51.66
  A 0.34 0.34 0.0 0 0 65.91 51.04
  L 63.43 51.06
  Z
  M 84.09 51.07
  A 0.34 0.34 0.0 0 1 83.76 50.83
  L 82.98 48.36
  A 0.34 0.34 0.0 0 0 82.33 48.36
  L 81.57 50.84
  A 0.34 0.34 0.0 0 1 81.24 51.08
  L 78.64 51.06
  A 0.34 0.34 0.0 0 0 78.44 51.67
  L 80.57 53.17
  A 0.34 0.34 0.0 0 1 80.70 53.55
  L 79.87 56.01
  A 0.34 0.34 0.0 0 0 80.40 56.39
  L 82.47 54.83
  A 0.34 0.34 0.0 0 1 82.88 54.83
  L 84.97 56.38
  A 0.34 0.34 0.0 0 0 85.49 56.00
  L 84.65 53.54
  A 0.34 0.34 0.0 0 1 84.77 53.15
  L 86.89 51.65
  A 0.34 0.34 0.0 0 0 86.69 51.03
  L 84.09 51.07
  Z
  M 101.35 53.83
  L 100.64 55.68
  Q 99.58 58.46 101.37 56.11
  Q 103.29 53.58 105.15 56.06
  Q 107.59 59.33 105.88 55.69
  Q 104.56 52.88 107.15 51.96
  Q 110.43 50.79 107.01 51.19
  Q 104.05 51.53 103.74 48.77
  Q 103.52 46.84 103.06 48.57
  L 102.62 50.23
  A 1.28 1.28 0.0 0 1 102.04 50.98
  Q 101.17 51.48 100.06 51.18
  A 0.60 0.58 -45.8 0 0 99.68 51.19
  L 99.42 51.28
  Q 99.16 51.37 99.37 51.54
  L 101.16 53.08
  A 0.69 0.69 0.0 0 1 101.35 53.83
  Z
  M 32.41 59.92
  A 0.34 0.34 0.0 0 1 32.07 59.68
  L 31.34 57.24
  A 0.34 0.34 0.0 0 0 30.69 57.24
  L 29.96 59.68
  A 0.34 0.34 0.0 0 1 29.63 59.92
  L 27.09 59.87
  A 0.34 0.34 0.0 0 0 26.89 60.49
  L 28.98 61.93
  A 0.34 0.34 0.0 0 1 29.11 62.32
  L 28.27 64.72
  A 0.34 0.34 0.0 0 0 28.80 65.11
  L 30.82 63.56
  A 0.34 0.34 0.0 0 1 31.23 63.56
  L 33.25 65.10
  A 0.34 0.34 0.0 0 0 33.78 64.71
  L 32.93 62.31
  A 0.34 0.34 0.0 0 1 33.06 61.92
  L 35.15 60.47
  A 0.34 0.34 0.0 0 0 34.95 59.85
  L 32.41 59.92
  Z
  M 94.40 59.90
  A 0.34 0.34 0.0 0 1 94.07 59.66
  L 93.33 57.23
  A 0.34 0.34 0.0 0 0 92.68 57.24
  L 91.96 59.66
  A 0.34 0.34 0.0 0 1 91.63 59.91
  L 89.10 59.86
  A 0.34 0.34 0.0 0 0 88.90 60.48
  L 90.98 61.91
  A 0.34 0.34 0.0 0 1 91.11 62.30
  L 90.28 64.70
  A 0.34 0.34 0.0 0 0 90.81 65.08
  L 92.82 63.54
  A 0.34 0.34 0.0 0 1 93.23 63.54
  L 95.25 65.06
  A 0.34 0.34 0.0 0 0 95.78 64.68
  L 94.93 62.29
  A 0.34 0.34 0.0 0 1 95.06 61.90
  L 97.14 60.45
  A 0.34 0.34 0.0 0 0 96.93 59.83
  L 94.40 59.90
  Z
  M 115.06 59.89
  A 0.34 0.34 0.0 0 1 114.73 59.65
  L 113.99 57.22
  A 0.34 0.34 0.0 0 0 113.34 57.22
  L 112.60 59.64
  A 0.34 0.34 0.0 0 1 112.27 59.88
  L 109.73 59.83
  A 0.34 0.34 0.0 0 0 109.53 60.45
  L 111.60 61.91
  A 0.34 0.34 0.0 0 1 111.73 62.30
  L 110.90 64.70
  A 0.34 0.34 0.0 0 0 111.42 65.08
  L 113.45 63.55
  A 0.34 0.34 0.0 0 1 113.86 63.55
  L 115.88 65.09
  A 0.34 0.34 0.0 0 0 116.41 64.71
  L 115.59 62.31
  A 0.34 0.34 0.0 0 1 115.71 61.92
  L 117.80 60.47
  A 0.34 0.34 0.0 0 0 117.60 59.85
  L 115.06 59.89
  Z
  M 11.72 59.90
  A 0.34 0.34 0.0 0 1 11.39 59.66
  L 10.65 57.28
  A 0.34 0.34 0.0 0 0 10.01 57.28
  L 9.27 59.66
  A 0.34 0.34 0.0 0 1 8.94 59.90
  L 6.45 59.87
  A 0.34 0.34 0.0 0 0 6.25 60.48
  L 8.28 61.92
  A 0.34 0.34 0.0 0 1 8.40 62.31
  L 7.61 64.67
  A 0.34 0.34 0.0 0 0 8.13 65.05
  L 10.13 63.56
  A 0.34 0.34 0.0 0 1 10.53 63.56
  L 12.53 65.05
  A 0.34 0.34 0.0 0 0 13.05 64.67
  L 12.26 62.31
  A 0.34 0.34 0.0 0 1 12.38 61.92
  L 14.41 60.48
  A 0.34 0.34 0.0 0 0 14.21 59.87
  L 11.72 59.90
  Z
  M 53.03 59.94
  A 0.33 0.33 0.0 0 1 52.71 59.71
  L 51.98 57.24
  A 0.33 0.33 0.0 0 0 51.35 57.24
  L 50.61 59.70
  A 0.33 0.33 0.0 0 1 50.28 59.93
  L 47.71 59.86
  A 0.33 0.33 0.0 0 0 47.51 60.46
  L 49.62 61.93
  A 0.33 0.33 0.0 0 1 49.75 62.31
  L 48.89 64.73
  A 0.33 0.33 0.0 0 0 49.40 65.11
  L 51.44 63.55
  A 0.33 0.33 0.0 0 1 51.84 63.55
  L 53.88 65.12
  A 0.33 0.33 0.0 0 0 54.39 64.75
  L 53.55 62.32
  A 0.33 0.33 0.0 0 1 53.67 61.94
  L 55.79 60.49
  A 0.33 0.33 0.0 0 0 55.60 59.89
  L 53.03 59.94
  Z
  M 73.73 59.93
  A 0.34 0.34 0.0 0 1 73.40 59.69
  L 72.66 57.32
  A 0.34 0.34 0.0 0 0 72.02 57.32
  L 71.28 59.69
  A 0.34 0.34 0.0 0 1 70.95 59.93
  L 68.47 59.89
  A 0.34 0.34 0.0 0 0 68.27 60.51
  L 70.30 61.94
  A 0.34 0.34 0.0 0 1 70.42 62.33
  L 69.62 64.67
  A 0.34 0.34 0.0 0 0 70.15 65.06
  L 72.14 63.57
  A 0.34 0.34 0.0 0 1 72.54 63.57
  L 74.53 65.06
  A 0.34 0.34 0.0 0 0 75.06 64.67
  L 74.26 62.33
  A 0.34 0.34 0.0 0 1 74.38 61.94
  L 76.41 60.51
  A 0.34 0.34 0.0 0 0 76.21 59.89
  L 73.73 59.93
  Z
  M 22.09 68.60
  A 0.34 0.34 0.0 0 1 21.76 68.36
  L 21.01 66.01
  A 0.34 0.34 0.0 0 0 20.36 66.00
  L 19.60 68.36
  A 0.34 0.34 0.0 0 1 19.28 68.59
  L 16.80 68.58
  A 0.34 0.34 0.0 0 0 16.60 69.20
  L 18.60 70.65
  A 0.34 0.34 0.0 0 1 18.73 71.03
  L 17.95 73.38
  A 0.34 0.34 0.0 0 0 18.48 73.76
  L 20.48 72.31
  A 0.34 0.34 0.0 0 1 20.88 72.31
  L 22.87 73.77
  A 0.34 0.34 0.0 0 0 23.40 73.39
  L 22.63 71.04
  A 0.34 0.34 0.0 0 1 22.75 70.66
  L 24.76 69.21
  A 0.34 0.34 0.0 0 0 24.56 68.60
  L 22.09 68.60
  Z
  M 42.77 68.58
  A 0.34 0.34 0.0 0 1 42.44 68.35
  L 41.67 65.95
  A 0.34 0.34 0.0 0 0 41.02 65.95
  L 40.24 68.34
  A 0.34 0.34 0.0 0 1 39.92 68.58
  L 37.40 68.57
  A 0.34 0.34 0.0 0 0 37.20 69.19
  L 39.24 70.67
  A 0.34 0.34 0.0 0 1 39.36 71.05
  L 38.57 73.44
  A 0.34 0.34 0.0 0 0 39.10 73.83
  L 41.14 72.35
  A 0.34 0.34 0.0 0 1 41.54 72.35
  L 43.57 73.83
  A 0.34 0.34 0.0 0 0 44.09 73.45
  L 43.32 71.06
  A 0.34 0.34 0.0 0 1 43.44 70.68
  L 45.48 69.20
  A 0.34 0.34 0.0 0 0 45.29 68.59
  L 42.77 68.58
  Z
  M 63.39 68.62
  A 0.34 0.34 0.0 0 1 63.06 68.38
  L 62.32 65.94
  A 0.34 0.34 0.0 0 0 61.67 65.94
  L 60.93 68.39
  A 0.34 0.34 0.0 0 1 60.60 68.63
  L 58.05 68.58
  A 0.34 0.34 0.0 0 0 57.85 69.20
  L 59.94 70.66
  A 0.34 0.34 0.0 0 1 60.07 71.05
  L 59.24 73.46
  A 0.34 0.34 0.0 0 0 59.77 73.84
  L 61.80 72.30
  A 0.34 0.34 0.0 0 1 62.21 72.30
  L 64.25 73.83
  A 0.34 0.34 0.0 0 0 64.77 73.45
  L 63.93 71.04
  A 0.34 0.34 0.0 0 1 64.06 70.65
  L 66.15 69.19
  A 0.34 0.34 0.0 0 0 65.95 68.57
  L 63.39 68.62
  Z
  M 84.09 68.62
  A 0.34 0.34 0.0 0 1 83.76 68.38
  L 83.03 65.94
  A 0.34 0.34 0.0 0 0 82.38 65.94
  L 81.62 68.37
  A 0.34 0.34 0.0 0 1 81.29 68.61
  L 78.75 68.55
  A 0.34 0.34 0.0 0 0 78.54 69.16
  L 80.62 70.63
  A 0.34 0.34 0.0 0 1 80.75 71.02
  L 79.90 73.42
  A 0.34 0.34 0.0 0 0 80.43 73.81
  L 82.46 72.28
  A 0.34 0.34 0.0 0 1 82.87 72.29
  L 84.90 73.83
  A 0.34 0.34 0.0 0 0 85.42 73.45
  L 84.60 71.04
  A 0.34 0.34 0.0 0 1 84.73 70.65
  L 86.83 69.21
  A 0.34 0.34 0.0 0 0 86.63 68.59
  L 84.09 68.62
  Z
  M 104.74 68.62
  A 0.34 0.34 0.0 0 1 104.41 68.38
  L 103.67 65.96
  A 0.34 0.34 0.0 0 0 103.02 65.96
  L 102.27 68.38
  A 0.34 0.34 0.0 0 1 101.93 68.61
  L 99.41 68.57
  A 0.34 0.34 0.0 0 0 99.20 69.19
  L 101.27 70.65
  A 0.34 0.34 0.0 0 1 101.39 71.04
  L 100.56 73.43
  A 0.34 0.34 0.0 0 0 101.09 73.81
  L 103.12 72.30
  A 0.34 0.34 0.0 0 1 103.53 72.30
  L 105.55 73.83
  A 0.34 0.34 0.0 0 0 106.07 73.45
  L 105.26 71.05
  A 0.34 0.34 0.0 0 1 105.39 70.66
  L 107.46 69.21
  A 0.34 0.34 0.0 0 0 107.27 68.60
  L 104.74 68.62
  Z
  M 11.76 77.35
  A 0.34 0.34 0.0 0 1 11.43 77.12
  L 10.66 74.66
  A 0.34 0.34 0.0 0 0 10.01 74.67
  L 9.24 77.12
  A 0.34 0.34 0.0 0 1 8.92 77.36
  L 6.34 77.34
  A 0.34 0.34 0.0 0 0 6.14 77.96
  L 8.24 79.44
  A 0.34 0.34 0.0 0 1 8.37 79.83
  L 7.55 82.27
  A 0.34 0.34 0.0 0 0 8.08 82.65
  L 10.14 81.11
  A 0.34 0.34 0.0 0 1 10.55 81.11
  L 12.61 82.64
  A 0.34 0.34 0.0 0 0 13.14 82.26
  L 12.31 79.82
  A 0.34 0.34 0.0 0 1 12.44 79.44
  L 14.53 77.94
  A 0.34 0.34 0.0 0 0 14.33 77.32
  L 11.76 77.35
  Z
  M 32.39 77.40
  A 0.34 0.34 0.0 0 1 32.06 77.15
  L 31.32 74.69
  A 0.34 0.34 0.0 0 0 30.67 74.68
  L 29.93 77.15
  A 0.34 0.34 0.0 0 1 29.59 77.39
  L 27.02 77.33
  A 0.34 0.34 0.0 0 0 26.82 77.95
  L 28.93 79.42
  A 0.34 0.34 0.0 0 1 29.06 79.81
  L 28.20 82.24
  A 0.34 0.34 0.0 0 0 28.73 82.62
  L 30.78 81.07
  A 0.34 0.34 0.0 0 1 31.19 81.07
  L 33.24 82.63
  A 0.34 0.34 0.0 0 0 33.77 82.25
  L 32.92 79.82
  A 0.34 0.34 0.0 0 1 33.05 79.43
  L 35.17 77.96
  A 0.34 0.34 0.0 0 0 34.97 77.34
  L 32.39 77.40
  Z
  M 53.09 77.33
  A 0.34 0.34 0.0 0 1 52.77 77.10
  L 51.98 74.69
  A 0.34 0.34 0.0 0 0 51.33 74.70
  L 50.56 77.10
  A 0.34 0.34 0.0 0 1 50.24 77.34
  L 47.71 77.35
  A 0.34 0.34 0.0 0 0 47.51 77.96
  L 49.56 79.44
  A 0.34 0.34 0.0 0 1 49.69 79.82
  L 48.91 82.23
  A 0.34 0.34 0.0 0 0 49.44 82.61
  L 51.48 81.12
  A 0.34 0.34 0.0 0 1 51.88 81.11
  L 53.93 82.59
  A 0.34 0.34 0.0 0 0 54.45 82.21
  L 53.66 79.81
  A 0.34 0.34 0.0 0 1 53.78 79.43
  L 55.82 77.93
  A 0.34 0.34 0.0 0 0 55.62 77.32
  L 53.09 77.33
  Z
  M 69.08 77.43
  Q 66.46 77.40 68.72 78.35
  Q 71.37 79.47 69.55 82.01
  Q 68.49 83.49 70.05 82.55
  Q 71.09 81.93 71.98 81.16
  A 0.56 0.55 -45.4 0 1 72.70 81.15
  L 74.60 82.67
  Q 75.32 83.24 75.09 82.35
  L 74.51 80.12
  A 0.84 0.83 63.2 0 1 74.78 79.29
  L 76.52 77.85
  Q 77.24 77.25 76.30 77.25
  L 73.92 77.25
  A 0.72 0.70 -7.4 0 1 73.23 76.73
  L 72.60 74.47
  Q 72.18 72.96 72.03 74.93
  Q 71.84 77.47 69.08 77.43
  Z
  M 94.40 77.39
  A 0.34 0.34 0.0 0 1 94.06 77.14
  L 93.33 74.64
  A 0.34 0.34 0.0 0 0 92.68 74.63
  L 91.93 77.14
  A 0.34 0.34 0.0 0 1 91.59 77.38
  L 88.98 77.30
  A 0.34 0.34 0.0 0 0 88.78 77.92
  L 90.93 79.40
  A 0.34 0.34 0.0 0 1 91.05 79.80
  L 90.17 82.26
  A 0.34 0.34 0.0 0 0 90.70 82.64
  L 92.78 81.06
  A 0.34 0.34 0.0 0 1 93.19 81.06
  L 95.26 82.66
  A 0.34 0.34 0.0 0 0 95.79 82.28
  L 94.92 79.81
  A 0.34 0.34 0.0 0 1 95.05 79.42
  L 97.21 77.95
  A 0.34 0.34 0.0 0 0 97.01 77.33
  L 94.40 77.39
  Z
  M 115.07 77.35
  A 0.34 0.34 0.0 0 1 114.74 77.11
  L 113.99 74.63
  A 0.34 0.34 0.0 0 0 113.33 74.63
  L 112.58 77.11
  A 0.34 0.34 0.0 0 1 112.25 77.35
  L 109.65 77.31
  A 0.34 0.34 0.0 0 0 109.45 77.93
  L 111.58 79.41
  A 0.34 0.34 0.0 0 1 111.70 79.80
  L 110.86 82.25
  A 0.34 0.34 0.0 0 0 111.39 82.63
  L 113.46 81.07
  A 0.34 0.34 0.0 0 1 113.86 81.07
  L 115.93 82.63
  A 0.34 0.34 0.0 0 0 116.46 82.25
  L 115.62 79.80
  A 0.34 0.34 0.0 0 1 115.74 79.41
  L 117.87 77.93
  A 0.34 0.34 0.0 0 0 117.67 77.31
  L 115.07 77.35
  Z"
/>
<path fill="#b22234" d="
  M 124.30 0.00
  L 310.00 0.00
  L 310.00 12.31
  L 124.25 12.29
  Q 123.57 6.14 124.30 0.00
  Z"
/>
<path fill="#ffffff" d="
  M 10.04 11.09
  Q 8.96 11.53 8.11 12.38
  Q 6.96 13.56 7.75 11.97
  Q 9.03 9.42 6.64 7.75
  Q 5.08 6.65 6.76 7.15
  Q 9.75 8.05 9.72 4.98
  A 0.49 0.48 -88.3 0 1 10.23 4.49
  L 10.55 4.50
  A 0.30 0.29 90.0 0 1 10.83 4.79
  Q 10.86 7.75 13.87 7.21
  A 0.42 0.41 -18.7 0 1 14.32 7.43
  L 14.45 7.68
  A 0.18 0.17 -21.7 0 1 14.34 7.93
  Q 11.50 8.86 12.95 11.80
  Q 13.53 12.96 12.46 12.23
  L 10.91 11.18
  A 0.95 0.95 0.0 0 0 10.04 11.09
  Z"
/>
<path fill="#ffffff" d="
  M 30.46 11.19
  L 28.75 12.23
  Q 27.58 12.94 28.30 11.77
  Q 29.92 9.11 27.20 8.08
  Q 24.98 7.25 26.98 7.25
  L 29.06 7.24
  A 1.18 1.18 0.0 0 0 30.18 6.44
  L 30.87 4.44
  Q 31.29 3.21 31.48 5.02
  Q 31.77 7.88 34.74 7.19
  Q 36.82 6.71 35.07 7.81
  L 33.62 8.73
  A 0.87 0.87 0.0 0 0 33.22 9.59
  L 33.51 11.71
  Q 33.61 12.42 32.99 12.05
  L 31.52 11.18
  A 1.05 1.03 43.8 0 0 30.46 11.19
  Z"
/>
<path fill="#ffffff" d="
  M 49.27 8.96
  L 47.68 7.81
  Q 45.98 6.57 48.00 7.16
  Q 50.92 8.00 51.16 5.05
  A 0.49 0.48 11.7 0 1 51.80 4.63
  C 52.92 5.00 51.81 8.00 55.47 7.20
  A 0.24 0.23 83.5 0 1 55.76 7.44
  L 55.75 7.76
  A 0.27 0.27 0.0 0 1 55.56 8.02
  Q 52.41 9.02 54.62 12.19
  Q 55.82 13.92 54.16 12.63
  L 52.08 11.01
  A 0.75 0.74 -46.3 0 0 51.13 11.04
  L 49.61 12.37
  Q 48.71 13.16 49.03 12.01
  L 49.60 9.90
  A 0.88 0.87 26.0 0 0 49.27 8.96
  Z"
/>
<path fill="#ffffff" d="
  M 74.09 7.11
  L 75.98 7.27
  Q 77.22 7.37 76.11 7.92
  Q 73.56 9.19 74.90 11.90
  Q 75.44 13.01 74.46 12.26
  L 72.85 11.04
  A 0.78 0.78 0.0 0 0 71.92 11.03
  L 70.10 12.34
  Q 69.24 12.97 69.72 12.02
  Q 71.04 9.44 68.64 7.74
  Q 67.32 6.81 68.76 7.18
  Q 71.86 7.95 71.84 4.81
  A 0.33 0.32 0.9 0 1 72.18 4.49
  L 72.49 4.50
  A 0.18 0.18 0.0 0 1 72.66 4.62
  L 73.34 6.53
  A 0.88 0.88 0.0 0 0 74.09 7.11
  Z"
/>
<path fill="#ffffff" d="
  M 92.43 11.19
  L 90.78 12.27
  Q 90.03 12.76 90.43 11.95
  Q 91.88 9.05 88.81 7.77
  Q 87.52 7.24 88.91 7.24
  L 90.12 7.24
  Q 92.27 7.24 92.48 5.10
  Q 92.52 4.78 92.77 4.59
  Q 93.41 4.12 93.47 4.91
  Q 93.71 7.91 96.75 7.17
  Q 98.46 6.75 96.83 7.71
  Q 94.45 9.12 95.60 11.84
  Q 95.95 12.66 95.19 12.20
  L 93.51 11.17
  A 1.02 1.00 -45.5 0 0 92.43 11.19
  Z"
/>
<path fill="#ffffff" d="
  M 115.75 9.86
  L 116.34 11.97
  Q 116.57 12.79 115.87 12.31
  L 113.87 10.95
  A 0.66 0.65 35.2 0 0 112.98 11.10
  Q 112.41 11.88 111.58 12.35
  Q 109.97 13.27 110.98 11.70
  Q 112.73 9.00 109.63 7.93
  Q 108.02 7.36 109.95 7.54
  Q 112.93 7.80 113.08 4.86
  Q 113.13 3.79 113.79 4.63
  C 114.55 5.61 114.57 7.82 116.49 7.17
  A 1.26 1.24 45.4 0 1 117.29 7.18
  L 117.66 7.30
  Q 118.04 7.43 117.72 7.68
  L 116.03 9.03
  A 0.80 0.78 -27.2 0 0 115.75 9.86
  Z"
/>
<path fill="#ffffff" d="
  M 124.25 12.29
  L 310.00 12.31
  L 310.00 25.31
  L 124.63 25.06
  A 0.20 0.18 22.5 0 0 124.51 25.10
  L 124.29 25.25
  Q 123.60 18.77 124.25 12.29
  Z"
/>
<path fill="#ffffff" d="
  M 63.40 15.98
  L 65.79 16.01
  A 0.34 0.34 0.0 0 1 65.99 16.62
  L 64.06 18.04
  A 0.34 0.34 0.0 0 0 63.93 18.41
  L 64.64 20.70
  A 0.34 0.34 0.0 0 1 64.12 21.07
  L 62.18 19.67
  A 0.34 0.34 0.0 0 0 61.78 19.67
  L 59.83 21.05
  A 0.34 0.34 0.0 0 1 59.31 20.67
  L 60.04 18.39
  A 0.34 0.34 0.0 0 0 59.92 18.01
  L 58.00 16.58
  A 0.34 0.34 0.0 0 1 58.20 15.97
  L 60.60 15.96
  A 0.34 0.34 0.0 0 0 60.92 15.73
  L 61.69 13.46
  A 0.34 0.34 0.0 0 1 62.33 13.47
  L 63.08 15.74
  A 0.34 0.34 0.0 0 0 63.40 15.98
  Z"
/>
<path fill="#ffffff" d="
  M 22.73 18.69
  L 23.31 20.52
  Q 23.61 21.47 22.78 20.92
  L 21.08 19.81
  A 0.79 0.77 -43.7 0 0 20.22 19.80
  L 18.35 20.96
  Q 17.74 21.34 17.99 20.66
  L 18.76 18.53
  A 0.61 0.60 24.4 0 0 18.48 17.79
  L 16.68 16.81
  Q 14.26 15.50 17.02 16.08
  Q 20.29 16.78 20.16 13.42
  Q 20.09 11.69 20.79 13.28
  L 21.79 15.56
  A 0.72 0.70 81.8 0 0 22.32 15.97
  L 24.29 16.26
  Q 24.88 16.34 24.42 16.72
  L 22.97 17.89
  A 0.73 0.73 0.0 0 0 22.73 18.69
  Z"
/>
<path fill="#ffffff" d="
  M 43.21 16.00
  L 45.01 15.99
  Q 47.19 15.98 45.18 16.76
  Q 42.52 17.79 43.92 20.64
  Q 45.20 23.21 43.26 20.96
  Q 41.29 18.65 39.28 21.03
  Q 38.13 22.38 38.83 20.75
  Q 39.95 18.15 37.68 16.52
  Q 36.35 15.58 37.76 15.93
  Q 40.59 16.63 40.86 14.03
  Q 41.06 12.10 41.81 13.89
  L 42.51 15.54
  A 0.74 0.74 0.0 0 0 43.21 16.00
  Z"
/>
<path fill="#ffffff" d="
  M 84.08 16.03
  L 86.48 16.04
  A 0.34 0.34 0.0 0 1 86.68 16.66
  L 84.73 18.06
  A 0.34 0.34 0.0 0 0 84.61 18.44
  L 85.34 20.73
  A 0.34 0.34 0.0 0 1 84.81 21.11
  L 82.87 19.69
  A 0.34 0.34 0.0 0 0 82.47 19.69
  L 80.52 21.09
  A 0.34 0.34 0.0 0 1 80.00 20.71
  L 80.75 18.43
  A 0.34 0.34 0.0 0 0 80.63 18.05
  L 78.69 16.63
  A 0.34 0.34 0.0 0 1 78.89 16.01
  L 81.29 16.02
  A 0.34 0.34 0.0 0 0 81.62 15.78
  L 82.37 13.51
  A 0.34 0.34 0.0 0 1 83.02 13.51
  L 83.76 15.79
  A 0.34 0.34 0.0 0 0 84.08 16.03
  Z"
/>
<path fill="#ffffff" d="
  M 105.11 15.94
  L 107.09 16.12
  Q 108.55 16.26 107.19 16.81
  Q 104.34 17.96 106.12 20.71
  Q 107.04 22.13 105.56 20.85
  Q 103.40 19.00 101.09 20.88
  Q 100.76 21.15 100.90 20.75
  Q 101.83 18.20 99.73 16.57
  Q 98.51 15.63 99.77 15.94
  Q 102.84 16.69 102.91 13.50
  A 0.27 0.27 0.0 0 1 103.18 13.24
  L 103.50 13.25
  A 0.07 0.06 75.1 0 1 103.56 13.29
  L 104.33 15.35
  A 0.92 0.91 -7.6 0 0 105.11 15.94
  Z"
/>
<path fill="#ffffff" d="
  M 11.74 24.73
  L 14.20 24.75
  A 0.34 0.34 0.0 0 1 14.40 25.36
  L 12.42 26.82
  A 0.34 0.34 0.0 0 0 12.29 27.19
  L 13.03 29.54
  A 0.34 0.34 0.0 0 1 12.51 29.92
  L 10.51 28.48
  A 0.34 0.34 0.0 0 0 10.12 28.48
  L 8.12 29.91
  A 0.34 0.34 0.0 0 1 7.60 29.53
  L 8.34 27.19
  A 0.34 0.34 0.0 0 0 8.22 26.81
  L 6.25 25.35
  A 0.34 0.34 0.0 0 1 6.45 24.73
  L 8.90 24.72
  A 0.34 0.34 0.0 0 0 9.22 24.49
  L 10.00 22.16
  A 0.34 0.34 0.0 0 1 10.65 22.16
  L 11.42 24.49
  A 0.34 0.34 0.0 0 0 11.74 24.73
  Z"
/>
<path fill="#ffffff" d="
  M 32.40 24.77
  L 34.91 24.73
  A 0.34 0.34 0.0 0 1 35.11 25.35
  L 33.06 26.79
  A 0.34 0.34 0.0 0 0 32.94 27.18
  L 33.75 29.55
  A 0.34 0.34 0.0 0 1 33.22 29.94
  L 31.21 28.43
  A 0.34 0.34 0.0 0 0 30.81 28.43
  L 28.80 29.94
  A 0.34 0.34 0.0 0 1 28.27 29.55
  L 29.08 27.18
  A 0.34 0.34 0.0 0 0 28.96 26.79
  L 26.91 25.35
  A 0.34 0.34 0.0 0 1 27.11 24.73
  L 29.62 24.77
  A 0.34 0.34 0.0 0 0 29.94 24.53
  L 30.69 22.13
  A 0.34 0.34 0.0 0 1 31.33 22.13
  L 32.08 24.53
  A 0.34 0.34 0.0 0 0 32.40 24.77
  Z"
/>
<path fill="#ffffff" d="
  M 73.73 24.72
  L 76.17 24.74
  A 0.34 0.34 0.0 0 1 76.37 25.36
  L 74.40 26.80
  A 0.34 0.34 0.0 0 0 74.27 27.18
  L 75.01 29.51
  A 0.34 0.34 0.0 0 1 74.49 29.89
  L 72.50 28.46
  A 0.34 0.34 0.0 0 0 72.11 28.46
  L 70.12 29.88
  A 0.34 0.34 0.0 0 1 69.60 29.50
  L 70.34 27.17
  A 0.34 0.34 0.0 0 0 70.22 26.80
  L 68.26 25.34
  A 0.34 0.34 0.0 0 1 68.46 24.73
  L 70.90 24.72
  A 0.34 0.34 0.0 0 0 71.22 24.49
  L 71.99 22.17
  A 0.34 0.34 0.0 0 1 72.64 22.17
  L 73.41 24.49
  A 0.34 0.34 0.0 0 0 73.73 24.72
  Z"
/>
<path fill="#ffffff" d="
  M 94.41 24.75
  L 96.90 24.73
  A 0.34 0.34 0.0 0 1 97.10 25.35
  L 95.07 26.79
  A 0.34 0.34 0.0 0 0 94.94 27.18
  L 95.73 29.54
  A 0.34 0.34 0.0 0 1 95.21 29.92
  L 93.21 28.43
  A 0.34 0.34 0.0 0 0 92.80 28.43
  L 90.80 29.91
  A 0.34 0.34 0.0 0 1 90.28 29.53
  L 91.07 27.17
  A 0.34 0.34 0.0 0 0 90.95 26.78
  L 88.92 25.33
  A 0.34 0.34 0.0 0 1 89.12 24.72
  L 91.61 24.75
  A 0.34 0.34 0.0 0 0 91.94 24.51
  L 92.69 22.13
  A 0.34 0.34 0.0 0 1 93.34 22.13
  L 94.08 24.51
  A 0.34 0.34 0.0 0 0 94.41 24.75
  Z"
/>
<path fill="#ffffff" d="
  M 53.05 24.82
  L 55.51 24.80
  A 0.33 0.33 0.0 0 1 55.70 25.40
  L 53.70 26.82
  A 0.33 0.33 0.0 0 0 53.57 27.20
  L 54.35 29.53
  A 0.33 0.33 0.0 0 1 53.84 29.90
  L 51.87 28.43
  A 0.33 0.33 0.0 0 0 51.48 28.43
  L 49.50 29.89
  A 0.33 0.33 0.0 0 1 49.00 29.52
  L 49.78 27.19
  A 0.33 0.33 0.0 0 0 49.66 26.81
  L 47.66 25.39
  A 0.33 0.33 0.0 0 1 47.86 24.79
  L 50.31 24.82
  A 0.33 0.33 0.0 0 0 50.63 24.59
  L 51.37 22.25
  A 0.33 0.33 0.0 0 1 52.00 22.25
  L 52.73 24.59
  A 0.33 0.33 0.0 0 0 53.05 24.82
  Z"
/>
<path fill="#ffffff" d="
  M 115.09 24.79
  L 117.54 24.79
  A 0.34 0.34 0.0 0 1 117.74 25.40
  L 115.76 26.84
  A 0.34 0.34 0.0 0 0 115.63 27.22
  L 116.39 29.55
  A 0.34 0.34 0.0 0 1 115.87 29.93
  L 113.89 28.49
  A 0.34 0.34 0.0 0 0 113.49 28.49
  L 111.51 29.93
  A 0.34 0.34 0.0 0 1 110.99 29.55
  L 111.75 27.22
  A 0.34 0.34 0.0 0 0 111.62 26.84
  L 109.64 25.40
  A 0.34 0.34 0.0 0 1 109.84 24.79
  L 112.29 24.79
  A 0.34 0.34 0.0 0 0 112.61 24.56
  L 113.37 22.22
  A 0.34 0.34 0.0 0 1 114.01 22.22
  L 114.77 24.56
  A 0.34 0.34 0.0 0 0 115.09 24.79
  Z"
/>
<path fill="#b22234" d="
  M 310.00 25.31
  L 310.00 37.56
  L 124.25 37.54
  L 123.94 26.08
  A 0.83 0.81 61.6 0 1 124.08 25.59
  L 124.29 25.25
  L 124.51 25.10
  A 0.20 0.18 22.5 0 1 124.63 25.06
  L 310.00 25.31
  Z"
/>
<path fill="#ffffff" d="
  M 19.89 32.85
  L 20.03 30.99
  Q 20.12 29.90 20.72 30.81
  Q 21.37 31.80 21.71 32.96
  A 0.77 0.76 80.8 0 0 22.45 33.50
  L 24.51 33.49
  Q 27.35 33.48 24.58 34.38
  Q 21.73 35.30 23.30 37.95
  Q 24.48 39.95 22.83 38.69
  L 21.05 37.34
  A 0.65 0.65 0.0 0 0 20.25 37.34
  L 18.45 38.78
  Q 17.66 39.41 17.94 38.43
  L 18.56 36.23
  A 0.71 0.70 -61.8 0 0 18.35 35.51
  L 16.69 34.06
  Q 16.06 33.51 16.89 33.49
  L 19.29 33.42
  A 0.62 0.61 1.0 0 0 19.89 32.85
  Z"
/>
<path fill="#ffffff" d="
  M 63.40 33.53
  L 65.90 33.50
  A 0.34 0.34 0.0 0 1 66.10 34.12
  L 64.04 35.55
  A 0.34 0.34 0.0 0 0 63.92 35.93
  L 64.72 38.31
  A 0.34 0.34 0.0 0 1 64.19 38.69
  L 62.20 37.17
  A 0.34 0.34 0.0 0 0 61.79 37.17
  L 59.78 38.67
  A 0.34 0.34 0.0 0 1 59.26 38.29
  L 60.08 35.92
  A 0.34 0.34 0.0 0 0 59.95 35.53
  L 57.91 34.09
  A 0.34 0.34 0.0 0 1 58.11 33.47
  L 60.62 33.52
  A 0.34 0.34 0.0 0 0 60.95 33.28
  L 61.69 30.89
  A 0.34 0.34 0.0 0 1 62.34 30.89
  L 63.07 33.29
  A 0.34 0.34 0.0 0 0 63.40 33.53
  Z"
/>
<path fill="#ffffff" d="
  M 104.78 33.46
  L 107.33 33.46
  A 0.34 0.34 0.0 0 1 107.52 34.08
  L 105.45 35.55
  A 0.34 0.34 0.0 0 0 105.33 35.94
  L 106.11 38.36
  A 0.34 0.34 0.0 0 1 105.58 38.73
  L 103.54 37.22
  A 0.34 0.34 0.0 0 0 103.14 37.22
  L 101.08 38.71
  A 0.34 0.34 0.0 0 1 100.56 38.33
  L 101.37 35.91
  A 0.34 0.34 0.0 0 0 101.24 35.53
  L 99.19 34.03
  A 0.34 0.34 0.0 0 1 99.39 33.42
  L 101.93 33.44
  A 0.34 0.34 0.0 0 0 102.26 33.21
  L 103.05 30.79
  A 0.34 0.34 0.0 0 1 103.70 30.79
  L 104.46 33.22
  A 0.34 0.34 0.0 0 0 104.78 33.46
  Z"
/>
<path fill="#ffffff" d="
  M 42.78 33.48
  L 45.29 33.50
  A 0.34 0.34 0.0 0 1 45.49 34.12
  L 43.45 35.58
  A 0.34 0.34 0.0 0 0 43.32 35.96
  L 44.08 38.35
  A 0.34 0.34 0.0 0 1 43.55 38.72
  L 41.53 37.24
  A 0.34 0.34 0.0 0 0 41.14 37.23
  L 39.10 38.69
  A 0.34 0.34 0.0 0 1 38.58 38.31
  L 39.37 35.93
  A 0.34 0.34 0.0 0 0 39.25 35.55
  L 37.23 34.06
  A 0.34 0.34 0.0 0 1 37.43 33.45
  L 39.94 33.46
  A 0.34 0.34 0.0 0 0 40.26 33.23
  L 41.06 30.85
  A 0.34 0.34 0.0 0 1 41.70 30.86
  L 42.46 33.25
  A 0.34 0.34 0.0 0 0 42.78 33.48
  Z"
/>
<path fill="#ffffff" d="
  M 84.09 33.49
  L 86.56 33.51
  A 0.34 0.34 0.0 0 1 86.75 34.13
  L 84.76 35.58
  A 0.34 0.34 0.0 0 0 84.63 35.96
  L 85.38 38.31
  A 0.34 0.34 0.0 0 1 84.85 38.69
  L 82.85 37.24
  A 0.34 0.34 0.0 0 0 82.45 37.24
  L 80.44 38.68
  A 0.34 0.34 0.0 0 1 79.92 38.29
  L 80.68 35.94
  A 0.34 0.34 0.0 0 0 80.56 35.57
  L 78.57 34.10
  A 0.34 0.34 0.0 0 1 78.78 33.48
  L 81.25 33.48
  A 0.34 0.34 0.0 0 0 81.57 33.25
  L 82.35 30.90
  A 0.34 0.34 0.0 0 1 83.00 30.91
  L 83.77 33.25
  A 0.34 0.34 0.0 0 0 84.09 33.49
  Z"
/>
<path fill="#ffffff" d="
  M 124.25 37.54
  L 310.00 37.56
  L 310.00 50.31
  L 124.26 50.27
  Q 123.62 43.89 124.25 37.54
  Z"
/>
<path fill="#ffffff" d="
  M 11.80 42.24
  L 14.33 42.25
  A 0.34 0.34 0.0 0 1 14.52 42.87
  L 12.46 44.33
  A 0.34 0.34 0.0 0 0 12.33 44.71
  L 13.10 47.11
  A 0.34 0.34 0.0 0 1 12.57 47.49
  L 10.55 45.98
  A 0.34 0.34 0.0 0 0 10.15 45.98
  L 8.10 47.45
  A 0.34 0.34 0.0 0 1 7.58 47.06
  L 8.39 44.67
  A 0.34 0.34 0.0 0 0 8.27 44.29
  L 6.24 42.80
  A 0.34 0.34 0.0 0 1 6.44 42.18
  L 8.97 42.22
  A 0.34 0.34 0.0 0 0 9.29 41.98
  L 10.08 39.59
  A 0.34 0.34 0.0 0 1 10.73 39.59
  L 11.48 42.00
  A 0.34 0.34 0.0 0 0 11.80 42.24
  Z"
/>
<path fill="#ffffff" d="
  M 32.41 42.27
  L 34.94 42.24
  A 0.34 0.34 0.0 0 1 35.14 42.86
  L 33.07 44.31
  A 0.34 0.34 0.0 0 0 32.95 44.70
  L 33.76 47.09
  A 0.34 0.34 0.0 0 1 33.23 47.47
  L 31.21 45.95
  A 0.34 0.34 0.0 0 0 30.80 45.95
  L 28.78 47.47
  A 0.34 0.34 0.0 0 1 28.25 47.08
  L 29.07 44.69
  A 0.34 0.34 0.0 0 0 28.95 44.30
  L 26.88 42.84
  A 0.34 0.34 0.0 0 1 27.08 42.22
  L 29.61 42.27
  A 0.34 0.34 0.0 0 0 29.94 42.03
  L 30.69 39.61
  A 0.34 0.34 0.0 0 1 31.34 39.61
  L 32.08 42.03
  A 0.34 0.34 0.0 0 0 32.41 42.27
  Z"
/>
<path fill="#ffffff" d="
  M 94.43 42.28
  L 96.96 42.25
  A 0.34 0.34 0.0 0 1 97.16 42.87
  L 95.09 44.33
  A 0.34 0.34 0.0 0 0 94.97 44.72
  L 95.78 47.11
  A 0.34 0.34 0.0 0 1 95.25 47.50
  L 93.22 45.98
  A 0.34 0.34 0.0 0 0 92.82 45.98
  L 90.79 47.50
  A 0.34 0.34 0.0 0 1 90.26 47.11
  L 91.07 44.72
  A 0.34 0.34 0.0 0 0 90.95 44.33
  L 88.88 42.87
  A 0.34 0.34 0.0 0 1 89.08 42.25
  L 91.61 42.28
  A 0.34 0.34 0.0 0 0 91.94 42.04
  L 92.70 39.62
  A 0.34 0.34 0.0 0 1 93.34 39.62
  L 94.10 42.04
  A 0.34 0.34 0.0 0 0 94.43 42.28
  Z"
/>
<path fill="#ffffff" d="
  M 53.73 44.89
  L 54.37 47.06
  Q 54.66 48.06 53.83 47.44
  L 52.08 46.14
  A 0.74 0.74 0.0 0 0 51.16 46.17
  L 49.51 47.56
  Q 48.67 48.27 48.93 47.20
  L 49.50 44.93
  A 0.76 0.74 -63.6 0 0 49.25 44.16
  L 47.66 42.84
  Q 46.20 41.62 48.03 42.15
  Q 51.28 43.09 51.09 39.96
  Q 51.01 38.68 51.83 39.67
  Q 52.53 40.51 52.50 41.61
  A 0.54 0.54 0.0 0 0 53.02 42.16
  L 55.59 42.28
  Q 56.59 42.33 55.76 42.89
  L 54.03 44.07
  A 0.74 0.74 0.0 0 0 53.73 44.89
  Z"
/>
<path fill="#ffffff" d="
  M 73.77 42.29
  L 76.26 42.30
  A 0.34 0.34 0.0 0 1 76.46 42.91
  L 74.41 44.35
  A 0.34 0.34 0.0 0 0 74.29 44.73
  L 75.06 47.10
  A 0.34 0.34 0.0 0 1 74.53 47.48
  L 72.53 45.98
  A 0.34 0.34 0.0 0 0 72.13 45.98
  L 70.11 47.44
  A 0.34 0.34 0.0 0 1 69.59 47.06
  L 70.40 44.70
  A 0.34 0.34 0.0 0 0 70.28 44.31
  L 68.26 42.84
  A 0.34 0.34 0.0 0 1 68.47 42.23
  L 70.96 42.27
  A 0.34 0.34 0.0 0 0 71.29 42.04
  L 72.06 39.66
  A 0.34 0.34 0.0 0 1 72.71 39.67
  L 73.44 42.05
  A 0.34 0.34 0.0 0 0 73.77 42.29
  Z"
/>
<path fill="#ffffff" d="
  M 115.10 42.28
  L 117.60 42.29
  A 0.34 0.34 0.0 0 1 117.80 42.91
  L 115.77 44.37
  A 0.34 0.34 0.0 0 0 115.65 44.75
  L 116.41 47.12
  A 0.34 0.34 0.0 0 1 115.89 47.50
  L 113.87 46.03
  A 0.34 0.34 0.0 0 0 113.47 46.02
  L 111.45 47.49
  A 0.34 0.34 0.0 0 1 110.93 47.11
  L 111.71 44.73
  A 0.34 0.34 0.0 0 0 111.59 44.35
  L 109.57 42.88
  A 0.34 0.34 0.0 0 1 109.77 42.26
  L 112.27 42.27
  A 0.34 0.34 0.0 0 0 112.59 42.04
  L 113.37 39.67
  A 0.34 0.34 0.0 0 1 114.02 39.67
  L 114.78 42.05
  A 0.34 0.34 0.0 0 0 115.10 42.28
  Z"
/>
<path fill="#ffffff" d="
  M 22.08 51.09
  L 24.66 51.04
  A 0.34 0.34 0.0 0 1 24.86 51.66
  L 22.75 53.15
  A 0.34 0.34 0.0 0 0 22.63 53.54
  L 23.47 55.98
  A 0.34 0.34 0.0 0 1 22.94 56.36
  L 20.88 54.81
  A 0.34 0.34 0.0 0 0 20.47 54.81
  L 18.41 56.37
  A 0.34 0.34 0.0 0 1 17.88 55.99
  L 18.72 53.54
  A 0.34 0.34 0.0 0 0 18.59 53.16
  L 16.48 51.68
  A 0.34 0.34 0.0 0 1 16.68 51.06
  L 19.25 51.09
  A 0.34 0.34 0.0 0 0 19.58 50.85
  L 20.34 48.39
  A 0.34 0.34 0.0 0 1 20.99 48.39
  L 21.75 50.85
  A 0.34 0.34 0.0 0 0 22.08 51.09
  Z"
/>
<path fill="#ffffff" d="
  M 42.77 51.08
  L 45.31 51.06
  A 0.34 0.34 0.0 0 1 45.51 51.67
  L 43.43 53.14
  A 0.34 0.34 0.0 0 0 43.30 53.53
  L 44.11 55.94
  A 0.34 0.34 0.0 0 1 43.58 56.32
  L 41.55 54.79
  A 0.34 0.34 0.0 0 0 41.14 54.79
  L 39.09 56.31
  A 0.34 0.34 0.0 0 1 38.57 55.92
  L 39.39 53.51
  A 0.34 0.34 0.0 0 0 39.27 53.13
  L 37.19 51.65
  A 0.34 0.34 0.0 0 1 37.40 51.03
  L 39.94 51.07
  A 0.34 0.34 0.0 0 0 40.27 50.83
  L 41.04 48.40
  A 0.34 0.34 0.0 0 1 41.69 48.40
  L 42.44 50.84
  A 0.34 0.34 0.0 0 0 42.77 51.08
  Z"
/>
<path fill="#ffffff" d="
  M 63.43 51.06
  L 65.91 51.04
  A 0.34 0.34 0.0 0 1 66.11 51.66
  L 64.09 53.10
  A 0.34 0.34 0.0 0 0 63.96 53.49
  L 64.74 55.84
  A 0.34 0.34 0.0 0 1 64.21 56.22
  L 62.22 54.75
  A 0.34 0.34 0.0 0 0 61.81 54.75
  L 59.81 56.22
  A 0.34 0.34 0.0 0 1 59.29 55.84
  L 60.08 53.48
  A 0.34 0.34 0.0 0 0 59.95 53.10
  L 57.94 51.65
  A 0.34 0.34 0.0 0 1 58.14 51.03
  L 60.62 51.05
  A 0.34 0.34 0.0 0 0 60.95 50.81
  L 61.70 48.45
  A 0.34 0.34 0.0 0 1 62.35 48.45
  L 63.10 50.82
  A 0.34 0.34 0.0 0 0 63.43 51.06
  Z"
/>
<path fill="#ffffff" d="
  M 84.09 51.07
  L 86.69 51.03
  A 0.34 0.34 0.0 0 1 86.89 51.65
  L 84.77 53.15
  A 0.34 0.34 0.0 0 0 84.65 53.54
  L 85.49 56.00
  A 0.34 0.34 0.0 0 1 84.97 56.38
  L 82.88 54.83
  A 0.34 0.34 0.0 0 0 82.47 54.83
  L 80.40 56.39
  A 0.34 0.34 0.0 0 1 79.87 56.01
  L 80.70 53.55
  A 0.34 0.34 0.0 0 0 80.57 53.17
  L 78.44 51.67
  A 0.34 0.34 0.0 0 1 78.64 51.06
  L 81.24 51.08
  A 0.34 0.34 0.0 0 0 81.57 50.84
  L 82.33 48.36
  A 0.34 0.34 0.0 0 1 82.98 48.36
  L 83.76 50.83
  A 0.34 0.34 0.0 0 0 84.09 51.07
  Z"
/>
<path fill="#ffffff" d="
  M 101.16 53.08
  L 99.37 51.54
  Q 99.16 51.37 99.42 51.28
  L 99.68 51.19
  A 0.60 0.58 -45.8 0 1 100.06 51.18
  Q 101.17 51.48 102.04 50.98
  A 1.28 1.28 0.0 0 0 102.62 50.23
  L 103.06 48.57
  Q 103.52 46.84 103.74 48.77
  Q 104.05 51.53 107.01 51.19
  Q 110.43 50.79 107.15 51.96
  Q 104.56 52.88 105.88 55.69
  Q 107.59 59.33 105.15 56.06
  Q 103.29 53.58 101.37 56.11
  Q 99.58 58.46 100.64 55.68
  L 101.35 53.83
  A 0.69 0.69 0.0 0 0 101.16 53.08
  Z"
/>
<path fill="#b22234" d="
  M 124.26 50.27
  L 310.00 50.31
  L 310.00 62.56
  L 124.25 62.54
  Q 123.59 56.38 124.26 50.27
  Z"
/>
<path fill="#ffffff" d="
  M 32.41 59.92
  L 34.95 59.85
  A 0.34 0.34 0.0 0 1 35.15 60.47
  L 33.06 61.92
  A 0.34 0.34 0.0 0 0 32.93 62.31
  L 33.78 64.71
  A 0.34 0.34 0.0 0 1 33.25 65.10
  L 31.23 63.56
  A 0.34 0.34 0.0 0 0 30.82 63.56
  L 28.80 65.11
  A 0.34 0.34 0.0 0 1 28.27 64.72
  L 29.11 62.32
  A 0.34 0.34 0.0 0 0 28.98 61.93
  L 26.89 60.49
  A 0.34 0.34 0.0 0 1 27.09 59.87
  L 29.63 59.92
  A 0.34 0.34 0.0 0 0 29.96 59.68
  L 30.69 57.24
  A 0.34 0.34 0.0 0 1 31.34 57.24
  L 32.07 59.68
  A 0.34 0.34 0.0 0 0 32.41 59.92
  Z"
/>
<path fill="#ffffff" d="
  M 94.40 59.90
  L 96.93 59.83
  A 0.34 0.34 0.0 0 1 97.14 60.45
  L 95.06 61.90
  A 0.34 0.34 0.0 0 0 94.93 62.29
  L 95.78 64.68
  A 0.34 0.34 0.0 0 1 95.25 65.06
  L 93.23 63.54
  A 0.34 0.34 0.0 0 0 92.82 63.54
  L 90.81 65.08
  A 0.34 0.34 0.0 0 1 90.28 64.70
  L 91.11 62.30
  A 0.34 0.34 0.0 0 0 90.98 61.91
  L 88.90 60.48
  A 0.34 0.34 0.0 0 1 89.10 59.86
  L 91.63 59.91
  A 0.34 0.34 0.0 0 0 91.96 59.66
  L 92.68 57.24
  A 0.34 0.34 0.0 0 1 93.33 57.23
  L 94.07 59.66
  A 0.34 0.34 0.0 0 0 94.40 59.90
  Z"
/>
<path fill="#ffffff" d="
  M 115.06 59.89
  L 117.60 59.85
  A 0.34 0.34 0.0 0 1 117.80 60.47
  L 115.71 61.92
  A 0.34 0.34 0.0 0 0 115.59 62.31
  L 116.41 64.71
  A 0.34 0.34 0.0 0 1 115.88 65.09
  L 113.86 63.55
  A 0.34 0.34 0.0 0 0 113.45 63.55
  L 111.42 65.08
  A 0.34 0.34 0.0 0 1 110.90 64.70
  L 111.73 62.30
  A 0.34 0.34 0.0 0 0 111.60 61.91
  L 109.53 60.45
  A 0.34 0.34 0.0 0 1 109.73 59.83
  L 112.27 59.88
  A 0.34 0.34 0.0 0 0 112.60 59.64
  L 113.34 57.22
  A 0.34 0.34 0.0 0 1 113.99 57.22
  L 114.73 59.65
  A 0.34 0.34 0.0 0 0 115.06 59.89
  Z"
/>
<path fill="#ffffff" d="
  M 11.72 59.90
  L 14.21 59.87
  A 0.34 0.34 0.0 0 1 14.41 60.48
  L 12.38 61.92
  A 0.34 0.34 0.0 0 0 12.26 62.31
  L 13.05 64.67
  A 0.34 0.34 0.0 0 1 12.53 65.05
  L 10.53 63.56
  A 0.34 0.34 0.0 0 0 10.13 63.56
  L 8.13 65.05
  A 0.34 0.34 0.0 0 1 7.61 64.67
  L 8.40 62.31
  A 0.34 0.34 0.0 0 0 8.28 61.92
  L 6.25 60.48
  A 0.34 0.34 0.0 0 1 6.45 59.87
  L 8.94 59.90
  A 0.34 0.34 0.0 0 0 9.27 59.66
  L 10.01 57.28
  A 0.34 0.34 0.0 0 1 10.65 57.28
  L 11.39 59.66
  A 0.34 0.34 0.0 0 0 11.72 59.90
  Z"
/>
<path fill="#ffffff" d="
  M 53.03 59.94
  L 55.60 59.89
  A 0.33 0.33 0.0 0 1 55.79 60.49
  L 53.67 61.94
  A 0.33 0.33 0.0 0 0 53.55 62.32
  L 54.39 64.75
  A 0.33 0.33 0.0 0 1 53.88 65.12
  L 51.84 63.55
  A 0.33 0.33 0.0 0 0 51.44 63.55
  L 49.40 65.11
  A 0.33 0.33 0.0 0 1 48.89 64.73
  L 49.75 62.31
  A 0.33 0.33 0.0 0 0 49.62 61.93
  L 47.51 60.46
  A 0.33 0.33 0.0 0 1 47.71 59.86
  L 50.28 59.93
  A 0.33 0.33 0.0 0 0 50.61 59.70
  L 51.35 57.24
  A 0.33 0.33 0.0 0 1 51.98 57.24
  L 52.71 59.71
  A 0.33 0.33 0.0 0 0 53.03 59.94
  Z"
/>
<path fill="#ffffff" d="
  M 73.73 59.93
  L 76.21 59.89
  A 0.34 0.34 0.0 0 1 76.41 60.51
  L 74.38 61.94
  A 0.34 0.34 0.0 0 0 74.26 62.33
  L 75.06 64.67
  A 0.34 0.34 0.0 0 1 74.53 65.06
  L 72.54 63.57
  A 0.34 0.34 0.0 0 0 72.14 63.57
  L 70.15 65.06
  A 0.34 0.34 0.0 0 1 69.62 64.67
  L 70.42 62.33
  A 0.34 0.34 0.0 0 0 70.30 61.94
  L 68.27 60.51
  A 0.34 0.34 0.0 0 1 68.47 59.89
  L 70.95 59.93
  A 0.34 0.34 0.0 0 0 71.28 59.69
  L 72.02 57.32
  A 0.34 0.34 0.0 0 1 72.66 57.32
  L 73.40 59.69
  A 0.34 0.34 0.0 0 0 73.73 59.93
  Z"
/>
<path fill="#ffffff" d="
  M 124.25 62.54
  L 310.00 62.56
  L 310.00 75.32
  Q 304.92 75.42 276.75 75.29
  Q 251.96 75.17 124.21 75.27
  Q 123.65 68.93 124.25 62.54
  Z"
/>
<path fill="#ffffff" d="
  M 22.09 68.60
  L 24.56 68.60
  A 0.34 0.34 0.0 0 1 24.76 69.21
  L 22.75 70.66
  A 0.34 0.34 0.0 0 0 22.63 71.04
  L 23.40 73.39
  A 0.34 0.34 0.0 0 1 22.87 73.77
  L 20.88 72.31
  A 0.34 0.34 0.0 0 0 20.48 72.31
  L 18.48 73.76
  A 0.34 0.34 0.0 0 1 17.95 73.38
  L 18.73 71.03
  A 0.34 0.34 0.0 0 0 18.60 70.65
  L 16.60 69.20
  A 0.34 0.34 0.0 0 1 16.80 68.58
  L 19.28 68.59
  A 0.34 0.34 0.0 0 0 19.60 68.36
  L 20.36 66.00
  A 0.34 0.34 0.0 0 1 21.01 66.01
  L 21.76 68.36
  A 0.34 0.34 0.0 0 0 22.09 68.60
  Z"
/>
<path fill="#ffffff" d="
  M 42.77 68.58
  L 45.29 68.59
  A 0.34 0.34 0.0 0 1 45.48 69.20
  L 43.44 70.68
  A 0.34 0.34 0.0 0 0 43.32 71.06
  L 44.09 73.45
  A 0.34 0.34 0.0 0 1 43.57 73.83
  L 41.54 72.35
  A 0.34 0.34 0.0 0 0 41.14 72.35
  L 39.10 73.83
  A 0.34 0.34 0.0 0 1 38.57 73.44
  L 39.36 71.05
  A 0.34 0.34 0.0 0 0 39.24 70.67
  L 37.20 69.19
  A 0.34 0.34 0.0 0 1 37.40 68.57
  L 39.92 68.58
  A 0.34 0.34 0.0 0 0 40.24 68.34
  L 41.02 65.95
  A 0.34 0.34 0.0 0 1 41.67 65.95
  L 42.44 68.35
  A 0.34 0.34 0.0 0 0 42.77 68.58
  Z"
/>
<path fill="#ffffff" d="
  M 63.39 68.62
  L 65.95 68.57
  A 0.34 0.34 0.0 0 1 66.15 69.19
  L 64.06 70.65
  A 0.34 0.34 0.0 0 0 63.93 71.04
  L 64.77 73.45
  A 0.34 0.34 0.0 0 1 64.25 73.83
  L 62.21 72.30
  A 0.34 0.34 0.0 0 0 61.80 72.30
  L 59.77 73.84
  A 0.34 0.34 0.0 0 1 59.24 73.46
  L 60.07 71.05
  A 0.34 0.34 0.0 0 0 59.94 70.66
  L 57.85 69.20
  A 0.34 0.34 0.0 0 1 58.05 68.58
  L 60.60 68.63
  A 0.34 0.34 0.0 0 0 60.93 68.39
  L 61.67 65.94
  A 0.34 0.34 0.0 0 1 62.32 65.94
  L 63.06 68.38
  A 0.34 0.34 0.0 0 0 63.39 68.62
  Z"
/>
<path fill="#ffffff" d="
  M 84.09 68.62
  L 86.63 68.59
  A 0.34 0.34 0.0 0 1 86.83 69.21
  L 84.73 70.65
  A 0.34 0.34 0.0 0 0 84.60 71.04
  L 85.42 73.45
  A 0.34 0.34 0.0 0 1 84.90 73.83
  L 82.87 72.29
  A 0.34 0.34 0.0 0 0 82.46 72.28
  L 80.43 73.81
  A 0.34 0.34 0.0 0 1 79.90 73.42
  L 80.75 71.02
  A 0.34 0.34 0.0 0 0 80.62 70.63
  L 78.54 69.16
  A 0.34 0.34 0.0 0 1 78.75 68.55
  L 81.29 68.61
  A 0.34 0.34 0.0 0 0 81.62 68.37
  L 82.38 65.94
  A 0.34 0.34 0.0 0 1 83.03 65.94
  L 83.76 68.38
  A 0.34 0.34 0.0 0 0 84.09 68.62
  Z"
/>
<path fill="#ffffff" d="
  M 104.74 68.62
  L 107.27 68.60
  A 0.34 0.34 0.0 0 1 107.46 69.21
  L 105.39 70.66
  A 0.34 0.34 0.0 0 0 105.26 71.05
  L 106.07 73.45
  A 0.34 0.34 0.0 0 1 105.55 73.83
  L 103.53 72.30
  A 0.34 0.34 0.0 0 0 103.12 72.30
  L 101.09 73.81
  A 0.34 0.34 0.0 0 1 100.56 73.43
  L 101.39 71.04
  A 0.34 0.34 0.0 0 0 101.27 70.65
  L 99.20 69.19
  A 0.34 0.34 0.0 0 1 99.41 68.57
  L 101.93 68.61
  A 0.34 0.34 0.0 0 0 102.27 68.38
  L 103.02 65.96
  A 0.34 0.34 0.0 0 1 103.67 65.96
  L 104.41 68.38
  A 0.34 0.34 0.0 0 0 104.74 68.62
  Z"
/>
<path fill="#ffffff" d="
  M 11.76 77.35
  L 14.33 77.32
  A 0.34 0.34 0.0 0 1 14.53 77.94
  L 12.44 79.44
  A 0.34 0.34 0.0 0 0 12.31 79.82
  L 13.14 82.26
  A 0.34 0.34 0.0 0 1 12.61 82.64
  L 10.55 81.11
  A 0.34 0.34 0.0 0 0 10.14 81.11
  L 8.08 82.65
  A 0.34 0.34 0.0 0 1 7.55 82.27
  L 8.37 79.83
  A 0.34 0.34 0.0 0 0 8.24 79.44
  L 6.14 77.96
  A 0.34 0.34 0.0 0 1 6.34 77.34
  L 8.92 77.36
  A 0.34 0.34 0.0 0 0 9.24 77.12
  L 10.01 74.67
  A 0.34 0.34 0.0 0 1 10.66 74.66
  L 11.43 77.12
  A 0.34 0.34 0.0 0 0 11.76 77.35
  Z"
/>
<path fill="#ffffff" d="
  M 32.39 77.40
  L 34.97 77.34
  A 0.34 0.34 0.0 0 1 35.17 77.96
  L 33.05 79.43
  A 0.34 0.34 0.0 0 0 32.92 79.82
  L 33.77 82.25
  A 0.34 0.34 0.0 0 1 33.24 82.63
  L 31.19 81.07
  A 0.34 0.34 0.0 0 0 30.78 81.07
  L 28.73 82.62
  A 0.34 0.34 0.0 0 1 28.20 82.24
  L 29.06 79.81
  A 0.34 0.34 0.0 0 0 28.93 79.42
  L 26.82 77.95
  A 0.34 0.34 0.0 0 1 27.02 77.33
  L 29.59 77.39
  A 0.34 0.34 0.0 0 0 29.93 77.15
  L 30.67 74.68
  A 0.34 0.34 0.0 0 1 31.32 74.69
  L 32.06 77.15
  A 0.34 0.34 0.0 0 0 32.39 77.40
  Z"
/>
<path fill="#ffffff" d="
  M 53.09 77.33
  L 55.62 77.32
  A 0.34 0.34 0.0 0 1 55.82 77.93
  L 53.78 79.43
  A 0.34 0.34 0.0 0 0 53.66 79.81
  L 54.45 82.21
  A 0.34 0.34 0.0 0 1 53.93 82.59
  L 51.88 81.11
  A 0.34 0.34 0.0 0 0 51.48 81.12
  L 49.44 82.61
  A 0.34 0.34 0.0 0 1 48.91 82.23
  L 49.69 79.82
  A 0.34 0.34 0.0 0 0 49.56 79.44
  L 47.51 77.96
  A 0.34 0.34 0.0 0 1 47.71 77.35
  L 50.24 77.34
  A 0.34 0.34 0.0 0 0 50.56 77.10
  L 51.33 74.70
  A 0.34 0.34 0.0 0 1 51.98 74.69
  L 52.77 77.10
  A 0.34 0.34 0.0 0 0 53.09 77.33
  Z"
/>
<path fill="#ffffff" d="
  M 69.08 77.43
  Q 71.84 77.47 72.03 74.93
  Q 72.18 72.96 72.60 74.47
  L 73.23 76.73
  A 0.72 0.70 -7.4 0 0 73.92 77.25
  L 76.30 77.25
  Q 77.24 77.25 76.52 77.85
  L 74.78 79.29
  A 0.84 0.83 63.2 0 0 74.51 80.12
  L 75.09 82.35
  Q 75.32 83.24 74.60 82.67
  L 72.70 81.15
  A 0.56 0.55 -45.4 0 0 71.98 81.16
  Q 71.09 81.93 70.05 82.55
  Q 68.49 83.49 69.55 82.01
  Q 71.37 79.47 68.72 78.35
  Q 66.46 77.40 69.08 77.43
  Z"
/>
<path fill="#ffffff" d="
  M 94.40 77.39
  L 97.01 77.33
  A 0.34 0.34 0.0 0 1 97.21 77.95
  L 95.05 79.42
  A 0.34 0.34 0.0 0 0 94.92 79.81
  L 95.79 82.28
  A 0.34 0.34 0.0 0 1 95.26 82.66
  L 93.19 81.06
  A 0.34 0.34 0.0 0 0 92.78 81.06
  L 90.70 82.64
  A 0.34 0.34 0.0 0 1 90.17 82.26
  L 91.05 79.80
  A 0.34 0.34 0.0 0 0 90.93 79.40
  L 88.78 77.92
  A 0.34 0.34 0.0 0 1 88.98 77.30
  L 91.59 77.38
  A 0.34 0.34 0.0 0 0 91.93 77.14
  L 92.68 74.63
  A 0.34 0.34 0.0 0 1 93.33 74.64
  L 94.06 77.14
  A 0.34 0.34 0.0 0 0 94.40 77.39
  Z"
/>
<path fill="#ffffff" d="
  M 115.07 77.35
  L 117.67 77.31
  A 0.34 0.34 0.0 0 1 117.87 77.93
  L 115.74 79.41
  A 0.34 0.34 0.0 0 0 115.62 79.80
  L 116.46 82.25
  A 0.34 0.34 0.0 0 1 115.93 82.63
  L 113.86 81.07
  A 0.34 0.34 0.0 0 0 113.46 81.07
  L 111.39 82.63
  A 0.34 0.34 0.0 0 1 110.86 82.25
  L 111.70 79.80
  A 0.34 0.34 0.0 0 0 111.58 79.41
  L 109.45 77.93
  A 0.34 0.34 0.0 0 1 109.65 77.31
  L 112.25 77.35
  A 0.34 0.34 0.0 0 0 112.58 77.11
  L 113.33 74.63
  A 0.34 0.34 0.0 0 1 113.99 74.63
  L 114.74 77.11
  A 0.34 0.34 0.0 0 0 115.07 77.35
  Z"
/>
<path fill="#b22234" d="
  M 124.21 75.27
  Q 251.96 75.17 276.75 75.29
  Q 304.92 75.42 310.00 75.32
  L 310.00 87.56
  C 297.47 87.92 285.02 87.49 272.50 87.53
  Q 198.25 87.79 124.00 87.71
  L 124.21 75.27
  Z"
/>
<path fill="#ffffff" d="
  M 0.00 87.44
  L 0.21 87.61
  A 0.37 0.36 -25.1 0 0 0.44 87.69
  L 124.00 87.71
  Q 198.25 87.79 272.50 87.53
  C 285.02 87.49 297.47 87.92 310.00 87.56
  L 310.00 100.56
  L 0.00 100.44
  L 0.00 87.44
  Z"
/>
<path fill="#b22234" d="
  M 310.00 100.56
  L 310.00 112.81
  L 0.00 112.69
  L 0.00 100.44
  L 310.00 100.56
  Z"
/>
<path fill="#ffffff" d="
  M 0.00 112.69
  L 310.00 112.81
  L 310.00 125.81
  C 309.48 125.60 309.68 125.50 308.99 125.50
  Q 154.49 125.47 0.00 125.44
  L 0.00 112.69
  Z"
/>
<path fill="#b22234" d="
  M 0.00 125.44
  Q 154.49 125.47 308.99 125.50
  C 309.68 125.50 309.48 125.60 310.00 125.81
  L 310.00 137.81
  Q 162.24 138.26 14.47 137.82
  C 10.95 137.81 4.88 138.29 0.00 137.69
  L 0.00 125.44
  Z"
/>
<path fill="#ffffff" d="
  M 0.00 137.69
  C 4.88 138.29 10.95 137.81 14.47 137.82
  Q 162.24 138.26 310.00 137.81
  L 310.00 150.59
  L 0.00 150.69
  L 0.00 137.69
  Z"
/>
<path fill="#b22234" d="
  M 310.00 150.59
  L 310.00 163.00
  L 0.00 163.00
  L 0.00 150.69
  L 310.00 150.59
  Z"
/>
</svg>
